<svg width="149" height="84" viewBox="0 0 149 84" xmlns="http://www.w3.org/2000/svg" xmlns:xlink="http://www.w3.org/1999/xlink"><title>LogoCompleto</title><defs><path id="a" d="M0 .355v38.123h51.6V.355H0z"/><path id="c" d="M.225 4.684H4.38V.378H.225z"/><path id="e" d="M.16 4.684h4.157V.378H.16z"/><path id="g" d="M.291 5.961h4.157V.312H.29z"/><path id="i" d="M0 83.745h148.973V0H0z"/></defs><g fill="none" fill-rule="evenodd"><g transform="translate(0 22.857)"><mask id="b" fill="#fff"><use xlink:href="#a"/></mask><path d="M.384 7.243c.339-1.87 1.15-3.335 2.428-4.4 1.277-1.06 2.576-1.783 3.9-2.166 1.32-.382 2.47-.425 3.451-.128.979.3 1.342.957 1.086 1.977-.256 1.19-.555 2.804-.894 4.844a138.41 138.41 0 0 0-.896 6.247 189.58 189.58 0 0 0-.638 6.056c-.173 1.912-.256 3.295-.256 4.144a37.59 37.59 0 0 1 1.278-3.698 100.664 100.664 0 0 1 1.598-3.76 35.12 35.12 0 0 1 1.726-3.38c.595-1.02 1.15-1.825 1.662-2.422.594-.848 1.512-1.508 2.747-1.976 1.235-.466 2.385-.701 3.452-.701 1.064 0 1.936.299 2.622.893.68.595.808 1.445.382 2.55-.171.509-.342 1.488-.51 2.931a248.114 248.114 0 0 0-.512 4.718c.512-1.189 1.192-2.506 2.046-3.952.85-1.444 1.702-2.825 2.555-4.143.851-1.317 1.64-2.529 2.366-3.634.723-1.104 1.297-1.913 1.726-2.423.595-.848 1.488-1.55 2.683-2.103 1.193-.551 2.343-.828 3.452-.828 1.107 0 2.046.277 2.812.828.768.554 1.107 1.466 1.022 2.74l-.446 3.061c-.214 1.446-.49 3.104-.832 4.971a163.325 163.325 0 0 0-.958 5.865c-.299 2.04-.555 3.888-.768 5.546-.213 1.657-.341 3.04-.382 4.143-.045 1.105.105 1.658.446 1.658.512 0 1.192-.594 2.046-1.786.85-1.189 1.683-2.612 2.494-4.27a83.207 83.207 0 0 0 2.3-5.163c.722-1.785 1.256-3.229 1.597-4.335.256-.765.659-1.295 1.214-1.594.555-.296 1.088-.382 1.598-.254.512.128.939.426 1.28.893.339.466.424 1.082.254 1.847-.254 1.192-.83 2.87-1.724 5.036a55.632 55.632 0 0 1-3.26 6.566c-1.28 2.211-2.685 4.208-4.22 5.992-1.533 1.786-3.11 2.805-4.729 3.06-1.79.34-3.217.128-4.281-.637-1.067-.765-1.835-1.869-2.302-3.315-.47-1.445-.747-3.08-.83-4.909a37.776 37.776 0 0 1 .126-5.419c.17-1.783.384-3.377.64-4.78.256-1.402.512-2.442.768-3.124-.43.172-1.067.978-1.918 2.423a94.41 94.41 0 0 0-2.622 4.78 139.186 139.186 0 0 0-2.491 5.1 162.975 162.975 0 0 0-1.534 3.379v-.128c-.174.51-.576 1.084-1.214 1.722a7.49 7.49 0 0 1-2.238 1.53c-.854.382-1.643.573-2.366.573-.723 0-1.214-.425-1.47-1.275-.256-.848-.427-2.018-.51-3.506a72.968 72.968 0 0 1-.127-4.334c0-1.403.018-2.677.064-3.825.04-1.147.018-1.848-.064-2.103-.43.171-.897.936-1.406 2.294a107.36 107.36 0 0 0-1.598 4.59 66.244 66.244 0 0 0-1.472 5.227c-.427 1.785-.723 3.187-.894 4.207-.17 1.106-.747 1.934-1.726 2.487a6.41 6.41 0 0 1-3.195.828c-1.15 0-2.174-.3-3.068-.892C.957 36.992.552 36.056.64 34.78c.083-1.443.064-3.379-.064-5.8-.128-2.423-.256-4.95-.384-7.586A160.163 160.163 0 0 1 0 13.617c0-2.55.128-4.673.384-6.374" fill="#F8EBDE" mask="url(#b)"/></g><path d="M48.033 30.609c0-1.444.53-2.528 1.598-3.251a7.502 7.502 0 0 1 3.515-1.275c1.278-.127 2.428.044 3.452.51 1.022.468 1.489 1.17 1.406 2.104-.173 2.72-.43 5.567-.768 8.541a470.855 470.855 0 0 1-1.022 8.288c-.341 2.55-.555 4.696-.64 6.438-.085 1.743.128 2.698.64 2.869.424.171.894-.148 1.406-.957.512-.807 1.021-1.89 1.534-3.25a108.298 108.298 0 0 0 1.597-4.59 246.153 246.153 0 0 0 3.004-9.944c.427-1.53.808-2.762 1.15-3.698.085-1.274.661-2.06 1.726-2.358 1.064-.297 2.195-.275 3.387.063 1.193.34 2.238.852 3.132 1.53.897.681 1.3 1.402 1.216 2.168-.34 1.53-.661 3.441-.96 5.737a73.46 73.46 0 0 0-.573 6.629c-.088 2.125-.025 3.953.189 5.483.213 1.53.704 2.294 1.472 2.294.51 0 1.129-.657 1.852-1.976.723-1.317 1.427-2.868 2.11-4.653.68-1.785 1.32-3.57 1.918-5.354.594-1.786 5.051-14.888 5.222-15.823.17-.849.555-1.424 1.152-1.721.595-.297 1.193-.384 1.787-.256a2.429 2.429 0 0 1 1.473.957c.382.51.446 1.146.19 1.91-.171.683-4.604 13.7-5.159 15.57-.555 1.87-1.278 3.91-2.174 6.119a44.343 44.343 0 0 1-3.196 6.374c-1.234 2.04-2.619 3.529-4.153 4.463-.939.596-1.982.848-3.132.764a8.483 8.483 0 0 1-3.323-.956c-1.067-.552-2.003-1.358-2.812-2.422-.81-1.062-1.344-2.314-1.598-3.76-.256-1.276-.384-2.72-.384-4.336a52.998 52.998 0 0 1-2.686 6.758c-1.021 2.125-2.216 3.868-3.577 5.226-.853.935-1.854 1.467-3.003 1.593a6.02 6.02 0 0 1-3.324-.573c-1.067-.51-2.003-1.254-2.814-2.23a7.518 7.518 0 0 1-1.598-3.38c-.256-1.274-.384-2.887-.384-4.844 0-1.954.064-4.08.192-6.374.128-2.295.301-4.673.512-7.139.21-2.465.363-4.887.448-7.268" fill="#F8EBDE"/><path d="M86.729 5.366c0-2.04.552-3.461 1.662-4.27C89.497.289 90.69-.072 91.97.012c1.277.085 2.405.553 3.387 1.402.979.851 1.342 1.957 1.086 3.315-.171.596-.363 2.084-.576 4.463a918.53 918.53 0 0 1-.83 8.668 419.48 419.48 0 0 0-.96 11.22 1337.9 1337.9 0 0 0-.83 12.11 70.996 70.996 0 0 1 3.388-6.438c1.235-2.082 2.192-3.588 2.875-4.525.68-.848 1.662-1.508 2.94-1.977 1.278-.465 2.512-.678 3.707-.637 1.193.044 2.15.34 2.876.893.723.553.872 1.424.449 2.614-.257.764-.555 2.358-.894 4.78a128.07 128.07 0 0 0-.833 7.459c-.213 2.55-.298 4.844-.256 6.884.043 2.04.278 3.06.705 3.06.51 0 1.17-.595 1.982-1.785.808-1.189 1.637-2.614 2.491-4.271a55.4 55.4 0 0 0 2.302-5.1c.68-1.741 1.193-3.165 1.534-4.27.256-.766.659-1.276 1.214-1.531.552-.254 1.085-.338 1.598-.254.511.085.936.362 1.277.829.339.468.427 1.083.256 1.847-.256 1.192-.81 2.87-1.662 5.036a57.97 57.97 0 0 1-3.131 6.63c-1.238 2.253-2.644 4.251-4.218 5.992-1.579 1.743-3.177 2.785-4.796 3.124-1.787.34-3.238.171-4.345-.51-1.107-.68-1.96-1.657-2.556-2.933-.597-1.274-1.002-2.76-1.216-4.461a32.56 32.56 0 0 1-.253-4.972c.04-1.614.168-3.102.381-4.463.214-1.358.448-2.379.704-3.06-.426.172-1.021 1.128-1.79 2.868a111.65 111.65 0 0 0-2.366 5.865 142.026 142.026 0 0 0-2.235 6.438c-.683 2.126-1.067 3.698-1.15 4.718 0 .254-.045.426-.128.51v1.274c0 1.19-.493 2.104-1.47 2.742a6.207 6.207 0 0 1-3.198 1.02c-1.15.041-2.171-.213-3.067-.765-.894-.555-1.257-1.467-1.086-2.742.17-2.123.384-4.864.64-8.223.253-3.356.51-6.947.766-10.773.256-3.824.512-7.712.768-11.665.256-3.951.467-7.627.637-11.028.171-3.398.32-6.352.449-8.86.128-2.506.192-4.228.192-5.164M54.403 81.665c.562 0 .963-.145.963-.709 0-.557-.414-.725-.943-.725-.188 0-.375.024-.549.06v1.343c.188.019.368.03.529.03zM52.85 83.69v-4.1a8.044 8.044 0 0 1 1.506-.162c1.158 0 2.041.366 2.041 1.518 0 1.02-.783 1.433-1.894 1.433a5.67 5.67 0 0 1-.629-.042v1.355H52.85z" fill="#F8EBDE"/><g transform="translate(55.928 79.062)"><mask id="d" fill="#fff"><use xlink:href="#c"/></mask><path d="M2.266 1.464L1.751 3.16h1.044l-.529-1.696zm.743 2.38H1.543l-.234.786H.225L1.765.486l1.05-.108 1.566 4.198-1.11.108-.262-.84z" fill="#F8EBDE" mask="url(#d)"/></g><path d="M63.472 83.691l-1.158-1.895c-.228-.372-.469-.725-.643-1.133.067.587.067 1.223.067 1.787v1.241h-.977v-4.09l1.178-.162 1.024 1.698c.295.491.549.9.783 1.355-.087-.545-.12-1.14-.12-1.9v-1.098h.977v4.197h-1.131z" fill="#F8EBDE"/><g transform="translate(64.894 79.062)"><mask id="f" fill="#fff"><use xlink:href="#e"/></mask><path d="M2.202 1.464L1.686 3.16H2.73l-.528-1.696zm.742 2.38H1.478l-.234.786H.16L1.7.486 2.75.378l1.567 4.198-1.112.108-.26-.84z" fill="#F8EBDE" mask="url(#f)"/></g><path fill="#F8EBDE" d="M73.45 80.765l-.85 2.926h-.944l-.937-2.926-.147 2.926h-1.025l.422-4.198h1.259l.897 3.059.87-3.059h1.258l.416 4.18-1.052.072z"/><g transform="translate(74.713 77.784)"><mask id="h" fill="#fff"><use xlink:href="#g"/></mask><path d="M1.877 1.355L2.32.312l1.025.054-.764 1.05-.703-.06zm.456 1.386l-.516 1.697h1.044L2.333 2.74zm.742 2.381H1.61l-.235.785H.291l1.54-4.144 1.05-.107 1.567 4.197-1.112.108-.26-.839z" fill="#F8EBDE" mask="url(#h)"/></g><path fill="#F8EBDE" d="M56.623 70.759l-1.734 4.495h-.296l-1.734-4.495-.354 4.495h-.345l.434-5.035h.401l1.75 4.539 1.758-4.539h.385l.434 5.02-.33.029zm1.697 4.495V70.22h3.05v.28h-2.721v1.935h2.247l-.04.28h-2.207v2.259h2.72v.28zm5.662-4.654l-1.1 3.057h2.192l-1.092-3.056zm1.678 4.675l-.481-1.338h-2.392l-.474 1.317h-.345l1.846-5.02.337-.036 1.855 5.041-.346.036zm1.82-.021V70.5h-1.743v-.28h3.813v.28h-1.742v4.754zm4.626-.187c.762 0 1.453-.288 1.453-1.15 0-.677-.714-.878-1.557-1.101-.915-.245-1.654-.518-1.654-1.374 0-.964.787-1.309 1.677-1.309.555 0 1.069.072 1.526.295l-.129.252c-.45-.216-.906-.274-1.38-.274-.77 0-1.372.252-1.372 1.029 0 .698.65.885 1.436 1.1.915.252 1.774.49 1.774 1.388 0 1.022-.803 1.417-1.766 1.417-.746 0-1.437-.158-1.935-.446l.145-.259a3.722 3.722 0 0 0 1.782.432m6.374-.094c1.173 0 1.775-.201 1.775-1.071 0-.892-.803-1.065-1.59-1.065h-1.34v2.136h1.156zm.185-2.416c.61 0 1.382-.13 1.382-.979 0-.934-.804-1.172-1.63-1.172-.386 0-.77.044-1.092.116v2.035h1.34zm-1.669-2.273a6.49 6.49 0 0 1 1.397-.158c1.02 0 1.982.31 1.982 1.446 0 .669-.401 1.042-.98 1.114.587.05 1.197.389 1.197 1.237 0 .906-.626 1.33-1.773 1.33h-1.823v-4.969zm8.368 2.453c0-1.396-.313-2.33-1.862-2.33-1.549 0-1.862.934-1.862 2.33 0 1.395.313 2.33 1.862 2.33 1.549 0 1.862-.935 1.862-2.33m-4.053 0c0-1.777.618-2.604 2.191-2.604s2.191.827 2.191 2.604c0 1.776-.618 2.603-2.191 2.603s-2.191-.827-2.191-2.603m9.386 0c0 1.776-.586 2.603-2.006 2.603-1.438 0-2.016-.827-2.016-2.603V70.22h.33v2.517c0 1.603.45 2.337 1.686 2.337 1.235 0 1.677-.734 1.677-2.337V70.22h.329v2.517zm2.58 2.517V70.5h-1.742v-.28h3.813v.28h-1.741v4.754z"/><mask id="j" fill="#fff"><use xlink:href="#i"/></mask><path fill="#F8EBDE" mask="url(#j)" d="M96.227 75.254h.432V70.22h-.432zm5.409-2.517c0-1.402-.314-2.338-1.863-2.338s-1.862.936-1.862 2.338c0 1.402.313 2.337 1.862 2.337 1.55 0 1.863-.935 1.863-2.337zm-.932 3.603a2.333 2.333 0 0 1-.859-1h-.072c-1.573 0-2.191-.827-2.191-2.603 0-1.777.618-2.604 2.191-2.604 1.574 0 2.192.827 2.192 2.604 0 1.618-.514 2.445-1.782 2.581.128.324.441.626.818.85l-.297.172zm6.264-3.603c0 1.776-.585 2.603-2.006 2.603-1.437 0-2.015-.827-2.015-2.603V70.22h.329v2.517c0 1.603.45 2.337 1.686 2.337 1.235 0 1.677-.734 1.677-2.337V70.22h.329v2.517zm1.087 2.517V70.22h3.05v.28h-2.72v1.935h2.247l-.04.28h-2.208v2.259h2.721v.28zm7.909-4.654l-1.1 3.057h2.191l-1.091-3.056zm1.677 4.675l-.481-1.338h-2.392l-.474 1.317h-.345l1.846-5.02.337-.036 1.854 5.041-.345.036zm4.491-.021l-3.106-4.589v4.589h-.297V70.27l.345-.086 3.122 4.616v-4.58h.297v5.034zm3.287-.281c1.316 0 1.926-.496 1.926-2.236 0-1.899-.77-2.323-1.886-2.323-.49 0-1.028.028-1.51.122v4.437h1.47zm-1.798-4.689a10.877 10.877 0 0 1 1.806-.151c1.292 0 2.247.453 2.247 2.604 0 1.877-.722 2.517-2.263 2.517h-1.79v-4.97zm9.472 5.056c-1.445 0-2.28-.575-2.28-2.604 0-1.898 1.076-2.603 2.304-2.603.586 0 1.156.05 1.622.302l-.153.245c-.433-.216-.899-.274-1.413-.274-1.18 0-2.03.626-2.03 2.323 0 1.813.618 2.338 1.958 2.338.57 0 1.132-.072 1.558-.252v-1.72h-1.654v-.28h1.982v2.208c-.561.238-1.188.317-1.894.317m4.651-2.294c.746 0 1.389-.324 1.389-1.244 0-1.079-.827-1.388-1.742-1.388-.362 0-.739.05-1.076.122v2.51h1.429zm1.493 2.243l-1.26-1.963h-1.662v1.928h-.329v-4.97a7.285 7.285 0 0 1 1.389-.151c1.1 0 2.087.374 2.087 1.669 0 .884-.514 1.287-1.164 1.438l1.276 1.978-.337.071zm1.176-.035h.432V70.22h-.432zm1.459 0V70.22h.33v4.76h2.809v.274zm3.962 0V70.22h.33v4.76h2.81v.274z"/></g></svg>