<svg width="28" height="43" viewBox="0 0 28 43" xmlns="http://www.w3.org/2000/svg" xmlns:xlink="http://www.w3.org/1999/xlink"><title>Page 1</title><defs><path id="a" d="M0 42.636h27.795V.312H0z"/></defs><g fill="none" fill-rule="evenodd"><g transform="translate(0 .052)"><mask id="b" fill="#fff"><use xlink:href="#a"/></mask><path d="M20.846 14.42c0 3.885-3.121 7.054-6.949 7.054-3.827 0-6.948-3.169-6.948-7.054 0-3.885 3.121-7.054 6.948-7.054 3.828 0 6.95 3.169 6.95 7.054m6.948 0c0-7.798-6.216-14.108-13.898-14.108C6.216.312 0 6.622 0 14.42c0 1.68.19 3.417.896 4.932l9.907 21.327c.543 1.213 1.791 1.957 3.094 1.957s2.552-.744 3.122-1.957l9.88-21.327c.706-1.515.896-3.251.896-4.932" fill="#434244" mask="url(#b)"/></g><path d="M24.128 14.508c0 5.736-4.58 10.386-10.23 10.386S3.666 20.244 3.666 14.508c0-5.736 4.58-10.385 10.23-10.385s10.231 4.65 10.231 10.385" fill="#221F20"/><path d="M22.836 13.942c-.038.182-.12.435-.245.767-.127.329-.28.665-.462 1.008-.182.343-.39.647-.623.911-.233.266-.47.425-.709.476-.264.052-.478.027-.642-.075a.99.99 0 0 1-.38-.445 2.308 2.308 0 0 1-.181-.677 5.12 5.12 0 0 1-.038-.756c.004-.245.024-.472.056-.68.03-.205.066-.361.103-.464-.064.026-.15.172-.264.436a20.727 20.727 0 0 0-.678 1.871c-.1.323-.157.563-.17.717 0 .04-.007.065-.018.077v.194c0 .18-.073.32-.217.417a.911.911 0 0 1-.473.156.782.782 0 0 1-.454-.115c-.132-.084-.186-.223-.161-.417l.093-1.25c.03-.416.06-.856.09-1.32-.07.217-.152.448-.246.692a6.86 6.86 0 0 1-.471.97c-.182.31-.387.536-.613.68a.73.73 0 0 1-.464.117 1.244 1.244 0 0 1-.91-.513 1.3 1.3 0 0 1-.236-.57 3.398 3.398 0 0 1-.058-.659 8.15 8.15 0 0 1-.397 1.028 2.87 2.87 0 0 1-.527.794.685.685 0 0 1-.445.242.875.875 0 0 1-.492-.086 1.23 1.23 0 0 1-.655-.853 3.906 3.906 0 0 1-.058-.735c0-.075 0-.152.002-.233l-.054.098c-.188.336-.397.64-.623.911-.227.273-.46.428-.698.466-.267.052-.477.02-.635-.097a.971.971 0 0 1-.342-.503 2.91 2.91 0 0 1-.125-.746 5.891 5.891 0 0 1 .017-.824c.025-.271.056-.513.094-.727.038-.213.075-.37.113-.475-.063.025-.157.149-.284.369a18.825 18.825 0 0 0-.754 1.503c-.113.252-.188.423-.227.514v-.019a.744.744 0 0 1-.178.263 1.107 1.107 0 0 1-.331.233.845.845 0 0 1-.35.089c-.107 0-.18-.065-.218-.194a2.37 2.37 0 0 1-.076-.533c-.014-.226-.02-.445-.02-.658 0-.213.003-.406.01-.58.004-.176.002-.282-.011-.322-.064.026-.132.143-.207.35-.075.208-.155.44-.236.698a10.776 10.776 0 0 0-.348 1.434.5.5 0 0 1-.256.378.93.93 0 0 1-.471.127.777.777 0 0 1-.454-.134c-.132-.09-.193-.233-.18-.425a8.42 8.42 0 0 0-.011-.883l-.06-1.152c-.018-.4-.029-.795-.03-1.182 0-.388.018-.71.056-.969a1.1 1.1 0 0 1 .357-.669c.189-.161.381-.271.577-.33a.874.874 0 0 1 .51-.02c.146.046.2.146.162.302-.039.18-.082.425-.131.735a24.301 24.301 0 0 0-.223 1.87 8.439 8.439 0 0 0-.038.63c.05-.18.113-.369.188-.563.075-.194.155-.384.237-.57.082-.188.167-.36.255-.514a2.44 2.44 0 0 1 .246-.369.836.836 0 0 1 .406-.3c.182-.073.353-.107.51-.107.157 0 .286.044.389.134.1.09.12.22.057.387-.025.078-.05.227-.074.446-.025.22-.05.46-.075.717.075-.18.177-.381.302-.6.126-.22.25-.431.378-.63.125-.201.242-.385.349-.553a4.36 4.36 0 0 1 .255-.369.957.957 0 0 1 .396-.32 1.19 1.19 0 0 1 .51-.127c.165 0 .304.042.416.126.114.084.164.223.151.416l-.064.465c-.032.22-.072.472-.123.756-.05.285-.098.581-.14.892-.044.31-.082.591-.113.843a7.7 7.7 0 0 0-.056.63c-.007.167.015.251.066.251.075 0 .175-.09.302-.273.125-.18.249-.396.369-.65.12-.252.232-.513.34-.786.107-.272.185-.49.235-.658a.475.475 0 0 1 .072-.144c.026-.333.044-.659.055-.98 0-.22.078-.385.237-.495.157-.11.33-.175.52-.195a.96.96 0 0 1 .51.077c.151.071.22.176.209.32-.025.413-.063.847-.112 1.298-.05.452-.099.872-.148 1.26-.05.387-.082.713-.095.979-.012.266.02.41.097.435.062.025.132-.023.207-.146.075-.122.15-.287.227-.494.075-.206.155-.44.236-.698a35.731 35.731 0 0 0 .441-1.511c.064-.233.119-.42.17-.563.014-.193.099-.312.256-.358a.892.892 0 0 1 .5.01c.176.05.332.129.464.232.132.102.193.212.182.328a12.375 12.375 0 0 0-.225 1.88c-.013.323-.003.601.03.834.032.233.104.348.218.348.075 0 .167-.1.274-.3a5.89 5.89 0 0 0 .312-.71c.1-.27.195-.541.283-.814.087-.27.745-2.264.77-2.406a.393.393 0 0 1 .023-.082c.018-.328.034-.643.048-.943l.065-1.347c.018-.38.027-.643.027-.786 0-.31.082-.526.245-.65a.767.767 0 0 1 .53-.165c.19.013.357.083.501.212.146.13.2.297.162.503-.025.091-.053.317-.085.68-.03.361-.07.8-.121 1.318-.05.516-.097 1.085-.14 1.705-.042.621-.083 1.235-.119 1.841.15-.336.317-.662.5-.98a9.55 9.55 0 0 1 .425-.687c.1-.13.245-.23.434-.3.19-.071.372-.104.55-.1a.719.719 0 0 1 .425.135c.107.084.129.216.067.398-.038.117-.081.358-.131.727-.05.368-.09.746-.122 1.133-.031.388-.042.737-.037 1.048.008.31.043.464.105.464.075 0 .174-.091.294-.272.118-.182.242-.398.367-.65s.238-.511.34-.775c.1-.264.177-.482.227-.65.038-.117.096-.194.179-.234a.392.392 0 0 1 .235-.038.292.292 0 0 1 .19.125c.045.067.057.16.032.276" fill="#F7EADD"/></g></svg>