<?xml version="1.0" encoding="UTF-8" standalone="no"?>
<svg width="149px" height="84px" viewBox="0 0 149 84" version="1.1" xmlns="http://www.w3.org/2000/svg" xmlns:xlink="http://www.w3.org/1999/xlink">
    <!-- Generator: Sketch 41 (35326) - http://www.bohemiancoding.com/sketch -->
    <title>LogoCompleto</title>
    <desc>Created with Sketch.</desc>
    <defs>
        <polygon id="path-1" points="2.89301797e-20 0.354533674 2.89301797e-20 38.4781409 51.6000759 38.4781409 51.6000759 0.354533674 0 0.354533674"></polygon>
        <polygon id="path-3" points="0.224866189 4.68374299 4.38149656 4.68374299 4.38149656 0.378233536 0.224866189 0.378233536"></polygon>
        <polygon id="path-5" points="0.159929513 4.68374299 4.31655989 4.68374299 4.31655989 0.378233536 0.159929513 0.378233536"></polygon>
        <polygon id="path-7" points="0.290998281 5.96112744 4.44762865 5.96112744 4.44762865 0.31219276 0.290998281 0.31219276"></polygon>
        <polygon id="path-9" points="0 83.7453246 148.973103 83.7453246 148.973103 0 0 0"></polygon>
    </defs>
    <g id="Mobile-First" stroke="none" stroke-width="1" fill="none" fill-rule="evenodd">
        <g id="2-Slide-Section-#2-Copy">
            <g id="LogoCompleto">
                <g id="Group-3" transform="translate(0.000000, 22.856666)">
                    <mask id="mask-2" fill="white">
                        <use xlink:href="#path-1"></use>
                    </mask>
                    <g id="Clip-2"></g>
                    <path d="M0.384112607,7.24268468 C0.722671347,5.37387123 1.53384613,3.90785967 2.81165989,2.84379842 C4.0890467,1.78229194 5.38820716,1.06014394 6.71127593,0.6769286 C8.03178309,0.294990649 9.18151662,0.252411168 10.1630381,0.549190155 C11.141998,0.848523911 11.504892,1.50552531 11.2487315,2.5257297 C10.9925711,3.716252 10.6941441,5.33001436 10.3551585,7.37042312 C10.0136112,9.4095545 9.71518424,11.4938201 9.45902378,13.6168331 C9.20286332,15.7424008 8.98939628,17.7606682 8.82118424,19.6733386 C8.647849,21.5847315 8.56545072,22.9681389 8.56545072,23.8167479 C8.90400946,22.627503 9.33094355,21.3944012 9.84283754,20.1187199 C10.3551585,18.8447419 10.8858375,17.5916277 11.4408519,16.3585259 C11.9928777,15.1267015 12.5692387,14.0000484 13.1665195,12.979844 C13.7616656,11.9596397 14.316253,11.1536101 14.8285739,10.5574973 C15.4232931,9.70888826 16.3412014,9.04890629 17.5758948,8.58095779 C18.8110152,8.11513826 19.9607487,7.87967372 21.027657,7.87967372 C22.0920037,7.87967372 22.9642301,8.17900748 23.6498862,8.77256546 C24.3299923,9.3682524 24.4580725,10.2181389 24.0315653,11.3222248 C23.8607917,11.8319012 23.6900181,12.8108035 23.521806,14.2542479 C23.3484708,15.7015245 23.1802587,17.2722816 23.009912,18.9720545 C23.521806,17.7832354 24.201912,16.466252 25.0557802,15.0202528 C25.9066599,13.575531 26.7575395,12.1951042 27.6109808,10.8768434 C28.4622874,9.55986007 29.2516885,8.34804802 29.9770496,7.24268468 C30.7002759,6.13859872 31.2736484,5.33001436 31.7031441,4.82033796 C32.2978633,3.97172889 33.1914364,3.27087063 34.3864249,2.71733736 C35.5788519,2.16550728 36.7285854,1.88874065 37.8381871,1.88874065 C38.9452272,1.88874065 39.8844822,2.16550728 40.6499751,2.71733736 C41.4180295,3.27087063 41.7570152,4.18334892 41.6716284,5.45775281 C41.5862415,6.05343975 41.4368146,7.07364414 41.2259092,8.51836595 C41.0124421,9.96436515 40.7353619,11.6215586 40.3938146,13.4890946 C40.0522673,15.3608887 39.7320668,17.3148611 39.4362014,19.3539925 C39.1373476,21.3944012 38.8811871,23.2423507 38.6677201,24.8995441 C38.4546799,26.5571634 38.3265997,27.9405707 38.2864679,29.0429535 C38.2412129,30.1483169 38.3906398,30.7005727 38.7317602,30.7005727 C39.2440811,30.7005727 39.9241871,30.1074406 40.7780553,28.9152151 C41.628935,27.7263959 42.4610295,26.3029639 43.2717774,24.6453446 C44.0803905,22.9881512 44.8458834,21.2666628 45.5712444,19.4817309 C46.2940438,17.696799 46.8277115,16.2533546 47.1692587,15.1467139 C47.4254192,14.3819864 47.8280181,13.8522976 48.3830324,13.5529639 C48.9376198,13.2566107 49.4712874,13.1714517 49.9806198,13.2991902 C50.4929407,13.4265028 50.9198748,13.7245592 51.2609951,14.1916561 C51.5999808,14.6583272 51.6853676,15.2744523 51.514594,16.0391798 C51.2609951,17.2309795 50.685061,18.9086111 49.791488,21.0754809 C48.8949264,23.2423507 47.809233,25.4317877 46.5318461,27.641237 C45.2514708,29.8519637 43.8455768,31.8485156 42.3116026,33.6334474 C40.7780553,35.4188051 39.2013877,36.4377321 37.5820266,36.6927832 C35.7923189,37.033419 34.3650782,36.8205216 33.3007315,36.0557941 C32.2338232,35.2910667 31.4657688,34.1869807 30.9987029,32.7409815 C30.5295023,31.2962597 30.2519951,29.6616334 30.1691699,27.8324188 C30.0812215,26.0061849 30.1239149,24.1986859 30.2946885,22.4133282 C30.4654622,20.6296737 30.6789292,19.0359237 30.9346628,17.6329298 C31.1908232,16.2307875 31.4469837,15.1905707 31.7031441,14.509299 C31.2736484,14.6808943 30.6362358,15.4873497 29.7853562,16.9316457 C28.931488,18.3776449 28.0592616,19.9713949 27.1631269,21.7124699 C26.2695539,23.4560997 25.4370324,25.155021 24.6715395,26.8122145 C23.9034851,28.4698337 23.3937258,29.5977642 23.1379923,30.1908963 L23.1379923,30.0631579 C22.9642301,30.5728343 22.5616312,31.1472315 21.9242186,31.7846463 C21.2838175,32.4216354 20.5371097,32.9325892 19.6862301,33.3141013 C18.8323619,33.6973167 18.0429607,33.8876469 17.3201613,33.8876469 C16.596935,33.8876469 16.1063877,33.4631295 15.8502272,32.6132431 C15.5940668,31.764634 15.4232931,30.5954014 15.3408948,29.1068227 C15.2525195,27.6212246 15.2128146,26.1752254 15.2128146,24.7730831 C15.2128146,23.3696634 15.2311728,22.0956853 15.2768547,20.9477425 C15.3165596,19.801077 15.2952129,19.0997929 15.2128146,18.8447419 C14.7833189,19.0163372 14.316253,19.7810647 13.8069206,21.1389243 C13.2945997,22.4997646 12.761359,24.0296453 12.2089063,25.7281409 C11.6517573,27.429617 11.1633447,29.170692 10.7368375,30.9560496 C10.3099034,32.7409815 10.0136112,34.1431238 9.84283754,35.1633282 C9.67249083,36.2686916 9.0961298,37.0972883 8.11716991,37.6495441 C7.13564842,38.2013742 6.07130172,38.4781409 4.92156819,38.4781409 C3.77183467,38.4781409 2.74761977,38.1788071 1.8540467,37.5856749 C0.9574851,36.992117 0.552324642,36.0557941 0.640273066,34.7801129 C0.722671347,33.3370942 0.704313181,31.401431 0.576232951,28.9790843 C0.448152722,26.5571634 0.320072493,24.0296453 0.191992264,21.3944012 C0.0639120344,18.7608603 -0.000128080229,16.1669182 -0.000128080229,13.6168331 C-0.000128080229,11.0671737 0.127952149,8.94416077 0.384112607,7.24268468" id="Fill-1" fill="#F8EBDE" mask="url(#mask-2)"></path>
                </g>
                <path d="M48.0330318,30.608814 C48.0330318,29.1653695 48.5637109,28.0812959 49.6310461,27.3578705 C50.6953928,26.6369999 51.8660461,26.2112051 53.1464215,26.0834666 C54.4242352,25.9557282 55.5739688,26.1273235 56.5981837,26.593143 C57.619837,27.0610915 58.0869029,27.7623756 58.0040777,28.697421 C57.8307424,31.4173983 57.5745819,34.2642625 57.2360232,37.2384393 C56.8944759,40.2155966 56.5529287,42.9755986 56.2143699,45.5256838 C55.8728226,48.0753431 55.6593556,50.2222006 55.5739688,51.9637014 C55.4885819,53.7073312 55.702049,54.662389 56.2143699,54.8327069 C56.6383155,55.0043022 57.107943,54.6849561 57.619837,53.8763717 C58.1321579,53.0690648 58.6414903,51.9862685 59.1538112,50.6254283 C59.6661321,49.2671428 60.1968112,47.7364105 60.7513986,46.0362118 C61.3038513,44.3364389 61.837092,42.6375175 62.3494129,40.9364672 C62.8617338,39.2362685 63.3283728,37.6216546 63.7553069,36.0917738 C64.181814,34.5623188 64.5634931,33.3304944 64.9050404,32.3937458 C64.9904272,31.1197677 65.5663613,30.3346021 66.630708,30.0356941 C67.6950547,29.7389151 68.8260032,29.7614823 70.0184301,30.0991376 C71.210857,30.4397734 72.2564186,30.9507272 73.1499917,31.6290183 C74.0465533,32.31029 74.4491521,33.0311607 74.3663269,33.7971655 C74.0252066,35.3270463 73.705006,37.2384393 73.4061521,39.5343249 C73.1072983,41.8289332 72.9151779,44.0396599 72.8327797,46.1626728 C72.7448312,48.2882405 72.8084444,50.1161777 73.0219115,51.6456327 C73.2353785,53.1755135 73.7263527,53.9402409 74.4944072,53.9402409 C75.0041665,53.9402409 75.622794,53.2832395 76.3455934,51.9637014 C77.0688198,50.646718 77.7728341,49.0955475 78.4559287,47.3106156 C79.1360347,45.5256838 79.7760089,43.7403261 80.3737166,41.9566716 C80.9684358,40.171314 85.4252009,27.0687558 85.5959745,26.1337104 C85.7667481,25.2851014 86.1509888,24.7102784 86.7482696,24.4126478 C87.3429888,24.1158688 87.9406966,24.0294324 88.5354158,24.1571709 C89.1331235,24.2849093 89.6240977,24.6025523 90.0079115,25.113506 C90.3895905,25.6231824 90.4536307,26.2601715 90.1974702,27.024899 C90.0266966,27.7074481 85.5938398,40.7248472 85.0392524,42.5936607 C84.4842381,44.4641773 83.7614387,46.5033087 82.8648771,48.712758 C81.971304,50.9247621 80.9043957,53.047775 79.6692754,55.0869064 C78.4345819,57.1273152 77.0500347,58.6158938 75.5160605,59.5496619 C74.5772324,60.1457746 73.5342324,60.3982709 72.3844989,60.3143894 C71.2347653,60.2305078 70.1251636,59.9115875 69.0608169,59.3580542 C67.9939086,58.8062241 67.0576421,57.9997687 66.2494559,56.9357075 C65.4382811,55.874201 64.9050404,54.6215127 64.6514415,53.1755135 C64.3952811,51.8998322 64.2672009,50.4563878 64.2672009,48.8404964 C63.4991464,51.221541 62.6055734,53.4735698 61.5813585,55.5978602 C60.5597052,57.7234279 59.3647166,59.4657803 58.0040777,60.8240658 C57.1506364,61.7591112 56.1503298,62.2913547 55.0005963,62.41739 C53.8483011,62.5451284 52.741261,62.3535207 51.6769143,61.8442701 C50.610006,61.3345937 49.6737395,60.5898786 48.8625648,59.6135311 C48.0518169,58.6371836 47.5207109,57.5092531 47.2649774,56.2348492 C47.0088169,54.9604453 46.8807367,53.3471088 46.8807367,51.3901558 C46.8807367,49.4361834 46.9447768,47.3106156 47.072857,45.0160074 C47.2009372,42.7213991 47.3742725,40.3429093 47.584751,37.8771315 C47.7956564,35.4122053 47.947645,32.9898586 48.0330318,30.608814" id="Fill-4" fill="#F8EBDE"></path>
                <path d="M86.7286734,5.36590886 C86.7286734,3.32677748 87.2806991,1.9046228 88.3907278,1.09603844 C89.497341,0.288731465 90.6897679,-0.0719167446 91.9701433,0.0119648344 C93.247957,0.0971237978 94.3763438,0.565072302 95.3578653,1.41410717 C96.3368252,2.26527101 96.6997192,3.37063435 96.4435587,4.72891982 C96.2727851,5.32460677 96.0810917,6.81318545 95.8676246,9.19167529 C95.6541576,11.5710167 95.3766504,14.4617377 95.0380917,17.860432 C94.6965444,21.2604036 94.3763438,24.9993079 94.07749,29.0792738 C93.7786361,33.158814 93.5041175,37.197052 93.247957,41.1905816 C94.2696103,38.9824097 95.3979971,36.8368296 96.6356791,34.7521382 C97.8707994,32.6704273 98.8284126,31.1635394 99.5110802,30.2272166 C100.191613,29.3786076 101.173135,28.7186256 102.450948,28.2502513 C103.728762,27.7848576 104.963456,27.5719602 106.158444,27.6132623 C107.350871,27.6571191 108.308484,27.9538981 109.034272,28.5057282 C109.757072,29.0592615 109.906499,29.9304377 109.482553,31.1196826 C109.226393,31.8844101 108.927539,33.4781601 108.588553,35.9005068 C108.244444,38.3224277 107.967364,40.8086436 107.756458,43.3587288 C107.542991,45.908814 107.457605,48.2029964 107.500298,50.2425536 C107.542991,52.2829624 107.777805,53.3031667 108.204739,53.3031667 C108.714072,53.3031667 109.375819,52.7083314 110.186567,51.5178091 C110.994754,50.3289899 111.824287,48.9042805 112.678155,47.2466613 C113.529034,45.5894678 114.297089,43.8905465 114.980183,42.1469167 C115.660289,40.4058417 116.17261,38.9824097 116.513731,37.8770463 C116.769891,37.1106156 117.172917,36.601365 117.727504,36.3458882 C118.27953,36.0916887 118.813198,36.0082329 119.325519,36.0916887 C119.837413,36.1768476 120.261785,36.4536142 120.602905,36.9207112 C120.941891,37.3886597 121.02984,38.0035074 120.859066,38.7682349 C120.602905,39.9600346 120.048318,41.6372403 119.197438,43.8041102 C118.34357,45.9722574 117.30057,48.1834099 116.065877,50.4337355 C114.828195,52.6870416 113.422301,54.6852967 111.848195,56.4263717 C110.269393,58.1687241 108.671378,59.210644 107.052444,59.5495767 C105.264871,59.8902126 103.813722,59.721172 102.707109,59.0403261 C101.600069,58.3603318 100.746201,57.3827069 100.151481,56.1070256 C99.5537736,54.8326217 99.1486132,53.3470236 98.9351461,51.6455475 C98.7216791,49.9457746 98.6362923,48.2881554 98.6815473,46.6735414 C98.7216791,45.0597791 98.8497593,43.5716262 99.0632264,42.210786 C99.2766934,40.8525005 99.5110802,39.8322961 99.7672407,39.1514502 C99.3407335,39.3230455 98.7455874,40.2793807 97.977533,42.0191783 C97.2090516,43.7628081 96.422212,45.7172063 95.6114642,47.8840761 C94.8002894,50.0522233 94.0561433,52.1990808 93.3760372,54.3220937 C92.6933696,56.4476615 92.3091289,58.0201217 92.2263037,59.0403261 C92.2263037,59.2940998 92.1810487,59.4656951 92.0982235,59.5495767 L92.0982235,60.8239806 C92.0982235,62.0132255 91.6046877,62.9282586 90.6287163,63.5656734 C89.6467679,64.2026625 88.5824212,64.5420209 87.4301261,64.5858778 C86.2803926,64.6271799 85.2587393,64.3729804 84.3626046,63.8207245 C83.4690315,63.2663397 83.1061375,62.3538614 83.2769112,61.0794575 C83.4476848,58.9564445 83.6611519,56.2147517 83.9173123,52.8560822 C84.1704842,49.4999674 84.4266447,45.908814 84.6828052,42.0830475 C84.9389656,38.2585585 85.1946991,34.370626 85.4508596,30.4183985 C85.7070201,26.4665968 85.9179255,22.791136 86.0882722,19.389887 C86.2590458,15.9916185 86.4084728,13.0383057 86.536553,10.5295226 C86.6646332,8.02372011 86.7286734,6.30223167 86.7286734,5.36590886" id="Fill-6" fill="#F8EBDE"></path>
                <path d="M54.4028032,81.6645931 C54.9650754,81.6645931 55.3663934,81.5202486 55.3663934,80.9564963 C55.3663934,80.3991309 54.9518404,80.2313677 54.4228691,80.2313677 C54.235445,80.2313677 54.0480209,80.2547864 53.8742587,80.290979 L53.8742587,81.6343616 C54.0616828,81.6526708 54.2422759,81.6645931 54.4028032,81.6645931 L54.4028032,81.6645931 Z M52.8500438,83.6913764 L52.8500438,79.5892691 C53.3252215,79.4934653 53.8806628,79.4274671 54.3558404,79.4274671 C55.5136857,79.4274671 56.3974393,79.7932249 56.3974393,80.944574 C56.3974393,81.9643526 55.6140152,82.3777994 54.5031327,82.3777994 C54.2956427,82.3777994 54.0881527,82.359916 53.8742587,82.3360715 L53.8742587,83.6913764 L52.8500438,83.6913764 Z" id="Fill-8" fill="#F8EBDE"></path>
                <g id="Group-12" transform="translate(55.928367, 79.061582)">
                    <mask id="mask-4" fill="white">
                        <use xlink:href="#path-3"></use>
                    </mask>
                    <g id="Clip-11"></g>
                    <path d="M2.26646504,1.46358452 L1.75115559,3.16037687 L2.79500946,3.16037687 L2.26646504,1.46358452 Z M3.00933037,3.84420335 L1.54323868,3.84420335 L1.30885186,4.62979478 L0.224866189,4.62979478 L1.76439054,0.485959625 L2.81507536,0.378233536 L4.38149656,4.57614464 L3.27018711,4.68387073 L3.00933037,3.84420335 Z" id="Fill-10" fill="#F8EBDE" mask="url(#mask-4)"></path>
                </g>
                <path d="M63.4718226,83.691419 L62.3139774,81.7962063 C62.0859946,81.4244874 61.8452037,81.0706519 61.6714415,80.6627404 C61.7380433,81.2503373 61.7380433,81.8864748 61.7380433,82.4502271 L61.7380433,83.691419 L60.7607911,83.691419 L60.7607911,79.601234 L61.9391292,79.4394319 L62.9629172,81.1366501 C63.2575017,81.6284431 63.5119544,82.0363545 63.7463413,82.491955 C63.6592467,81.9465118 63.6259458,81.3525281 63.6259458,80.5912069 L63.6259458,79.4935079 L64.603198,79.4935079 L64.603198,83.691419 L63.4718226,83.691419 Z" id="Fill-13" fill="#F8EBDE"></path>
                <g id="Group-17" transform="translate(64.893983, 79.061582)">
                    <mask id="mask-6" fill="white">
                        <use xlink:href="#path-5"></use>
                    </mask>
                    <g id="Clip-16"></g>
                    <path d="M2.20152837,1.46358452 L1.68621891,3.16037687 L2.73007278,3.16037687 L2.20152837,1.46358452 Z M2.9443937,3.84420335 L1.47830201,3.84420335 L1.24391519,4.62979478 L0.159929513,4.62979478 L1.69945387,0.485959625 L2.75056562,0.378233536 L4.31655989,4.57614464 L3.20525043,4.68387073 L2.9443937,3.84420335 Z" id="Fill-15" fill="#F8EBDE" mask="url(#mask-6)"></path>
                </g>
                <polygon id="Fill-18" fill="#F8EBDE" points="73.450041 80.7647609 72.6000152 83.6912487 71.6560639 83.6912487 70.7193705 80.7647609 70.5720782 83.6912487 69.5474364 83.6912487 69.9692473 79.4933376 71.227849 79.4933376 72.1248375 82.5518217 72.9949292 79.4933376 74.253104 79.4933376 74.6685109 83.6737911 73.6173991 83.7453246"></polygon>
                <g id="Group-22" transform="translate(74.713467, 77.784197)">
                    <mask id="mask-8" fill="white">
                        <use xlink:href="#path-7"></use>
                    </mask>
                    <g id="Clip-21"></g>
                    <path d="M1.87748539,1.35539006 L2.31893524,0.31219276 L3.34357708,0.365842907 L2.58021891,1.41542713 L1.87748539,1.35539006 Z M2.33259713,2.7409264 L1.81728768,4.43771874 L2.86114155,4.43771874 L2.33259713,2.7409264 Z M3.07546246,5.12197101 L1.60979771,5.12197101 L1.37541089,5.90713666 L0.290998281,5.90713666 L1.83052264,1.7633015 L2.88163438,1.65557541 L4.44762865,5.85348651 L3.3363192,5.9612126 L3.07546246,5.12197101 Z" id="Fill-20" fill="#F8EBDE" mask="url(#mask-8)"></path>
                </g>
                <g id="Group-2">
                    <polygon id="Fill-23" fill="#F8EBDE" points="56.6231166 70.7588807 54.8893372 75.2535708 54.5926181 75.2535708 52.8588387 70.7588807 52.5053372 75.2535708 52.1599476 75.2535708 52.5937126 70.2193987 52.9950307 70.2193987 54.7450335 74.7575199 56.5027212 70.2193987 56.8878158 70.2193987 57.3215808 75.2390938 56.9924146 75.2680479"></polygon>
                    <polygon id="Fill-25" fill="#F8EBDE" points="58.3194539 75.2536986 58.3194539 70.2195264 61.3694711 70.2195264 61.3694711 70.5001252 58.6486201 70.5001252 58.6486201 72.4345111 60.8960011 72.4345111 60.8558693 72.7151099 58.6486201 72.7151099 58.6486201 74.9735256 61.3694711 74.9735256 61.3694711 75.2536986"></polygon>
                    <path d="M63.9823931,70.6008257 L62.8826109,73.6571809 L65.0740636,73.6571809 L63.9823931,70.6008257 Z M65.6602441,75.2752012 L65.1786625,73.9373539 L62.7865507,73.9373539 L62.3130808,75.2539115 L61.9676911,75.2539115 L63.8141811,70.2342164 L64.1510321,70.197598 L66.0056338,75.2394344 L65.6602441,75.2752012 Z" id="Fill-27" fill="#F8EBDE"></path>
                    <polygon id="Fill-29" fill="#F8EBDE" points="67.4790688 75.2536986 67.4790688 70.5001252 65.7371777 70.5001252 65.7371777 70.2195264 69.5496991 70.2195264 69.5496991 70.5001252 67.808235 70.5001252 67.808235 75.2536986"></polygon>
                    <path d="M72.1061805,75.0668172 C72.8682579,75.0668172 73.5586103,74.7789799 73.5586103,73.9163196 C73.5586103,73.2401575 72.8447765,73.0387565 72.0015817,72.81564 C71.0866619,72.5712338 70.3484928,72.2978735 70.3484928,71.4424517 C70.3484928,70.4784523 71.1349054,70.1331327 72.02549,70.1331327 C72.5796504,70.1331327 73.0936791,70.205092 73.5509255,70.4277827 L73.4224183,70.6798532 C72.9728567,70.4639753 72.5156103,70.406493 72.0417135,70.406493 C71.2710974,70.406493 70.6695473,70.6581377 70.6695473,71.4347874 C70.6695473,72.1326651 71.319341,72.3195891 72.1061805,72.535467 C73.0211003,72.786686 73.8800917,73.0242795 73.8800917,73.9231323 C73.8800917,74.9446141 73.0770287,75.3401775 72.1142923,75.3401775 C71.3675845,75.3401775 70.6772321,75.1817818 70.1794269,74.8943703 L70.3241576,74.6354871 C70.8219628,74.9088473 71.4401633,75.0668172 72.1061805,75.0668172" id="Fill-31" fill="#F8EBDE"></path>
                    <path d="M78.480947,74.9733553 C79.6528811,74.9733553 80.2552851,74.7719543 80.2552851,73.9016297 C80.2552851,73.0100154 79.4522221,72.8371427 78.6653825,72.8371427 L77.3252364,72.8371427 L77.3252364,74.9733553 L78.480947,74.9733553 Z M78.6653825,72.5565439 C79.2758983,72.5565439 80.0465143,72.4275281 80.0465143,71.5784932 C80.0465143,70.6438736 79.2434513,70.4062801 78.4169069,70.4062801 C78.0313854,70.4062801 77.6467178,70.4497111 77.3252364,70.5216705 L77.3252364,72.5565439 L78.6653825,72.5565439 Z M76.9960702,70.2840769 C77.4055,70.1908279 77.9033052,70.1261071 78.3929986,70.1261071 C79.4125172,70.1261071 80.3752536,70.4352341 80.3752536,71.5716805 C80.3752536,72.2406041 79.9739355,72.614452 79.3958668,72.6864113 C79.9820473,72.7366551 80.5921361,73.0747362 80.5921361,73.9229194 C80.5921361,74.8294366 79.9662507,75.2535283 78.8186519,75.2535283 L76.9960702,75.2535283 L76.9960702,70.2840769 Z" id="Fill-33" fill="#F8EBDE"></path>
                    <path d="M85.3642774,72.7366551 C85.3642774,71.3413255 85.0509077,70.4062801 83.5019908,70.4062801 C81.9530739,70.4062801 81.6397043,71.3413255 81.6397043,72.7366551 C81.6397043,74.1319847 81.9530739,75.0670301 83.5019908,75.0670301 C85.0509077,75.0670301 85.3642774,74.1319847 85.3642774,72.7366551 M81.3105381,72.7366551 C81.3105381,70.9602391 81.9287387,70.1329198 83.5019908,70.1329198 C85.075243,70.1329198 85.6934436,70.9602391 85.6934436,72.7366551 C85.6934436,74.5130711 85.075243,75.3403904 83.5019908,75.3403904 C81.9287387,75.3403904 81.3105381,74.5130711 81.3105381,72.7366551" id="Fill-35" fill="#F8EBDE"></path>
                    <path d="M90.6966842,72.7366551 C90.6966842,74.5130711 90.1109307,75.3403904 88.6905209,75.3403904 C87.2534607,75.3403904 86.675392,74.5130711 86.675392,72.7366551 L86.675392,70.2197819 L87.0045582,70.2197819 L87.0045582,72.7366551 C87.0045582,74.3401984 87.4541198,75.0738428 88.6905209,75.0738428 C89.9260682,75.0738428 90.367945,74.3401984 90.367945,72.7366551 L90.367945,70.2197819 L90.6966842,70.2197819 L90.6966842,72.7366551 Z" id="Fill-37" fill="#F8EBDE"></path>
                    <polygon id="Fill-39" fill="#F8EBDE" points="93.2773728 75.2536986 93.2773728 70.5001252 91.5354817 70.5001252 91.5354817 70.2195264 95.3480032 70.2195264 95.3480032 70.5001252 93.606539 70.5001252 93.606539 75.2536986"></polygon>
                    <mask id="mask-10" fill="white">
                        <use xlink:href="#path-9"></use>
                    </mask>
                    <g id="Clip-42"></g>
                    <polygon id="Fill-41" fill="#F8EBDE" mask="url(#mask-10)" points="96.2266762 75.2536986 96.6585522 75.2536986 96.6585522 70.2195264 96.2266762 70.2195264"></polygon>
                    <path d="M101.635632,72.7366551 C101.635632,71.3345128 101.322263,70.3994673 99.7733458,70.3994673 C98.2244289,70.3994673 97.9110593,71.3345128 97.9110593,72.7366551 C97.9110593,74.1387974 98.2244289,75.0738428 99.7733458,75.0738428 C101.322263,75.0738428 101.635632,74.1387974 101.635632,72.7366551 L101.635632,72.7366551 Z M100.704062,76.3397308 C100.311283,76.0731833 100.046157,75.7717205 99.8454977,75.3403904 L99.7733458,75.3403904 C98.2000937,75.3403904 97.5818931,74.5130711 97.5818931,72.7366551 C97.5818931,70.9602391 98.2000937,70.1329198 99.7733458,70.1329198 C101.346598,70.1329198 101.964799,70.9602391 101.964799,72.7366551 C101.964799,74.3546754 101.451197,75.1815689 100.182776,75.3182491 C100.311283,75.6418531 100.624226,75.9441674 101.001208,76.1672839 L100.704062,76.3397308 Z" id="Fill-43" fill="#F8EBDE" mask="url(#mask-10)"></path>
                    <path d="M106.968039,72.7366551 C106.968039,74.5130711 106.382713,75.3403904 104.961876,75.3403904 C103.524816,75.3403904 102.946747,74.5130711 102.946747,72.7366551 L102.946747,70.2197819 L103.275913,70.2197819 L103.275913,72.7366551 C103.275913,74.3401984 103.725475,75.0738428 104.961876,75.0738428 C106.197423,75.0738428 106.638873,74.3401984 106.638873,72.7366551 L106.638873,70.2197819 L106.968039,70.2197819 L106.968039,72.7366551 Z" id="Fill-44" fill="#F8EBDE" mask="url(#mask-10)"></path>
                    <polygon id="Fill-45" fill="#F8EBDE" mask="url(#mask-10)" points="108.055142 75.2536986 108.055142 70.2195264 111.105159 70.2195264 111.105159 70.5001252 108.384308 70.5001252 108.384308 72.4345111 110.631689 72.4345111 110.591557 72.7151099 108.384308 72.7151099 108.384308 74.9735256 111.105159 74.9735256 111.105159 75.2536986"></polygon>
                    <path d="M115.963583,70.6008257 L114.863801,73.6571809 L117.055254,73.6571809 L115.963583,70.6008257 Z M117.641434,75.2752012 L117.159853,73.9373539 L114.767741,73.9373539 L114.294271,75.2539115 L113.948881,75.2539115 L115.795371,70.2342164 L116.132222,70.197598 L117.986397,75.2394344 L117.641434,75.2752012 Z" id="Fill-46" fill="#F8EBDE" mask="url(#mask-10)"></path>
                    <polygon id="Fill-47" fill="#F8EBDE" mask="url(#mask-10)" points="122.132269 75.2536986 119.025896 70.6653336 119.025896 75.2536986 118.72875 75.2536986 118.72875 70.2697702 119.073713 70.1837597 122.196309 74.8002271 122.196309 70.2195264 122.493455 70.2195264 122.493455 75.2536986"></polygon>
                    <path d="M125.418722,74.9733553 C126.73496,74.9733553 127.345049,74.4768785 127.345049,72.7366551 C127.345049,70.838036 126.574433,70.4139444 125.458854,70.4139444 C124.96916,70.4139444 124.431223,70.4424726 123.949642,70.5357217 L123.949642,74.9733553 L125.418722,74.9733553 Z M123.620903,70.2840769 C124.2549,70.1763509 124.872673,70.1329198 125.426834,70.1329198 C126.718736,70.1329198 127.674215,70.5863913 127.674215,72.7366551 C127.674215,74.6135586 126.951842,75.2535283 125.41061,75.2535283 L123.620903,75.2535283 L123.620903,70.2840769 Z" id="Fill-48" fill="#F8EBDE" mask="url(#mask-10)"></path>
                    <path d="M133.093119,75.3401775 C131.648374,75.3401775 130.813717,74.7645029 130.813717,72.7364422 C130.813717,70.8378231 131.889164,70.1331327 133.117454,70.1331327 C133.703207,70.1331327 134.273164,70.1838023 134.738523,70.435447 L134.586107,70.6798532 C134.152769,70.4639753 133.686984,70.406493 133.173382,70.406493 C131.993336,70.406493 131.142884,71.0324113 131.142884,72.7292037 C131.142884,74.5418122 131.760657,75.0668172 133.10123,75.0668172 C133.671187,75.0668172 134.233033,74.9948579 134.658686,74.8147467 L134.658686,73.095813 L133.00517,73.095813 L133.00517,72.81564 L134.987425,72.81564 L134.987425,75.0233862 C134.42558,75.2605539 133.799268,75.3401775 133.093119,75.3401775" id="Fill-49" fill="#F8EBDE" mask="url(#mask-10)"></path>
                    <path d="M137.744011,73.0458247 C138.490291,73.0458247 139.132827,72.7222206 139.132827,71.8016523 C139.132827,70.723114 138.305856,70.4139869 137.390509,70.4139869 C137.029323,70.4139869 136.65234,70.4642307 136.315062,70.5357643 L136.315062,73.0458247 L137.744011,73.0458247 Z M139.236999,75.2893376 L137.97669,73.3259977 L136.315062,73.3259977 L136.315062,75.2535708 L135.986323,75.2535708 L135.986323,70.2841195 C136.419661,70.1976832 136.908928,70.1329624 137.374713,70.1329624 C138.474495,70.1329624 139.461993,70.507236 139.461993,71.8016523 C139.461993,72.6864539 138.947965,73.0892558 138.297744,73.2399871 L139.574277,75.2178041 L139.236999,75.2893376 Z" id="Fill-50" fill="#F8EBDE" mask="url(#mask-10)"></path>
                    <polygon id="Fill-51" fill="#F8EBDE" mask="url(#mask-10)" points="140.412648 75.2536986 140.844524 75.2536986 140.844524 70.2195264 140.412648 70.2195264"></polygon>
                    <polygon id="Fill-52" fill="#F8EBDE" mask="url(#mask-10)" points="141.872335 75.2536986 141.872335 70.2195264 142.201501 70.2195264 142.201501 74.9803383 145.010728 74.9803383 145.010728 75.2536986"></polygon>
                    <polygon id="Fill-53" fill="#F8EBDE" mask="url(#mask-10)" points="145.834241 75.2536986 145.834241 70.2195264 146.163407 70.2195264 146.163407 74.9803383 148.97306 74.9803383 148.97306 75.2536986"></polygon>
                </g>
            </g>
        </g>
    </g>
</svg>