<?xml version="1.0" encoding="UTF-8" standalone="no"?>
<svg width="65px" height="35px" viewBox="0 0 65 35" version="1.1" xmlns="http://www.w3.org/2000/svg" xmlns:xlink="http://www.w3.org/1999/xlink">
    <!-- Generator: Sketch 41 (35326) - http://www.bohemiancoding.com/sketch -->
    <title>LogoCrema</title>
    <desc>Created with Sketch.</desc>
    <defs></defs>
    <g id="Symbols" stroke="none" stroke-width="1" fill="none" fill-rule="evenodd">
        <g id="Header" transform="translate(-20.000000, -20.000000)" fill="#F8EBDE">
            <g id="LogoCrema">
                <g transform="translate(20.000000, 20.000000)">
                    <g id="Logo">
                        <path d="M223.249346,72 C222.768925,74.2160279 221.745421,77.3101045 220.178832,81.3449477 C218.591355,85.358885 216.669673,89.456446 214.392897,93.6376307 C212.116121,97.8188153 209.50514,101.519164 206.601729,104.738676 C203.67743,107.979094 200.732243,109.902439 197.74528,110.529617 C194.445,111.156794 191.771355,110.843206 189.724346,109.58885 C187.677336,108.334495 186.08986,106.515679 185.003692,104.15331 C183.896636,101.790941 183.144673,99.0313589 182.747804,95.8954704 C182.350935,92.738676 182.20472,89.6655052 182.288271,86.6759582 C182.350935,83.6864111 182.601589,80.9268293 182.998458,78.3972125 C183.395327,75.8885017 183.833972,73.9860627 184.293505,72.7317073 C183.499766,73.0452962 182.413598,74.8222997 180.993224,78.0418118 C179.57285,81.261324 178.131589,84.8989547 176.627664,88.912892 C175.123738,92.9268293 173.74514,96.9198606 172.491869,100.850174 C171.238598,104.780488 170.528411,107.707317 170.361308,109.58885 C170.361308,110.069686 170.277757,110.383275 170.131542,110.529617 L170.131542,112.891986 C170.131542,115.087108 169.212477,116.801394 167.416121,117.972125 C165.598879,119.163763 163.635421,119.770035 161.50486,119.874564 C159.374299,119.937282 157.494393,119.477352 155.844252,118.452962 C154.194112,117.428571 153.525701,115.735192 153.839019,113.372822 C154.152336,109.442509 154.549206,104.362369 155.029626,98.1324042 C155.405607,93.0522648 155.802477,87.6794425 156.178458,82.0348432 C155.301168,84.6689895 154.277664,87.4912892 153.087056,90.4599303 C151.436916,94.5574913 149.473458,98.4878049 147.196682,102.271777 C144.919907,106.055749 142.350701,108.815331 139.530841,110.550523 C137.79715,111.658537 135.875467,112.118467 133.744907,111.972125 C131.614346,111.804878 129.567336,111.219512 127.603879,110.195122 C125.640421,109.170732 123.906729,107.686411 122.402804,105.700348 C120.898879,103.735192 119.91715,101.414634 119.457617,98.738676 C118.977196,96.3763066 118.74743,93.7003484 118.74743,90.7108014 C117.327056,95.1219512 115.676916,99.3031359 113.776121,103.233449 C111.896215,107.163763 109.682103,110.404181 107.175561,112.912892 C105.588084,114.648084 103.749953,115.630662 101.619393,115.860627 C99.4888318,116.090592 97.4418224,115.735192 95.4783645,114.794425 C93.5149065,113.853659 91.781215,112.473868 90.2772897,110.655052 C88.7733645,108.857143 87.7916355,106.745645 87.3321028,104.383275 C86.8516822,102.020906 86.6219159,99.0313589 86.6219159,95.4146341 C86.6219159,94.4947735 86.6219159,93.554007 86.6428037,92.5714286 C86.4130374,92.9686411 86.2041589,93.3658537 85.9743925,93.7630662 C83.6140654,97.8606272 81.0030841,101.560976 78.1832243,104.864111 C75.3424766,108.188153 72.4390654,110.069686 69.4521028,110.529617 C66.1309346,111.156794 63.4990654,110.759582 61.5356075,109.337979 C59.5721495,107.916376 58.1517757,105.867596 57.274486,103.191638 C56.3971963,100.515679 55.8958879,97.4843206 55.728785,94.097561 C55.5616822,90.7108014 55.6452336,87.3658537 55.9585514,84.0418118 C56.2718692,80.738676 56.6687383,77.7909408 57.1491589,75.1777003 C57.6295794,72.5853659 58.0891121,70.6620209 58.5695327,69.3867596 C57.7757944,69.7003484 56.6060748,71.2055749 55.0185981,73.8815331 C53.4311215,76.5574913 51.822757,79.5261324 50.1726168,82.7456446 C48.5224766,85.9651568 46.9767757,89.1219512 45.5772897,92.195122 C44.1569159,95.2682927 43.2169626,97.358885 42.7365421,98.466899 L42.7365421,98.2369338 C42.4232243,99.1777003 41.6712617,100.243902 40.5015421,101.43554 C39.3109346,102.627178 37.9323364,103.567944 36.3657477,104.278746 C34.778271,104.989547 33.3370093,105.344948 32.0001869,105.344948 C30.6633645,105.344948 29.7442991,104.550523 29.2847664,102.982578 C28.8043458,101.393728 28.491028,99.2404181 28.3448131,96.4808362 C28.1777103,93.7212544 28.1150467,91.0452962 28.1150467,88.4529617 C28.1150467,85.8606272 28.1568224,83.4982578 28.2403738,81.3658537 C28.3030374,79.2334495 28.2821495,77.9372822 28.1150467,77.456446 C27.3213084,77.7700348 26.4649065,79.1916376 25.5249533,81.7212544 C24.585,84.2508711 23.5823832,87.0731707 22.5588785,90.2299652 C21.5353738,93.3867596 20.6371963,96.6062718 19.8434579,99.9094077 C19.0497196,103.233449 18.5066355,105.825784 18.1933178,107.707317 C17.88,109.756098 16.8147196,111.28223 14.9974766,112.30662 C13.1802336,113.33101 11.2167757,113.853659 9.1071028,113.853659 C6.97654206,113.853659 5.07574766,113.310105 3.44649533,112.202091 C1.79635514,111.114983 1.04439252,109.358885 1.21149533,107.017422 C1.35771028,104.341463 1.33682243,100.745645 1.08616822,96.2508711 C0.856401869,91.7560976 0.605747664,87.0731707 0.375981308,82.2020906 C0.146214953,77.3101045 0.0208878505,72.5017422 0.0208878505,67.7770035 C0.0208878505,63.0522648 0.250654206,59.1219512 0.731074766,55.9651568 C1.35771028,52.4947735 2.86163551,49.7770035 5.20107477,47.8118467 C7.56140187,45.8466899 9.96350467,44.5087108 12.4073832,43.7979094 C14.8512617,43.087108 16.9609346,43.0243902 18.7781776,43.5679443 C20.5954206,44.1324042 21.2638318,45.3449477 20.7834112,47.2473868 C20.3029907,49.4425087 19.7599065,52.4320557 19.133271,56.2160279 C18.5066355,60 17.9426636,63.8675958 17.4831308,67.7979094 C17.0027103,71.7491289 16.6058411,75.4703833 16.3134112,79.0243902 C16.0000935,82.5783972 15.8329907,85.1289199 15.8329907,86.6968641 C16.4596262,84.5017422 17.2533645,82.2020906 18.1933178,79.8397213 C19.133271,77.4773519 20.1358879,75.1567944 21.1593925,72.8780488 C22.1828972,70.5993031 23.2481776,68.5087108 24.3552336,66.6271777 C25.4414019,64.7247387 26.4857944,63.2404181 27.4257477,62.1324042 C28.5119159,60.5644599 30.2247196,59.3310105 32.5014953,58.4738676 C34.778271,57.5958188 36.9088318,57.1777003 38.8722897,57.1777003 C40.8357477,57.1777003 42.4441121,57.7212544 43.718271,58.8292683 C44.9715421,59.9372822 45.2221963,61.5052265 44.4284579,63.554007 C44.1151402,64.4947735 43.8018224,66.3135889 43.4885047,68.989547 C43.1751869,71.6655052 42.8618692,74.5923345 42.5485514,77.728223 C43.4885047,75.533101 44.7626636,73.087108 46.3292523,70.4111498 C47.8958411,67.7351916 49.4624299,65.1637631 51.0499065,62.738676 C52.6164953,60.2926829 54.0786449,58.0557491 55.4154673,56.0069686 C56.7522897,53.9581882 57.8175701,52.4529617 58.6113084,51.5121951 C59.6974766,49.9442509 61.3476168,48.6480836 63.561729,47.6236934 C65.7549533,46.5993031 67.885514,46.0766551 69.9325234,46.0766551 C71.9795327,46.0766551 73.7132243,46.5993031 75.1127103,47.6236934 C76.5330841,48.6480836 77.1597196,50.3414634 76.9926168,52.7038328 C76.825514,53.8118467 76.553972,55.6933798 76.1779907,58.369338 C75.7811215,61.0452962 75.2798131,64.1184669 74.6322897,67.5888502 C74.0056542,71.0592334 73.3999065,74.6759582 72.8568224,78.4599303 C72.3137383,82.2439024 71.8333178,85.6724739 71.4364486,88.7456446 C71.0395794,91.8188153 70.8098131,94.3902439 70.7262617,96.4181185 C70.6427103,98.466899 70.9142523,99.4912892 71.5408879,99.4912892 C72.4808411,99.4912892 73.7341121,98.3832753 75.3215888,96.1672474 C76.8881776,93.9721254 78.4338785,91.3379791 79.9378037,88.2439024 C81.441729,85.1707317 82.841215,81.9930314 84.1989252,78.6689895 C85.5357477,75.3449477 86.5174766,72.6898955 87.1441121,70.641115 C87.3738785,69.9512195 87.6663084,69.3658537 88.0422897,68.8850174 C88.3764953,64.8292683 88.6062617,60.8571429 88.7524766,56.9268293 C88.7524766,54.2508711 89.7342056,52.2439024 91.7185514,50.9059233 C93.6820093,49.5679443 95.8334579,48.7735192 98.2146729,48.543554 C100.575,48.3135889 102.705561,48.6271777 104.585467,49.4843206 C106.465374,50.3623693 107.321776,51.6376307 107.175561,53.3937282 C106.862243,58.4320557 106.381822,63.7212544 105.755187,69.2195122 C105.128551,74.738676 104.501916,79.8606272 103.87528,84.5853659 C103.248645,89.3101045 102.851776,93.28223 102.684673,96.5226481 C102.51757,99.7630662 102.914439,101.519164 103.87528,101.832753 C104.648131,102.146341 105.525421,101.560976 106.465374,100.055749 C107.405327,98.5714286 108.34528,96.5644599 109.306121,94.0348432 C110.246075,91.5261324 111.248692,88.6829268 112.272196,85.5261324 C113.295701,82.369338 114.27743,79.2334495 115.217383,76.0766551 C116.157336,72.9198606 117.013738,69.9303136 117.807477,67.1080139 C118.601215,64.2648084 119.290514,61.9860627 119.938037,60.2508711 C120.10514,57.8885017 121.170421,56.445993 123.133879,55.8815331 C125.097336,55.3379791 127.186121,55.3797909 129.379346,56.0069686 C131.57257,56.6341463 133.51514,57.5958188 135.16528,58.8501742 C136.815421,60.1045296 137.567383,61.4425087 137.421168,62.8641115 C136.794533,65.7073171 136.188785,69.2404181 135.645701,73.5052265 C135.102617,77.7700348 134.747523,81.8466899 134.580421,85.7979094 C134.413318,89.728223 134.538645,93.1149826 134.935514,95.9581882 C135.332383,98.8013937 136.230561,100.202091 137.650935,100.202091 C138.590888,100.202091 139.73972,98.989547 141.076542,96.543554 C142.413364,94.097561 143.708411,91.2334495 144.98257,87.9094077 C146.235841,84.6062718 147.426449,81.3031359 148.533505,77.9790941 C149.619673,74.6759582 157.870374,50.3832753 158.183692,48.6480836 C158.246355,48.2926829 158.350794,47.9372822 158.476121,47.6445993 C158.705888,43.6515679 158.914766,39.804878 159.102757,36.1463415 C159.416075,29.8536585 159.687617,24.3763066 159.938271,19.7142857 C160.168037,15.0731707 160.293364,11.8745645 160.293364,10.1393728 C160.293364,6.3554007 161.316869,3.72125436 163.363879,2.21602787 C165.410888,0.710801394 167.625,0.0418118467 169.985327,0.209059233 C172.345654,0.37630662 174.434439,1.23344948 176.230794,2.80139373 C178.048037,4.3902439 178.716449,6.43902439 178.236028,8.94773519 C177.92271,10.0557491 177.567617,12.815331 177.170748,17.2264808 C176.773879,21.6376307 176.27257,26.989547 175.625047,33.3031359 C174.998411,39.5958188 174.392664,46.5365854 173.849579,54.1045296 C173.306495,61.6724739 172.784299,69.1567944 172.324766,76.5574913 C174.204673,72.4599303 176.293458,68.4878049 178.591121,64.6202091 C180.867897,60.7526132 182.643364,57.9721254 183.896636,56.2369338 C185.149907,54.6689895 186.96715,53.4355401 189.327477,52.5783972 C191.687804,51.7212544 193.964579,51.3240418 196.178692,51.3867596 C198.371916,51.4703833 200.147383,52.0139373 201.484206,53.0383275 C202.821028,54.0627178 203.09257,55.6724739 202.31972,57.8885017 C201.839299,59.3101045 201.296215,62.2578397 200.669579,66.7526132 C200.042944,71.2473868 199.520748,75.8466899 199.123879,80.5714286 C198.727009,85.2961672 198.580794,89.5609756 198.643458,93.3449477 C198.727009,97.1289199 199.165654,99.010453 199.938505,99.010453 C200.878458,99.010453 202.110841,97.902439 203.614766,95.7073171 C205.097804,93.4912892 206.643505,90.8571429 208.210093,87.7839721 C209.776682,84.7108014 211.197056,81.554007 212.471215,78.3344948 C213.724486,75.1149826 214.685327,72.4599303 215.311963,70.4111498 C215.792383,68.989547 216.523458,68.0487805 217.546963,67.5679443 C218.570467,67.1080139 219.552196,66.9407666 220.49215,67.1080139 C221.432103,67.2752613 222.225841,67.7770035 222.852477,68.6341463 C223.416449,69.4494774 223.562664,70.5783972 223.249346,72 L223.249346,72 Z" id="Shape"></path>
                    </g>
                </g>
            </g>
        </g>
    </g>
</svg>