<?xml version="1.0" encoding="UTF-8" standalone="no"?>
<svg width="28px" height="43px" viewBox="0 0 28 43" version="1.1" xmlns="http://www.w3.org/2000/svg" xmlns:xlink="http://www.w3.org/1999/xlink">
    <!-- Generator: Sketch 41 (35326) - http://www.bohemiancoding.com/sketch -->
    <title>Page 1</title>
    <desc>Created with Sketch.</desc>
    <defs>
        <polygon id="path-1" points="0.000143589744 42.6355932 27.7948103 42.6355932 27.7948103 0.312442373 0.000143589744 0.312442373"></polygon>
    </defs>
    <g id="Mobile-First" stroke="none" stroke-width="1" fill="none" fill-rule="evenodd">
        <g id="3-Mapa" transform="translate(-171.000000, -90.000000)">
            <g id="Page-1" transform="translate(171.000000, 90.000000)">
                <g id="Group-3" transform="translate(0.000000, 0.052110)">
                    <mask id="mask-2" fill="white">
                        <use xlink:href="#path-1"></use>
                    </mask>
                    <g id="Clip-2"></g>
                    <path d="M20.8461436,14.4200864 C20.8461436,18.3053915 17.7245026,21.4739085 13.8974769,21.4739085 C10.0700923,21.4739085 6.94881026,18.3053915 6.94881026,14.4200864 C6.94881026,10.5347814 10.0700923,7.36626441 13.8974769,7.36626441 C17.7245026,7.36626441 20.8461436,10.5347814 20.8461436,14.4200864 M27.7948103,14.4200864 C27.7948103,6.62214576 21.5791692,0.312442373 13.8974769,0.312442373 C6.21578462,0.312442373 0.000143589744,6.62214576 0.000143589744,14.4200864 C0.000143589744,16.1007305 0.190041026,17.8367644 0.895784615,19.3523322 L10.8031179,40.679239 C11.3458872,41.8916203 12.5944,42.635739 13.8974769,42.635739 C15.2001949,42.635739 16.4490667,41.8916203 17.018759,40.679239 L26.8991692,19.3523322 C27.6049128,17.8367644 27.7948103,16.1007305 27.7948103,14.4200864" id="Fill-1" fill="#434244" mask="url(#mask-2)"></path>
                </g>
                <path d="M24.1282103,14.5082364 C24.1282103,20.2439992 19.5476974,24.8938297 13.897441,24.8938297 C8.24718462,24.8938297 3.66667179,20.2439992 3.66667179,14.5082364 C3.66667179,8.77247373 8.24718462,4.12264322 13.897441,4.12264322 C19.5476974,4.12264322 24.1282103,8.77247373 24.1282103,14.5082364" id="Fill-4" fill="#221F20"></path>
                <path d="M22.8359744,13.9420212 C22.7979231,14.1238602 22.7160769,14.3774873 22.5911538,14.7087331 C22.4644359,15.0377924 22.3111538,15.3741398 22.1291538,15.717411 C21.9471538,16.0603178 21.7385897,16.3642331 21.5063333,16.628428 C21.272641,16.8944449 21.0367949,17.0525975 20.797359,17.1043432 C20.5331538,17.1564534 20.3188462,17.1309449 20.1547949,17.0285466 C19.9903846,16.9257839 19.8629487,16.7771059 19.7757179,16.5836059 C19.6866923,16.3897415 19.6260256,16.1638093 19.5937179,15.9065381 C19.5617692,15.6478093 19.5495641,15.3960042 19.5556667,15.1507585 C19.5603333,14.9055127 19.5800769,14.6792161 19.6116667,14.4718686 C19.6428974,14.2663432 19.6780769,14.1100127 19.7146923,14.00725 C19.6511538,14.0331229 19.5642821,14.1788856 19.4508462,14.4430805 C19.3374103,14.7072754 19.2225385,15.0057246 19.102641,15.3347839 C18.9823846,15.6642076 18.8725385,15.9918093 18.7727436,16.3143093 C18.6729487,16.6368093 18.6162308,16.876589 18.6033077,17.0310975 C18.6033077,17.0704534 18.5964872,17.0963263 18.585,17.1083517 L18.585,17.3018517 C18.585359,17.4818686 18.5121282,17.6225297 18.3681795,17.7187331 C18.2227949,17.8167585 18.0655641,17.8666822 17.8946923,17.875428 C17.7241795,17.8808941 17.5734103,17.8433602 17.4409487,17.759911 C17.3088462,17.6760975 17.255,17.5372585 17.2797692,17.3433941 C17.3041795,17.0212585 17.3354103,16.6047415 17.3731026,16.0938432 C17.4025385,15.6773263 17.4337692,15.2367585 17.4632051,14.7735975 C17.3932051,14.9896907 17.311359,15.2214534 17.2165897,15.4648771 C17.0848462,15.8012246 16.9279744,16.1237246 16.7459744,16.4341992 C16.5639744,16.7446737 16.358641,16.9713347 16.1328462,17.1141822 C15.9942821,17.2049195 15.8402821,17.2431822 15.6694103,17.2315212 C15.4985385,17.2180381 15.3344872,17.1703008 15.1772564,17.0864873 C15.0196667,17.0026737 14.8807436,16.8813263 14.7597692,16.7188008 C14.6391538,16.5577331 14.5601795,16.3675127 14.5228462,16.1481398 C14.4840769,15.9546398 14.4654103,15.7352669 14.4650513,15.4900212 C14.3516154,15.8518771 14.2198718,16.1951483 14.0683846,16.5176483 C13.9179744,16.8401483 13.741,17.1061653 13.5406923,17.3120551 C13.4136154,17.4545381 13.2664359,17.5354364 13.0959231,17.5543856 C12.9250513,17.5736992 12.761,17.544911 12.6037692,17.4680212 C12.4461795,17.3911314 12.3068974,17.2781653 12.1862821,17.1291229 C12.0656667,16.9819025 11.9866923,16.8088093 11.949359,16.6153093 C11.9105897,16.4218093 11.8919231,16.1765636 11.8912051,15.8799364 C11.8912051,15.8045042 11.8912051,15.7276144 11.892641,15.6470805 C11.8743333,15.6795127 11.8574615,15.7123093 11.8391538,15.7447415 C11.6506923,16.081089 11.4421282,16.3846398 11.2163333,16.6561229 C10.9891026,16.9290636 10.7568462,17.083572 10.5177692,17.1218347 C10.2514103,17.1735805 10.0406923,17.1411483 9.88310256,17.0249025 C9.72551282,16.9086568 9.61135897,16.7410297 9.541,16.5216568 C9.47028205,16.3022839 9.42971795,16.0537585 9.41571795,15.7760805 C9.40207692,15.4984025 9.40817949,15.2243686 9.43294872,14.9517924 C9.45771795,14.6806737 9.48894872,14.439072 9.527,14.2248008 C9.56541026,14.0119873 9.60166667,13.8541992 9.64007692,13.7496144 C9.57653846,13.7754873 9.48320513,13.8990212 9.35612821,14.1187585 C9.22941026,14.3384958 9.10089744,14.5819195 8.96915385,14.8461144 C8.83741026,15.1103093 8.71392308,15.3694025 8.60228205,15.621572 C8.48884615,15.8737415 8.41382051,16.0453771 8.37541026,16.1361144 L8.37541026,16.1171653 C8.35028205,16.1944195 8.29033333,16.2818771 8.19664103,16.3799025 C8.10151282,16.477928 7.99094872,16.5551822 7.86566667,16.6134873 C7.73858974,16.6721568 7.623,16.7013093 7.51602564,16.7016737 C7.40869231,16.7016737 7.33510256,16.6368093 7.29812821,16.5081737 C7.25935897,16.3780805 7.23387179,16.2013432 7.22202564,15.975411 C7.20802564,15.7491144 7.20264103,15.5297415 7.20228205,15.316928 C7.20192308,15.1044788 7.20515385,14.9109788 7.21161538,14.7360636 C7.21628205,14.5611483 7.21448718,14.4547415 7.20084615,14.4153856 C7.13730769,14.4412585 7.06910256,14.5578686 6.99407692,14.7655805 C6.91905128,14.972928 6.839,15.2046907 6.75751282,15.4634195 C6.67602564,15.7225127 6.60423077,15.9867076 6.54105128,16.2574619 C6.47787179,16.5300381 6.43479487,16.7428517 6.41002564,16.8969958 C6.38525641,17.0649873 6.29982051,17.1903432 6.1544359,17.2745212 C6.00905128,17.3586992 5.85182051,17.4020636 5.68274359,17.402428 C5.51187179,17.402428 5.35966667,17.3583347 5.229,17.2675975 C5.09653846,17.1786822 5.03623077,17.0347415 5.04915385,16.8426992 C5.06064103,16.6233263 5.05848718,16.3285212 5.03766667,15.9601059 C5.01864103,15.5916907 4.99782051,15.2076059 4.97879487,14.8082161 C4.95976923,14.4073686 4.949,14.0130805 4.94864103,13.6257161 C4.94792308,13.2383517 4.96587179,12.9158517 5.00392308,12.6571229 C5.05346154,12.3725212 5.17371795,12.1495042 5.36110256,11.988072 C5.54992308,11.8266398 5.74197436,11.716589 5.93797436,11.6579195 C6.13361538,11.59925 6.30269231,11.5937839 6.4484359,11.6382415 C6.59417949,11.6841568 6.64766667,11.7836398 6.60961538,11.9396059 C6.57120513,12.1196229 6.52812821,12.3648686 6.47858974,12.6749788 C6.42869231,12.9854534 6.38417949,13.3024873 6.34792308,13.6249873 C6.30987179,13.9489449 6.27864103,14.2543178 6.25566667,14.5454788 C6.23089744,14.8370042 6.21797436,15.0461737 6.21797436,15.1748093 C6.26787179,14.9947924 6.33141026,14.8060297 6.4064359,14.6121653 C6.48110256,14.4183008 6.56115385,14.2280805 6.643,14.0411398 C6.72484615,13.8541992 6.80992308,13.6825636 6.89823077,13.5280551 C6.98510256,13.372089 7.06838462,13.2500127 7.14376923,13.1592754 C7.23064103,13.0302754 7.36776923,12.9289703 7.54976923,12.8586398 C7.73212821,12.7861229 7.903,12.7515042 8.06023077,12.7515042 C8.21746154,12.7511398 8.34633333,12.7955975 8.44864103,12.8859703 C8.54915385,12.9767076 8.56961538,13.1053432 8.5064359,13.2733347 C8.48130769,13.350589 8.45653846,13.4996314 8.43176923,13.7193686 C8.407,13.9387415 8.38223077,14.1785212 8.35746154,14.4357924 C8.43248718,14.2557754 8.5344359,14.0549873 8.65935897,13.83525 C8.78464103,13.6158771 8.90992308,13.4048856 9.03664103,13.2055551 C9.16192308,13.0047669 9.27894872,12.8214703 9.3855641,12.6531144 C9.49253846,12.4851229 9.57761538,12.361589 9.64115385,12.2843347 C9.72802564,12.1553347 9.86012821,12.048928 10.0371026,11.96475 C10.213,11.880572 10.3835128,11.8372076 10.5475641,11.8368432 C10.7116154,11.8368432 10.8505385,11.8794788 10.9628974,11.9632924 C11.0766923,12.0471059 11.1273077,12.1855805 11.1140256,12.3794449 C11.1007436,12.4701822 11.0795641,12.6246907 11.0497692,12.8440636 C11.0181795,13.0634364 10.9783333,13.3156059 10.927,13.6002076 C10.8771026,13.8848093 10.829359,14.1814364 10.7862821,14.491911 C10.7432051,14.8020212 10.7051538,15.0833432 10.6735641,15.3351483 C10.6423333,15.5873178 10.6243846,15.7983093 10.6179231,15.9644788 C10.6114615,16.1324703 10.633359,16.2162839 10.6836154,16.2162839 C10.759,16.2162839 10.8591538,16.1251822 10.9858718,15.9433432 C11.1111538,15.7629619 11.234641,15.5468686 11.3548974,15.2928771 C11.4747949,15.0407076 11.5867949,14.7801568 11.6948462,14.5072161 C11.8018205,14.2346398 11.8800769,14.0167246 11.9299744,13.8487331 C11.9482821,13.79225 11.9716154,13.7441483 12.0017692,13.7047924 C12.0279744,13.372089 12.0459231,13.0463093 12.0570513,12.7241737 C12.0566923,12.5048008 12.1349487,12.340089 12.2939744,12.2300381 C12.4508462,12.1199873 12.6231538,12.0547585 12.8141282,12.0354449 C13.0033077,12.0164958 13.1738205,12.0416398 13.3245897,12.1116059 C13.475359,12.1833941 13.5442821,12.2879788 13.5327949,12.4319195 C13.5083846,12.8451568 13.4703333,13.2788008 13.4211538,13.729572 C13.3716154,14.1821653 13.3220769,14.6023263 13.2725385,14.9896907 C13.223,15.3774195 13.1914103,15.7031992 13.1784872,15.9688517 C13.1655641,16.2345042 13.1975128,16.3784449 13.2746923,16.4039534 C13.3367949,16.4294619 13.4067949,16.3813602 13.4821795,16.2578263 C13.5572051,16.1361144 13.6322308,15.9714025 13.7086923,15.7640551 C13.7837179,15.5581653 13.8637692,15.3249449 13.9452564,15.0658517 C14.0271026,14.8067585 14.105359,14.5494873 14.1800256,14.2907585 C14.2550513,14.0316653 14.3232564,13.7864195 14.3864359,13.5550212 C14.4496154,13.3218008 14.5045385,13.1348602 14.5562308,12.9923771 C14.5695128,12.7988771 14.6545897,12.6804449 14.8118205,12.6338008 C14.9690513,12.5889788 15.1363333,12.5922585 15.3122308,12.6432754 C15.4881282,12.6942924 15.6439231,12.7730042 15.7763846,12.8757669 C15.9084872,12.9781653 15.9691538,13.0878517 15.9576667,13.2044619 C15.9077692,13.4376822 15.8596667,13.7273856 15.8165897,14.0772161 C15.7738718,14.4270466 15.7458718,14.7612076 15.7329487,15.0851653 C15.7200256,15.4073008 15.7304359,15.6849788 15.7627436,15.9181992 C15.7950513,16.1514195 15.8672051,16.2658432 15.981,16.2658432 C16.0560256,16.2654788 16.1479231,16.1659958 16.2548974,15.9652076 C16.3615128,15.7647839 16.4648974,15.5297415 16.5668462,15.2568008 C16.666641,14.9860466 16.7617692,14.714928 16.8500769,14.4423517 C16.9365897,14.1712331 17.5945897,12.1782924 17.619359,12.0361737 C17.6243846,12.0070212 17.632641,11.9778686 17.6426923,11.9538178 C17.660641,11.6262161 17.6767949,11.3110042 17.6911538,11.0107331 C17.7155641,10.4947331 17.7367436,10.0457839 17.7561282,9.66352119 C17.7737179,9.28308051 17.7834103,9.02070763 17.7830513,8.87822458 C17.7826923,8.56811441 17.8645385,8.35202119 18.0282308,8.22848729 C18.1919231,8.10458898 18.3692564,8.04956356 18.5584359,8.06304661 C18.7476154,8.07616525 18.9152564,8.14613136 19.0592051,8.27476695 C19.2049487,8.40449576 19.2587949,8.57248729 19.2207436,8.77837712 C19.1959744,8.86911441 19.1676154,9.09541102 19.1363846,9.45726695 C19.1051538,9.81912288 19.0660256,10.2578686 19.0146923,10.7756907 C18.9655128,11.2916907 18.9177692,11.8608941 18.8754103,12.4814788 C18.8326923,13.1020636 18.7917692,13.7157246 18.7562308,14.3224619 C18.9062821,13.9861144 19.0728462,13.6603347 19.256641,13.3429364 C19.438641,13.0255381 19.5804359,12.7974195 19.6805897,12.6549364 C19.7807436,12.5259364 19.9261282,12.4246314 20.1153077,12.3543008 C20.3044872,12.2836059 20.4868462,12.2508093 20.6641795,12.2555466 C20.8397179,12.2621059 20.9822308,12.3065636 21.0895641,12.3903771 C21.1965385,12.4741907 21.2187949,12.6061059 21.1570513,12.7879449 C21.118641,12.9045551 21.0755641,13.1461568 21.0260256,13.5149364 C20.9764872,13.8833517 20.9352051,14.2605127 20.9039744,14.6478771 C20.8727436,15.0356059 20.8616154,15.385072 20.867359,15.6955466 C20.8745385,16.0056568 20.9097179,16.1598008 20.9718205,16.1598008 C21.0468462,16.1598008 21.1455641,16.0686992 21.2658205,15.8883178 C21.3842821,15.7064788 21.5077692,15.4903856 21.6330513,15.2382161 C21.7579744,14.9860466 21.8714103,14.7269534 21.973359,14.4627585 C22.0731538,14.1985636 22.1499744,13.9810127 22.1998718,13.8126568 C22.2379231,13.6960466 22.2964359,13.6187924 22.378641,13.5794364 C22.4604872,13.5415381 22.5391026,13.5276907 22.6144872,13.5411737 C22.6898718,13.5550212 22.7534103,13.5958347 22.8036667,13.6661653 C22.8488974,13.7328517 22.8607436,13.825411 22.8359744,13.9420212" id="Fill-6" fill="#F7EADD"></path>
            </g>
        </g>
    </g>
</svg>