<?xml version="1.0" standalone="no"?>
<!DOCTYPE svg PUBLIC "-//W3C//DTD SVG 1.1//EN" "http://www.w3.org/Graphics/SVG/1.1/DTD/svg11.dtd" >
<svg xmlns="http://www.w3.org/2000/svg" xmlns:xlink="http://www.w3.org/1999/xlink" version="1.1">
<metadata>
Created by FontForge 20160407 at Mon Sep  5 21:18:56 2016
 By Jimmy Warting
2008 Tobias Kvant published by FSI FontShop International GmbH
</metadata>
<defs>
<font id="EnzoOT-Light" horiz-adv-x="680" >
  <font-face 
    font-family="EnzoOT-Light"
    font-weight="350"
    font-stretch="normal"
    units-per-em="1000"
    panose-1="2 1 5 4 1 1 1 1 1 4"
    ascent="828"
    descent="-172"
    x-height="510"
    cap-height="700"
    bbox="-529 -204 1344 935"
    underline-thickness="30"
    underline-position="-169"
    unicode-range="U+000D-FB04"
  />
<missing-glyph horiz-adv-x="518" 
d="M57 0v700h404v-700h-404zM87 30h344v640h-344v-640z" />
    <glyph glyph-name="fi" unicode="fi" horiz-adv-x="549" 
d="M451 621q-30 0 -30 28t30 28t30 -28t-30 -28zM488 0h-40q-17 60 -17 177v292h-267v-469h-40v469h-93v37h91q-10 65 -10 81q0 63 31.5 103t100.5 40q33 0 62 -8l-7 -37q-24 8 -56 8q-91 0 -91 -105q0 -35 10 -82h269l40 4v-335q0 -115 17 -175z" />
    <glyph glyph-name="fl" unicode="fl" horiz-adv-x="548" 
d="M164 0h-40v469h-93v37h91q-10 65 -10 81q0 63 31.5 103t100.5 40q33 0 62 -8l-7 -37q-24 8 -56 8q-91 0 -91 -105q0 -35 10 -82h120l-5 -37h-113v-469zM488 0h-40q-17 60 -17 177v535l40 6v-543q0 -115 17 -175z" />
    <glyph glyph-name="uniFB03" unicode="ffi" horiz-adv-x="856" 
d="M758 621q-30 0 -30 28t30 28t30 -28t-30 -28zM795 0h-40q-17 60 -17 177v292h-267v-469h-40v469h-267v-469h-40v469h-93v37h91q-10 65 -10 81q0 63 31.5 103t100.5 40q33 0 62 -8l-7 -37q-24 8 -56 8q-91 0 -91 -105q0 -35 10 -82h267q-10 65 -10 81q0 63 31.5 103
t100.5 40q33 0 62 -8l-7 -37q-24 8 -56 8q-91 0 -91 -105q0 -35 10 -82h269l40 4v-335q0 -115 17 -175z" />
    <glyph glyph-name="uniFB04" unicode="ffl" horiz-adv-x="855" 
d="M471 0h-40v469h-267v-469h-40v469h-93v37h91q-10 65 -10 81q0 63 31.5 103t100.5 40q33 0 62 -8l-7 -37q-24 8 -56 8q-91 0 -91 -105q0 -35 10 -82h267q-10 65 -10 81q0 63 31.5 103t100.5 40q33 0 62 -8l-7 -37q-24 8 -56 8q-91 0 -91 -105q0 -35 10 -82h118l-3 -37
h-113v-469zM795 0h-40q-17 60 -17 177v535l40 6v-543q0 -115 17 -175z" />
    <glyph glyph-name=".notdef" horiz-adv-x="518" 
d="M57 0v700h404v-700h-404zM87 30h344v640h-344v-640z" />
    <glyph glyph-name=".null" horiz-adv-x="0" 
 />
    <glyph glyph-name=".null" horiz-adv-x="0" 
 />
    <glyph glyph-name="nonmarkingreturn" horiz-adv-x="333" 
 />
    <glyph glyph-name="CR" unicode="&#xd;" horiz-adv-x="201" 
 />
    <glyph glyph-name="space" unicode=" " horiz-adv-x="201" 
 />
    <glyph glyph-name="exclam" unicode="!" horiz-adv-x="228" 
d="M139 161h-34q-1 34 -3.5 264t-3.5 272l47 6q0 -24 -2 -157t-3 -244t-1 -141zM122 -4q-33 0 -33 34t33 34t33 -34t-33 -34z" />
    <glyph glyph-name="quotedbl" unicode="&#x22;" horiz-adv-x="257" 
d="M77 405h-34q0 27 -1 157.5t-2 155.5h40q0 -21 -1.5 -153t-1.5 -160zM214 405h-34q0 27 -1 157.5t-2 155.5h40q0 -21 -1.5 -153t-1.5 -160z" />
    <glyph glyph-name="numbersign" unicode="#" horiz-adv-x="815" 
d="M508 0h-41l36 185h-256l-36 -185h-41l35 185h-147l7 37h147l50 256h-147l8 37h146l36 185h42l-36 -185h256l36 185h41l-36 -185h149l-8 -37h-148l-50 -256h148l-7 -37h-148zM510 222l50 256h-256l-50 -256h256z" />
    <glyph glyph-name="dollar" unicode="$" horiz-adv-x="544" 
d="M292 -117h-36v106q-127 6 -214 62l18 35q98 -60 222 -60q79 0 130 38t51 122q0 27 -11 49t-26 36t-44.5 28t-51 21t-61.5 19q-50 15 -81.5 28t-63 35t-46.5 53.5t-15 74.5q0 90 53.5 134t139.5 47v106h36v-105q102 -5 169 -42l-15 -34q-75 38 -172 38q-171 0 -171 -143
q0 -28 10 -50.5t23.5 -36.5t41 -27.5t47 -20.5t57.5 -18q32 -10 48.5 -15.5t44.5 -16t42.5 -20t33.5 -24t28.5 -30.5t16.5 -38.5t7 -48.5q0 -98 -58.5 -146.5t-152.5 -50.5v-105z" />
    <glyph glyph-name="percent" unicode="%" horiz-adv-x="978" 
d="M239 283q84 0 114.5 50t30.5 148t-30.5 148t-114.5 50t-114.5 -50t-30.5 -148t30.5 -148t114.5 -50zM239 250q-96 0 -138.5 56t-42.5 175t42.5 175t138.5 56t138.5 -56t42.5 -175t-42.5 -175t-138.5 -56zM739 21q84 0 114.5 50t30.5 148t-30.5 148t-114.5 50t-114.5 -50
t-30.5 -148t30.5 -148t114.5 -50zM739 -12q-96 0 -138.5 56t-42.5 175t42.5 175t138.5 56t138.5 -56t42.5 -175t-42.5 -175t-138.5 -56zM653 695l-299 -702l-33 11l299 702z" />
    <glyph glyph-name="ampersand" unicode="&#x26;" horiz-adv-x="655" 
d="M507 0h-227q-221 0 -221 185q0 82 43.5 124t105.5 48q-56 8 -89 47.5t-33 107.5q0 147 136 187l14 -37q-109 -35 -109 -151q0 -136 172 -136h167v171l41 5v-173l117 -6v-36h-117v-336zM466 38v298h-167q-198 0 -198 -148q0 -87 52.5 -118.5t168.5 -31.5h144z" />
    <glyph glyph-name="quotesingle" unicode="'" horiz-adv-x="120" 
d="M77 405h-34q0 27 -1 157.5t-2 155.5h40q0 -21 -1.5 -153t-1.5 -160z" />
    <glyph glyph-name="parenleft" unicode="(" horiz-adv-x="270" 
d="M219 -128l-32 -19q-141 198 -141 436t141 436l32 -19q-68 -94 -100.5 -192t-32.5 -225t32.5 -225t100.5 -192z" />
    <glyph glyph-name="parenright" unicode=")" horiz-adv-x="271" 
d="M84 -147l-32 19q68 94 100.5 192t32.5 225t-32.5 225t-100.5 192l32 19q141 -198 141 -436t-141 -436z" />
    <glyph glyph-name="asterisk" unicode="*" horiz-adv-x="483" 
d="M373 348l-29 -22l-104 147l-103 -146l-30 21l108 144l-170 52l11 35l170 -58q-3 165 -3 179h37q0 -19 -0.5 -58.5t-1 -71t-1.5 -49.5l169 58l12 -35l-172 -53z" />
    <glyph glyph-name="plus" unicode="+" 
d="M360 46h-40v220h-220v39h220v220h40v-220h220v-39h-220v-220z" />
    <glyph glyph-name="comma" unicode="," horiz-adv-x="196" 
d="M72 -140h-32l71 313l45 2z" />
    <glyph glyph-name="hyphen" unicode="-" horiz-adv-x="445" 
d="M375 266h-305v39h305v-39z" />
    <glyph glyph-name="period" unicode="." horiz-adv-x="206" 
d="M103 -4q-33 0 -33 34t33 34t33 -34t-33 -34z" />
    <glyph glyph-name="slash" unicode="/" horiz-adv-x="297" 
d="M256 696l-178 -701l-37 8l178 701z" />
    <glyph glyph-name="zero" unicode="0" horiz-adv-x="616" 
d="M308 -12q-132 0 -190 87t-58 275t58 275t190 87t190 -87t58 -275t-58 -275t-190 -87zM308 26q63 0 104.5 22.5t63.5 68t30.5 100t8.5 133.5t-8.5 133.5t-30.5 100t-63.5 68t-104.5 22.5t-104.5 -22.5t-63.5 -68t-30.5 -100t-8.5 -133.5t8.5 -133.5t30.5 -100t63.5 -68
t104.5 -22.5z" />
    <glyph glyph-name="one" unicode="1" horiz-adv-x="213" 
d="M127 0h-41v693l41 7v-700z" />
    <glyph glyph-name="two" unicode="2" horiz-adv-x="529" 
d="M469 0h-403l-9 39q184 127 278 238t94 232q0 85 -49 124.5t-127 39.5q-107 0 -182 -47l-18 35q88 51 206 51q104 0 158.5 -55t54.5 -144q0 -126 -88 -238.5t-265 -235.5h350v-39z" />
    <glyph glyph-name="three" unicode="3" horiz-adv-x="546" 
d="M63 77q89 -50 204 -50q87 0 138.5 44.5t51.5 137.5q0 78 -53.5 120.5t-145.5 42.5q-30 0 -85 -4l-14 39l254 254h-357v39h401l10 -39l-259 -256q17 2 49 2q116 0 179 -55.5t63 -145.5q0 -98 -58 -158t-169 -60q-137 0 -227 52z" />
    <glyph glyph-name="four" unicode="4" 
d="M474 0h-41v201h-344l-13 35q116 177 126 467l43 -6q-16 -283 -123 -457h311v294l41 8v-302h142v-39h-142v-201z" />
    <glyph glyph-name="five" unicode="5" horiz-adv-x="543" 
d="M60 77q91 -50 204 -50q96 0 143.5 48.5t47.5 134.5q0 174 -193 174q-81 0 -174 -32l-21 36l32 312h342v-39h-307l-28 -265q74 26 162 26q107 0 168 -54.5t61 -160.5q0 -100 -57.5 -159.5t-171.5 -59.5q-137 0 -226 52z" />
    <glyph glyph-name="six" unicode="6" horiz-adv-x="588" 
d="M100 310q2 -148 50.5 -216t156.5 -68q192 0 192 218q0 87 -46 137t-131 50q-74 0 -127 -27.5t-95 -93.5zM98 366q78 103 224 103q98 0 158 -59.5t60 -165.5q0 -115 -57 -185.5t-176 -70.5q-133 0 -191 87t-58 275q0 182 63.5 272t179.5 90q110 0 178 -41l-17 -34
q-62 37 -157 37q-66 0 -109 -31q-96 -70 -98 -277z" />
    <glyph glyph-name="seven" unicode="7" horiz-adv-x="496" 
d="M218 0h-43q4 213 55.5 377.5t173.5 284.5h-359v38h401l9 -38q-91 -80 -145 -190.5t-72 -220t-20 -251.5z" />
    <glyph glyph-name="eight" unicode="8" horiz-adv-x="583" 
d="M394 342q60 -17 96.5 -57.5t36.5 -101.5q0 -88 -60 -141.5t-175 -53.5q-116 0 -177 58.5t-61 147.5q0 125 133 170q-119 36 -119 163q0 80 58 132.5t166 52.5q107 0 165.5 -57t58.5 -138q0 -126 -122 -175zM229 342q-133 -35 -133 -147q0 -74 50.5 -121.5t145.5 -47.5
t144 40.5t49 110.5q0 26 -8.5 47.5t-19 36t-32.5 27t-37.5 19.5t-46.5 14t-45.5 9.5t-48.5 8.5zM352 360q122 45 122 154q0 68 -47 114t-135 46q-89 0 -135.5 -41.5t-46.5 -107.5q0 -35 12 -61t29.5 -40.5t45.5 -25.5t50.5 -16t55 -11t49.5 -11z" />
    <glyph glyph-name="nine" unicode="9" horiz-adv-x="588" 
d="M488 390q-2 148 -50.5 216t-156.5 68q-192 0 -192 -218q0 -87 46 -137t131 -50q74 0 127 27.5t95 93.5zM126 63q62 -37 157 -37q66 0 109 31q96 70 98 277q-78 -103 -224 -103q-98 0 -158 59.5t-60 165.5q0 115 57 185.5t176 70.5q133 0 191 -87t58 -275
q0 -182 -63.5 -272t-179.5 -90q-110 0 -178 41z" />
    <glyph glyph-name="colon" unicode=":" horiz-adv-x="206" 
d="M103 -4q-33 0 -33 34t33 34t33 -34t-33 -34zM103 331q-33 0 -33 34t33 34t33 -34t-33 -34z" />
    <glyph glyph-name="semicolon" unicode=";" horiz-adv-x="236" 
d="M72 -140h-32l71 313l45 2zM133 331q-33 0 -33 34t33 34t33 -34t-33 -34z" />
    <glyph glyph-name="less" unicode="&#x3c;" 
d="M559 54l-460 212v38l461 214l20 -39l-437 -194l437 -195z" />
    <glyph glyph-name="equal" unicode="=" 
d="M580 363h-480v39h480v-39zM580 168h-480v39h480v-39z" />
    <glyph glyph-name="greater" unicode="&#x3e;" 
d="M580 266l-460 -212l-21 36l437 195l-437 194l20 39l461 -214v-38z" />
    <glyph glyph-name="question" unicode="?" horiz-adv-x="466" 
d="M212 161h-34q-1 26 -2 88t-1 71q111 13 160 52t49 112q0 88 -71.5 139.5t-190.5 51.5q-14 0 -48 -2l4 37q17 2 51 2q135 -1 215.5 -66t80.5 -157q0 -171 -211 -196q0 -54 -2 -132zM195 -4q-33 0 -33 34t33 34t33 -34t-33 -34z" />
    <glyph glyph-name="at" unicode="@" horiz-adv-x="889" 
d="M568 184l37 310q-62 25 -143 25q-40 0 -71.5 -11.5t-61 -40.5t-45.5 -89t-16 -147q0 -80 27 -124.5t96 -44.5q66 0 102.5 29t74.5 93zM653 -77q-110 -75 -266 -75q-163 0 -246 93.5t-83 299.5q0 134 33 228.5t94.5 146t136.5 74t173 22.5q174 0 255 -86.5t81 -238.5
q0 -314 -259 -349q-4 39 -4 95q-60 -103 -183 -103q-76 0 -114.5 53.5t-38.5 142.5q0 80 14 140t35.5 94.5t53.5 55.5t62.5 27.5t67.5 6.5q96 0 178 -35l-42 -356q-1 -12 -1 -35q0 -20 2 -52q194 51 194 313q0 295 -303 295q-91 0 -160 -21t-125 -69t-85.5 -135.5
t-29.5 -211.5q0 -191 72.5 -277t223.5 -86q143 0 248 73z" />
    <glyph glyph-name="A" unicode="A" horiz-adv-x="553" 
d="M528 2l-43 -5l-60 186h-298l-59 -183h-43l230 698l42 5zM412 222l-136 425l-137 -425h273z" />
    <glyph glyph-name="B" unicode="B" horiz-adv-x="556" 
d="M114 375h167q172 0 172 136q0 163 -203 163q-72 0 -136 -16v-283zM114 39h144q117 0 169 31t52 118q0 148 -198 148h-167v-297zM73 0v691q86 22 174 22q51 0 92.5 -9.5t78 -31.5t56.5 -62.5t20 -97.5q0 -68 -33 -107.5t-89 -47.5q62 -6 105.5 -48t43.5 -124
q0 -185 -221 -185h-227z" />
    <glyph glyph-name="C" unicode="C" horiz-adv-x="552" 
d="M510 29q-65 -41 -181 -41q-66 0 -113.5 17.5t-84 58.5t-54.5 112t-18 174t18 174t54.5 112t84 58.5t113.5 17.5q116 0 181 -41l-19 -34q-67 37 -168 37q-52 0 -90 -14.5t-69.5 -49t-47.5 -100t-16 -160.5t16 -160.5t47.5 -100t69.5 -49t90 -14.5q101 0 168 37z" />
    <glyph glyph-name="D" unicode="D" horiz-adv-x="636" 
d="M73 0v691q111 21 225 21q65 0 112.5 -15t87 -53t60 -111.5t20.5 -182.5q0 -191 -67 -270.5t-215 -79.5h-223zM114 39h183q128 0 184 67.5t56 243.5q0 96 -16.5 161.5t-49.5 99.5t-73 48t-96 14q-110 0 -188 -17v-617z" />
    <glyph glyph-name="E" unicode="E" horiz-adv-x="508" 
d="M453 0h-380v700h380v-39h-339v-269h280l-5 -39h-275v-314h339v-39z" />
    <glyph glyph-name="F" unicode="F" horiz-adv-x="482" 
d="M114 0h-41v700h380v-39h-339v-292h280l-5 -39h-275v-330z" />
    <glyph glyph-name="G" unicode="G" horiz-adv-x="636" 
d="M579 32q-93 -44 -236 -44q-71 0 -121 17t-88 58t-56.5 112t-18.5 175q0 96 23 167.5t63.5 113t90.5 61.5t110 20q132 0 202 -42l-19 -34q-68 38 -176 38q-118 0 -185.5 -77.5t-67.5 -245.5q0 -183 57 -254t187 -71q120 0 194 35v239h-206v39h247v-307z" />
    <glyph glyph-name="H" unicode="H" horiz-adv-x="595" 
d="M522 0h-41v351h-367v-351h-41v700h41v-310h367v310h41v-700z" />
    <glyph glyph-name="I" unicode="I" horiz-adv-x="187" 
d="M114 0h-41v700h41v-700z" />
    <glyph glyph-name="J" unicode="J" horiz-adv-x="224" 
d="M44 -152l-21 30q50 32 68.5 74.5t18.5 111.5v636h41v-635q0 -159 -107 -217z" />
    <glyph glyph-name="K" unicode="K" horiz-adv-x="508" 
d="M488 14l-34 -23l-340 358v-349h-41v700h41v-333l319 338l33 -22l-305 -324z" />
    <glyph glyph-name="L" unicode="L" horiz-adv-x="499" 
d="M464 0h-391v700h41v-662h350v-38z" />
    <glyph glyph-name="M" unicode="M" horiz-adv-x="757" 
d="M659 -2l-46 627l-216 -625h-37l-216 625l-44 -625h-43l54 700h50l218 -631l219 631h48l54 -698z" />
    <glyph glyph-name="N" unicode="N" horiz-adv-x="615" 
d="M542 0h-45l-387 638v-638h-37v693l43 12l389 -642v637h37v-700z" />
    <glyph glyph-name="O" unicode="O" horiz-adv-x="666" 
d="M333 -12q-145 0 -209 87t-64 275t64 275t209 87t209 -87t64 -275t-64 -275t-209 -87zM333 26q70 0 117 22.5t71.5 68t34 100t9.5 133.5t-9.5 133.5t-34 100t-71.5 68t-117 22.5t-117 -22.5t-71.5 -68t-34 -100t-9.5 -133.5t9.5 -133.5t34 -100t71.5 -68t117 -22.5z" />
    <glyph glyph-name="P" unicode="P" horiz-adv-x="540" 
d="M114 0h-41v691q86 21 168 21q58 0 106 -12t88 -39t62.5 -75.5t22.5 -114.5q0 -62 -23.5 -107.5t-65 -70.5t-89 -36.5t-104.5 -11.5q-65 0 -124 12v-257zM114 296q63 -13 125 -13q67 0 117.5 15t86.5 58.5t36 113.5q0 108 -65.5 155.5t-167.5 47.5q-71 0 -132 -16v-361z
" />
    <glyph glyph-name="Q" unicode="Q" horiz-adv-x="666" 
d="M486 -127l-37 -24q-72 54 -107 139h-9q-145 0 -209 87t-64 275t64 275t209 87t209 -87t64 -275q0 -171 -52.5 -258t-169.5 -101q24 -66 102 -118zM333 25q70 0 117 22.5t71.5 68t34 100.5t9.5 134t-9.5 134t-34 100.5t-71.5 68t-117 22.5t-117 -22.5t-71.5 -68
t-34 -100.5t-9.5 -134t9.5 -134t34 -100.5t71.5 -68t117 -22.5z" />
    <glyph glyph-name="R" unicode="R" horiz-adv-x="557" 
d="M114 307h178q77 0 125 41.5t48 131.5q0 104 -60 148.5t-157 44.5q-63 0 -134 -17v-349zM520 5l-42 -10l-157 273h-207v-268h-41v691q94 21 173 21q55 0 99 -11.5t81.5 -36.5t58.5 -72t21 -112q0 -162 -145 -200z" />
    <glyph glyph-name="S" unicode="S" horiz-adv-x="544" 
d="M60 86q98 -60 222 -60q79 0 130 38t51 122q0 27 -11 49t-26 36t-44.5 28t-51 21t-61.5 19q-50 15 -81.5 28t-63 35t-46.5 53.5t-15 74.5q0 94 58.5 138t150.5 44q115 0 190 -41l-16 -35q-71 38 -172 38q-171 0 -171 -143q0 -28 10 -50.5t23.5 -36.5t41 -27.5t47 -20.5
t57.5 -18q32 -10 48.5 -15.5t44.5 -16t42.5 -20t33.5 -24t28.5 -30.5t16.5 -38.5t7 -48.5q0 -101 -61 -149t-159 -48q-145 0 -241 62z" />
    <glyph glyph-name="T" unicode="T" horiz-adv-x="559" 
d="M300 0h-41v661h-217v39h475v-39h-217v-661z" />
    <glyph glyph-name="U" unicode="U" horiz-adv-x="637" 
d="M569 700v-350q0 -187 -59 -274.5t-191 -87.5q-133 0 -192 87.5t-59 274.5v350h41v-350q0 -170 48 -247.5t162 -77.5q113 0 161 77t48 248v350h41z" />
    <glyph glyph-name="V" unicode="V" horiz-adv-x="551" 
d="M296 -5h-40l-231 700l42 10l209 -652l209 652l41 -10z" />
    <glyph glyph-name="W" unicode="W" horiz-adv-x="821" 
d="M617 -5h-47l-157 635l-160 -635h-47l-181 701l43 8l162 -648l159 641l48 7l157 -648l159 647l43 -6z" />
    <glyph glyph-name="X" unicode="X" horiz-adv-x="567" 
d="M542 8l-39 -16l-222 342l-210 -334h-46l233 370l-209 322l39 16l196 -304l186 296h46l-209 -331z" />
    <glyph glyph-name="Y" unicode="Y" horiz-adv-x="545" 
d="M291 0h-41v259l-223 435l41 11l202 -402l202 397h46l-227 -441v-259z" />
    <glyph glyph-name="Z" unicode="Z" horiz-adv-x="534" 
d="M483 0h-425l-13 39l376 622h-366v39h400l14 -39l-376 -622h396z" />
    <glyph glyph-name="bracketleft" unicode="[" horiz-adv-x="307" 
d="M249 -140h-177v858h177v-36h-137v-786h137v-36z" />
    <glyph glyph-name="backslash" unicode="\" horiz-adv-x="296" 
d="M255 3l-36 -8l-178 701l36 8z" />
    <glyph glyph-name="bracketright" unicode="]" horiz-adv-x="307" 
d="M235 -140h-177v36h137v786h-137v36h177v-858z" />
    <glyph glyph-name="asciicircum" unicode="^" horiz-adv-x="417" 
d="M380 373l-34 -14l-138 317l-138 -317l-34 14l154 345h36z" />
    <glyph glyph-name="underscore" unicode="_" horiz-adv-x="500" 
d="M502 -154h-504v30h504v-30z" />
    <glyph glyph-name="grave" unicode="`" horiz-adv-x="197" 
d="M157 599l-31 -4l-86 170l45 4z" />
    <glyph glyph-name="a" unicode="a" horiz-adv-x="501" 
d="M390 147v108q-166 -8 -232.5 -31t-66.5 -91q0 -58 30 -83.5t103 -25.5q61 0 97.5 29.5t68.5 93.5zM446 2l-35 -6q-15 40 -18 93q-29 -50 -69 -75.5t-106 -25.5q-92 0 -130 38t-38 108q0 87 77 119t263 39v12q0 96 -39.5 138.5t-105.5 42.5q-85 0 -142 -33l-15 35
q58 35 161 35q82 0 131.5 -51t49.5 -156v-182q0 -73 16 -131z" />
    <glyph glyph-name="b" unicode="b" horiz-adv-x="516" 
d="M73 16v696l40 6v-296q28 51 66.5 75.5t103.5 24.5q180 0 180 -267q0 -81 -17 -136t-47.5 -82.5t-63.5 -38t-75 -10.5q-109 0 -187 28zM113 45q54 -21 147 -21q36 0 63 9t51 33t36.5 71.5t12.5 117.5q0 114 -33 172.5t-113 58.5q-61 0 -96.5 -29.5t-67.5 -93.5v-318z" />
    <glyph glyph-name="c" unicode="c" horiz-adv-x="429" 
d="M372 50l15 -36q-50 -26 -121 -26q-113 0 -163 64.5t-50 202.5t50 202.5t163 64.5q71 0 121 -26l-15 -36q-45 24 -106 24q-101 0 -137 -57t-36 -172t36 -172t137 -57q61 0 106 24z" />
    <glyph glyph-name="d" unicode="d" horiz-adv-x="516" 
d="M403 147v301q-68 38 -147 38q-36 0 -63 -9t-51 -33t-36.5 -71.5t-12.5 -117.5q0 -114 33 -172.5t113 -58.5q61 0 96.5 29.5t67.5 93.5zM459 2l-35 -6q-13 39 -16 96q-29 -52 -69 -78t-106 -26q-180 0 -180 267q0 81 17 136t47.5 82.5t63.5 38t75 10.5q76 0 147 -34v224
l40 6v-585q0 -73 16 -131z" />
    <glyph glyph-name="e" unicode="e" horiz-adv-x="503" 
d="M416 62l15 -34q-66 -40 -166 -40q-47 0 -83 11.5t-66.5 39.5t-46.5 82t-16 133q0 67 12.5 117t32 78.5t47.5 45.5t54 22t58 5q96 0 145.5 -61.5t49.5 -205.5v-4l-358 -29q4 -114 48.5 -156t123.5 -42q82 0 150 38zM93 258l318 26q-1 110 -40.5 156t-113.5 46
q-35 0 -62 -8.5t-51.5 -30.5t-37.5 -67t-13 -112v-10z" />
    <glyph glyph-name="f" unicode="f" horiz-adv-x="333" 
d="M164 0h-40v469h-93v37h91q-10 65 -10 81q0 63 31.5 103t100.5 40q33 0 62 -8l-7 -37q-24 8 -56 8q-91 0 -91 -105q0 -35 10 -82h120l-5 -37h-113v-469z" />
    <glyph glyph-name="g" unicode="g" horiz-adv-x="516" 
d="M142 -103q57 -27 126 -27q135 0 135 149v68q-27 -51 -66 -75t-104 -24q-180 0 -180 267q0 81 17 136t47.5 82.5t63.5 38t75 10.5q109 0 187 -28v-477q0 -86 -42.5 -134.5t-129.5 -48.5q-85 0 -143 27zM403 147v318q-54 21 -147 21q-36 0 -63 -9t-51 -33t-36.5 -71.5
t-12.5 -117.5q0 -114 33 -172.5t113 -58.5q61 0 96.5 29.5t67.5 93.5z" />
    <glyph glyph-name="h" unicode="h" horiz-adv-x="518" 
d="M453 0h-40v277q0 51 -5 85.5t-19 64.5t-42 44.5t-70 14.5q-61 0 -96.5 -29.5t-67.5 -93.5v-363h-40v712l40 6v-296q28 51 66.5 75.5t103.5 24.5q91 0 130.5 -60t39.5 -173v-289z" />
    <glyph glyph-name="i" unicode="i" horiz-adv-x="196" 
d="M98 621q-30 0 -30 28t30 28t30 -28t-30 -28zM135 0h-40q-17 60 -17 177v327l40 6v-335q0 -115 17 -175z" />
    <glyph glyph-name="j" unicode="j" horiz-adv-x="201" 
d="M41 -166l-21 31q42 25 52.5 61.5t10.5 116.5v461l40 6v-455q0 -99 -13.5 -145.5t-68.5 -75.5zM103 621q-30 0 -30 28t30 28t30 -28t-30 -28z" />
    <glyph glyph-name="k" unicode="k" horiz-adv-x="422" 
d="M397 13l-36 -20l-248 282v-275h-40v712l40 6v-428l236 227l31 -22l-221 -213z" />
    <glyph glyph-name="l" unicode="l" horiz-adv-x="195" 
d="M135 0h-40q-17 60 -17 177v535l40 6v-543q0 -115 17 -175z" />
    <glyph glyph-name="m" unicode="m" horiz-adv-x="838" 
d="M773 0h-40v277q0 41 -2.5 69.5t-10.5 56.5t-22 45t-38 27.5t-58 10.5q-61 0 -97.5 -30t-61.5 -93v-363h-40v322q0 164 -131 164q-60 0 -94 -29t-65 -94v-363h-40v377q0 73 -16 131l35 6q15 -40 18 -93q29 51 66.5 76t101.5 25q63 0 101 -32t49 -85q27 63 69.5 90
t110.5 27q91 0 128 -59t37 -174v-289z" />
    <glyph glyph-name="n" unicode="n" horiz-adv-x="518" 
d="M453 0h-40v277q0 105 -27 157t-107 52q-61 0 -97.5 -29.5t-68.5 -93.5v-363h-40v377q0 73 -16 131l35 6q15 -40 18 -93q29 50 69 75.5t106 25.5q52 0 87.5 -20t52 -56.5t22.5 -73t6 -83.5v-289z" />
    <glyph glyph-name="o" unicode="o" horiz-adv-x="532" 
d="M266 -12q-113 0 -163 64.5t-50 202.5t50 202.5t163 64.5t163 -64.5t50 -202.5t-50 -202.5t-163 -64.5zM266 24q101 0 137 57.5t36 173.5t-36 173.5t-137 57.5t-137 -57.5t-36 -173.5t36 -173.5t137 -57.5z" />
    <glyph glyph-name="p" unicode="p" horiz-adv-x="516" 
d="M113 62q68 -38 147 -38q36 0 63 9t51 33t36.5 71.5t12.5 117.5q0 114 -33 172.5t-113 58.5q-61 0 -96.5 -29.5t-67.5 -93.5v-301zM113 -154h-40v531q0 73 -16 131l35 6q15 -40 18 -93q29 50 68 75.5t105 25.5q180 0 180 -267q0 -81 -17 -136t-47.5 -82.5t-63.5 -38
t-75 -10.5q-76 0 -147 34v-176z" />
    <glyph glyph-name="q" unicode="q" horiz-adv-x="516" 
d="M443 -148l-40 -6v242q-28 -51 -66.5 -75.5t-103.5 -24.5q-180 0 -180 267q0 81 17 136t47.5 82.5t63.5 38t75 10.5q109 0 187 -28v-642zM403 147v318q-54 21 -147 21q-36 0 -63 -9t-51 -33t-36.5 -71.5t-12.5 -117.5q0 -114 33 -172.5t113 -58.5q61 0 96.5 29.5
t67.5 93.5z" />
    <glyph glyph-name="r" unicode="r" horiz-adv-x="299" 
d="M113 0h-40v377q0 73 -16 131l35 6q14 -38 18 -104q49 99 158 111l5 -44q-60 -4 -94.5 -33t-65.5 -90v-354z" />
    <glyph glyph-name="s" unicode="s" horiz-adv-x="431" 
d="M60 68q69 -44 162 -44q56 0 92 26t36 85q0 20 -8 36t-18 25.5t-32.5 19t-36 13.5t-45.5 13q-73 20 -111 51t-38 96q0 67 45 100t113 33q85 0 140 -28l-15 -34q-51 26 -124 26q-120 0 -120 -98q0 -46 30 -68t97 -41q34 -10 51 -15.5t42.5 -18t37.5 -25.5t21.5 -35t9.5 -50
q0 -76 -46 -111.5t-119 -35.5q-111 0 -181 47z" />
    <glyph glyph-name="t" unicode="t" horiz-adv-x="306" 
d="M233 14l-28 -26q-55 45 -71 100.5t-16 167.5v217h-93v37h93v161l40 6v-167h118l-5 -37h-113v-236q0 -88 12.5 -135.5t62.5 -87.5z" />
    <glyph glyph-name="u" unicode="u" horiz-adv-x="518" 
d="M461 2l-35 -6q-15 40 -18 93q-29 -50 -69 -75.5t-106 -25.5q-52 0 -87.5 20t-52 56.5t-22.5 73t-6 83.5v283l40 6v-277q0 -105 27 -157t107 -52q61 0 97.5 29.5t68.5 93.5v357l40 6v-377q0 -73 16 -131z" />
    <glyph glyph-name="v" unicode="v" horiz-adv-x="434" 
d="M241 -5h-46l-170 511l42 8l151 -476l152 476l39 -9z" />
    <glyph glyph-name="w" unicode="w" horiz-adv-x="730" 
d="M551 -5h-47l-134 462l-140 -462h-47l-157 509l39 10l142 -473l140 465l46 7l135 -472l138 473l39 -9z" />
    <glyph glyph-name="x" unicode="x" horiz-adv-x="443" 
d="M418 7l-41 -14l-158 243l-149 -236h-45l171 267l-154 236l41 14l137 -219l131 212h46l-153 -241z" />
    <glyph glyph-name="y" unicode="y" horiz-adv-x="434" 
d="M103 -163l-19 32q84 42 112 131l-171 506l42 8l151 -471l152 471l39 -9l-162 -486q-44 -134 -144 -182z" />
    <glyph glyph-name="z" unicode="z" horiz-adv-x="442" 
d="M403 0h-357l-9 36l309 438h-294v36h336l7 -36l-309 -438h321z" />
    <glyph glyph-name="braceleft" unicode="{" horiz-adv-x="351" 
d="M287 -102v-38q-29 0 -49 2.5t-42.5 12.5t-36.5 28t-23 49.5t-9 75.5q0 131 -16.5 182t-62.5 60l-4 40q52 9 67.5 57.5t15.5 182.5q0 44 9 75.5t23 49.5t36.5 28t42.5 12.5t49 2.5v-38q-32 0 -50 -3.5t-37 -16t-27 -42t-8 -77.5q0 -118 -15.5 -176t-53.5 -75
q39 -18 54 -76t15 -177q0 -48 8 -77.5t27 -42t37 -16t50 -3.5z" />
    <glyph glyph-name="bar" unicode="|" horiz-adv-x="250" 
d="M145 -140h-40v934h40v-934z" />
    <glyph glyph-name="braceright" unicode="}" horiz-adv-x="351" 
d="M64 -102q32 0 50 3.5t37 16t27 42t8 77.5q0 118 15.5 176t53.5 75q-39 18 -54 76t-15 177q0 48 -8 77.5t-27 42t-37 16t-50 3.5v38q29 0 49 -2.5t42.5 -12.5t36.5 -28t23 -49.5t9 -75.5q0 -131 16.5 -182t62.5 -60l4 -40q-52 -9 -67.5 -57.5t-15.5 -182.5q0 -44 -9 -75.5
t-23 -49.5t-36.5 -28t-42.5 -12.5t-49 -2.5v38z" />
    <glyph glyph-name="asciitilde" unicode="~" horiz-adv-x="535" 
d="M465 295q-53 -59 -125 -59q-34 0 -78 32t-68 32q-57 0 -102 -52l-22 28q53 59 125 59q34 0 78 -32t68 -32q57 0 102 52z" />
    <glyph glyph-name="uni00A0" unicode="&#xa0;" horiz-adv-x="201" 
 />
    <glyph glyph-name="exclamdown" unicode="&#xa1;" horiz-adv-x="227" 
d="M98 357h34q1 -34 3.5 -264t3.5 -272l-47 -6q0 24 2 157t3 244t1 141zM115 522q33 0 33 -34t-33 -34t-33 34t33 34z" />
    <glyph glyph-name="cent" unicode="&#xa2;" horiz-adv-x="429" 
d="M267 -112h-35v102q-95 8 -137 72.5t-42 192.5t42 192t137 73v102h35v-100q70 0 120 -26l-15 -36q-45 24 -106 24q-101 0 -137 -57t-36 -172t36 -172t137 -57q61 0 106 24l15 -36q-50 -26 -120 -26v-100z" />
    <glyph glyph-name="sterling" unicode="&#xa3;" horiz-adv-x="538" 
d="M490 0h-402l-10 39q68 81 68 196q0 38 -9 96h-98v38h92q-26 126 -26 176q0 84 54.5 125.5t140.5 41.5q101 0 175 -45l-20 -34q-69 41 -151 41q-159 0 -159 -131q0 -25 3.5 -52t11.5 -67.5t10 -54.5h203v-38h-197q9 -61 9 -100q0 -114 -61 -192h366v-39z" />
    <glyph glyph-name="currency" unicode="&#xa4;" horiz-adv-x="598" 
d="M299 162q-63 0 -99 25l-68 -68l-29 29l67 67q-27 38 -27 100q0 61 27 99l-67 68l29 29l68 -68q37 25 99 25q57 0 99 -25l68 68l29 -29l-67 -67q27 -35 27 -100q0 -66 -27 -101l67 -66l-29 -29l-68 68q-37 -25 -99 -25zM299 198q116 0 116 117t-116 117t-116 -117
t116 -117z" />
    <glyph glyph-name="yen" unicode="&#xa5;" horiz-adv-x="545" 
d="M291 0h-41v161h-166v34h166v83h-166v34h148l-205 382l41 11l202 -382l202 377h46l-209 -388h151v-34h-169v-83h169v-34h-169v-161z" />
    <glyph glyph-name="brokenbar" unicode="&#xa6;" horiz-adv-x="250" 
d="M145 381h-40v413h40v-413zM145 -140h-40v413h40v-413z" />
    <glyph glyph-name="section" unicode="&#xa7;" horiz-adv-x="511" 
d="M98 -77q64 -38 156 -38q150 0 150 117q0 47 -37 74.5t-89 42t-104.5 30.5t-89.5 53.5t-37 97.5q0 99 81 142q-62 42 -62 120q0 77 53.5 113.5t132.5 36.5q109 0 179 -40l-18 -35q-64 38 -156 38q-150 0 -150 -117q0 -47 37 -74.5t89.5 -42t104.5 -30.5t89 -53.5t37 -97.5
q0 -99 -82 -143q63 -41 63 -119q0 -77 -53.5 -113.5t-132.5 -36.5q-109 0 -179 40zM346 137q35 12 57 42t22 75q0 43 -27.5 72t-61 40.5t-88 27.5t-83.5 29q-35 -12 -57 -42t-22 -75q0 -35 16 -60t46 -40t59.5 -24.5t71.5 -21.5t67 -23z" />
    <glyph glyph-name="dieresis" unicode="&#xa8;" horiz-adv-x="349" 
d="M114 649q0 -28 -29 -28q-28 0 -28 28t28 28q29 0 29 -28zM292 649q0 -28 -29 -28q-28 0 -28 28t28 28q29 0 29 -28z" />
    <glyph glyph-name="copyright" unicode="&#xa9;" horiz-adv-x="812" 
d="M535 122q-52 -32 -130 -32q-89 0 -141 63t-52 196t52 196t141 63q78 0 130 -32l-15 -29q-50 28 -114 28q-159 0 -159 -226t159 -226q64 0 114 28zM406 -12q-169 0 -258 93t-89 269t89 269t258 93t258 -93t89 -269t-89 -269t-258 -93zM406 21q154 0 233 83.5t79 245.5
t-79 245.5t-233 83.5t-233 -83.5t-79 -245.5t79 -245.5t233 -83.5z" />
    <glyph glyph-name="ordfeminine" unicode="&#xaa;" horiz-adv-x="329" 
d="M242 489v62q-86 -2 -125 -16.5t-39 -49.5q0 -31 15.5 -45t55.5 -14q36 0 56 15t37 48zM281 408l-27 -6q-6 17 -9 48q-32 -52 -99 -52q-101 0 -101 87q0 50 47 70.5t150 23.5q0 105 -79 105q-48 0 -84 -20l-12 26q39 22 98 22q46 0 77 -30.5t31 -92.5v-107q0 -41 8 -74z
M284 333h-226v27h226v-27z" />
    <glyph glyph-name="guillemotleft" unicode="&#xab;" horiz-adv-x="661" 
d="M319 67l-261 190v35l261 190l22 -31l-248 -176l248 -178zM581 67l-261 190v35l261 190l22 -31l-248 -176l248 -178z" />
    <glyph glyph-name="logicalnot" unicode="&#xac;" 
d="M580 99h-40v167h-440v39h480v-206z" />
    <glyph glyph-name="uni00AD" unicode="&#xad;" horiz-adv-x="445" 
d="M375 266h-305v39h305v-39z" />
    <glyph glyph-name="registered" unicode="&#xae;" horiz-adv-x="812" 
d="M600 117l-32 -16l-113 188h-159v-181h-35v481q71 19 131 19q199 0 199 -168q0 -118 -101 -144zM296 321h137q122 0 122 119q0 134 -162 134q-51 0 -97 -12v-241zM406 -12q-169 0 -258 93t-89 269t89 269t258 93t258 -93t89 -269t-89 -269t-258 -93zM406 21
q154 0 233 83.5t79 245.5t-79 245.5t-233 83.5t-233 -83.5t-79 -245.5t79 -245.5t233 -83.5z" />
    <glyph glyph-name="macron" unicode="&#xaf;" horiz-adv-x="454" 
d="M414 598h-374v36h374v-36z" />
    <glyph glyph-name="degree" unicode="&#xb0;" horiz-adv-x="408" 
d="M316 588q0 108 -112 108t-112 -108t112 -108t112 108zM353 588q0 -69 -38 -105.5t-111 -36.5t-111 36.5t-38 105.5t38 105.5t111 36.5t111 -36.5t38 -105.5z" />
    <glyph glyph-name="plusminus" unicode="&#xb1;" 
d="M360 91h-40v198h-220v39h220v198h40v-198h220v-39h-220v-198zM580 0h-480v39h480v-39z" />
    <glyph glyph-name="twosuperior" unicode="&#xb2;" horiz-adv-x="350" 
d="M289 305h-231l-8 32q106 71 155.5 130t49.5 126q0 41 -26.5 61.5t-68.5 20.5q-57 0 -97 -27l-15 30q50 29 116 29q62 0 94 -31t32 -81q0 -71 -47 -132t-139 -126h185v-32z" />
    <glyph glyph-name="threesuperior" unicode="&#xb3;" horiz-adv-x="360" 
d="M66 358q43 -28 113 -28q44 0 72 23.5t28 68.5q0 88 -104 88q-3 0 -9 -0.5t-9 -0.5l-31 -2l-12 32l136 129h-192v32h230l9 -32l-137 -129q4 0 10 0.5t9 0.5q68 0 101.5 -32t33.5 -88q0 -55 -35 -88.5t-99 -33.5q-82 0 -131 31z" />
    <glyph glyph-name="acute" unicode="&#xb4;" horiz-adv-x="197" 
d="M71 595l-31 4l73 170l44 -4z" />
    <glyph glyph-name="mu" unicode="&#xb5;" horiz-adv-x="526" 
d="M469 2l-35 -6q-15 40 -18 93q-29 -50 -69 -75.5t-106 -25.5q-102 0 -128 72v-214h-40v658l40 6v-277q0 -105 27 -157t107 -52q61 0 97.5 29.5t68.5 93.5v357l40 6v-377q0 -73 16 -131z" />
    <glyph glyph-name="paragraph" unicode="&#xb6;" horiz-adv-x="469" 
d="M387 0h-36v667q-31 10 -71 10v-677h-36v309q-105 0 -158.5 59t-53.5 144q0 99 65 149t175 50q53 0 115 -17v-694z" />
    <glyph glyph-name="periodcentered" unicode="&#xb7;" horiz-adv-x="206" 
d="M103 303q-33 0 -33 34t33 34t33 -34t-33 -34z" />
    <glyph glyph-name="cedilla" unicode="&#xb8;" horiz-adv-x="213" 
d="M40 -156l10 30q22 -9 48 -9q42 0 42 35q0 21 -17.5 28t-50.5 9l17 63h34l-11 -38q61 -8 61 -62q0 -66 -78 -66q-29 0 -55 10z" />
    <glyph glyph-name="onesuperior" unicode="&#xb9;" horiz-adv-x="208" 
d="M121 305h-34v389l34 6v-395z" />
    <glyph glyph-name="ordmasculine" unicode="&#xba;" horiz-adv-x="343" 
d="M285 333h-226v27h226v-27zM172 397q-67 0 -97 38t-30 120q0 81 30 119t97 38t96.5 -38t29.5 -119q0 -82 -29.5 -120t-96.5 -38zM172 425q55 0 75 32.5t20 97.5q0 64 -20 96.5t-75 32.5q-56 0 -76 -32.5t-20 -96.5q0 -65 20 -97.5t76 -32.5z" />
    <glyph glyph-name="guillemotright" unicode="&#xbb;" horiz-adv-x="661" 
d="M342 67l-22 30l248 178l-248 176l22 31l261 -190v-35zM80 67l-22 30l248 178l-248 176l22 31l261 -190v-35z" />
    <glyph glyph-name="onequarter" unicode="&#xbc;" horiz-adv-x="661" 
d="M138 305h-34v389l34 6v-395zM538 0h-34v107h-171l-9 31q58 92 62 258l36 -4q-11 -169 -60 -254h142v157l34 7v-164h55v-31h-55v-107zM416 694l-299 -700l-30 12l299 700z" />
    <glyph glyph-name="onehalf" unicode="&#xbd;" horiz-adv-x="647" 
d="M138 305h-34v389l34 6v-395zM586 0h-231l-8 32q106 71 155.5 130t49.5 126q0 41 -26.5 61.5t-68.5 20.5q-57 0 -97 -27l-15 30q50 29 116 29q62 0 94 -31t32 -81q0 -71 -47 -132t-139 -126h185v-32zM416 694l-299 -700l-30 12l299 700z" />
    <glyph glyph-name="threequarters" unicode="&#xbe;" horiz-adv-x="786" 
d="M683 0h-34v107h-171l-9 31q58 92 62 258l36 -4q-11 -169 -60 -254h142v157l34 7v-164h55v-31h-55v-107zM561 694l-299 -700l-30 12l299 700zM66 358q43 -28 113 -28q44 0 72 23.5t28 68.5q0 88 -104 88q-3 0 -9 -0.5t-9 -0.5l-31 -2l-12 32l136 129h-192v32h230l9 -32
l-137 -129q4 0 10 0.5t9 0.5q68 0 101.5 -32t33.5 -88q0 -55 -35 -88.5t-99 -33.5q-82 0 -131 31z" />
    <glyph glyph-name="questiondown" unicode="&#xbf;" horiz-adv-x="443" 
d="M401 -192q-17 -2 -51 -2q-135 1 -215.5 66t-80.5 157q0 171 211 196q0 54 2 132h34q1 -26 2 -88t1 -71q-111 -13 -160 -52t-49 -112q0 -88 71.5 -139.5t190.5 -51.5q14 0 48 2zM284 454q-33 0 -33 34t33 34t33 -34t-33 -34z" />
    <glyph glyph-name="Agrave" unicode="&#xc0;" horiz-adv-x="553" 
d="M528 2l-43 -5l-60 186h-298l-59 -183h-43l230 698l42 5zM412 222l-136 425l-137 -425h273zM301 765l-31 -4l-86 170l45 4z" />
    <glyph glyph-name="Aacute" unicode="&#xc1;" horiz-adv-x="553" 
d="M528 2l-43 -5l-60 186h-298l-59 -183h-43l230 698l42 5zM412 222l-136 425l-137 -425h273zM276 760l-31 4l73 170l44 -4z" />
    <glyph glyph-name="Acircumflex" unicode="&#xc2;" horiz-adv-x="553" 
d="M528 2l-43 -5l-60 186h-298l-59 -183h-43l230 698l42 5zM412 222l-136 425l-137 -425h273zM449 777l-24 -23l-149 113l-149 -113l-24 23l156 124h34z" />
    <glyph glyph-name="Atilde" unicode="&#xc3;" horiz-adv-x="553" 
d="M528 2l-43 -5l-60 186h-298l-59 -183h-43l230 698l42 5zM412 222l-136 425l-137 -425h273zM474 819q-53 -59 -125 -59q-34 0 -78 32t-68 32q-57 0 -102 -52l-22 28q53 59 125 59q34 0 78 -32t68 -32q57 0 102 52z" />
    <glyph glyph-name="Adieresis" unicode="&#xc4;" horiz-adv-x="553" 
d="M528 2l-43 -5l-60 186h-298l-59 -183h-43l230 698l42 5zM412 222l-136 425l-137 -425h273zM217 789q0 -28 -29 -28q-28 0 -28 28t28 28q29 0 29 -28zM395 789q0 -28 -29 -28q-28 0 -28 28t28 28q29 0 29 -28z" />
    <glyph glyph-name="Aring" unicode="&#xc5;" horiz-adv-x="553" 
d="M528 2l-43 -5l-60 186h-298l-59 -183h-43l222 673q-85 13 -85 103q0 105 114 105t114 -105q0 -88 -83 -103zM412 222l-136 425l-137 -425h273zM354 776q0 73 -78 73q-42 0 -60 -17.5t-18 -55.5t18.5 -56t59.5 -18q78 0 78 74z" />
    <glyph glyph-name="AE" unicode="&#xc6;" horiz-adv-x="872" 
d="M817 0h-380v183h-262l-104 -183h-48l404 700h390v-39h-339v-269h280l-5 -39h-275v-314h339v-39zM437 222v418l-239 -418h239z" />
    <glyph glyph-name="Ccedilla" unicode="&#xc7;" horiz-adv-x="552" 
d="M241 -156l10 30q23 -9 48 -9q42 0 42 35q0 21 -17.5 28t-50.5 9l14 53q-113 10 -170.5 93t-57.5 267q0 103 18 174t54.5 112t84 58.5t113.5 17.5q116 0 181 -41l-19 -34q-67 37 -168 37q-52 0 -90 -14.5t-69.5 -49t-47.5 -100t-16 -160.5t16 -160.5t47.5 -100t69.5 -49
t90 -14.5q101 0 168 37l19 -34q-65 -41 -181 -41h-9l-7 -26q61 -8 61 -62q0 -66 -78 -66q-29 0 -55 10z" />
    <glyph glyph-name="Egrave" unicode="&#xc8;" horiz-adv-x="508" 
d="M453 0h-380v700h380v-39h-339v-269h280l-5 -39h-275v-314h339v-39zM288 765l-31 -4l-86 170l45 4z" />
    <glyph glyph-name="Eacute" unicode="&#xc9;" horiz-adv-x="508" 
d="M453 0h-380v700h380v-39h-339v-269h280l-5 -39h-275v-314h339v-39zM239 761l-31 4l73 170l44 -4z" />
    <glyph glyph-name="Ecircumflex" unicode="&#xca;" horiz-adv-x="508" 
d="M453 0h-380v700h380v-39h-339v-269h280l-5 -39h-275v-314h339v-39zM432 777l-24 -23l-149 113l-149 -113l-24 23l156 124h34z" />
    <glyph glyph-name="Edieresis" unicode="&#xcb;" horiz-adv-x="508" 
d="M453 0h-380v700h380v-39h-339v-269h280l-5 -39h-275v-314h339v-39zM194 788q0 -28 -29 -28q-28 0 -28 28t28 28q29 0 29 -28zM372 788q0 -28 -29 -28q-28 0 -28 28t28 28q29 0 29 -28z" />
    <glyph glyph-name="Igrave" unicode="&#xcc;" horiz-adv-x="187" 
d="M114 0h-41v700h41v-700zM115 765l-31 -4l-86 170l45 4z" />
    <glyph glyph-name="Iacute" unicode="&#xcd;" horiz-adv-x="187" 
d="M114 0h-41v700h41v-700zM100 760l-31 4l73 170l44 -4z" />
    <glyph glyph-name="Icircumflex" unicode="&#xce;" horiz-adv-x="187" 
d="M114 0h-41v700h41v-700zM267 777l-24 -23l-149 113l-149 -113l-24 23l156 124h34z" />
    <glyph glyph-name="Idieresis" unicode="&#xcf;" horiz-adv-x="187" 
d="M114 0h-41v700h41v-700zM34 788q0 -28 -29 -28q-28 0 -28 28t28 28q29 0 29 -28zM212 788q0 -28 -29 -28q-28 0 -28 28t28 28q29 0 29 -28z" />
    <glyph glyph-name="Eth" unicode="&#xd0;" horiz-adv-x="672" 
d="M109 0v330h-78v39h78v322q111 21 225 21q65 0 112.5 -15t87 -53t60 -111.5t20.5 -182.5q0 -191 -67 -270.5t-215 -79.5h-223zM150 39h183q128 0 184 67.5t56 243.5q0 96 -16.5 161.5t-49.5 99.5t-73 48t-96 14q-110 0 -188 -17v-287h144v-39h-144v-291z" />
    <glyph glyph-name="Ntilde" unicode="&#xd1;" horiz-adv-x="615" 
d="M542 0h-45l-387 638v-638h-37v693l43 12l389 -642v637h37v-700zM511 817q-53 -59 -125 -59q-34 0 -78 32t-68 32q-57 0 -102 -52l-22 28q53 59 125 59q34 0 78 -32t68 -32q57 0 102 52z" />
    <glyph glyph-name="Ograve" unicode="&#xd2;" horiz-adv-x="666" 
d="M333 -12q-145 0 -209 87t-64 275t64 275t209 87t209 -87t64 -275t-64 -275t-209 -87zM333 26q70 0 117 22.5t71.5 68t34 100t9.5 133.5t-9.5 133.5t-34 100t-71.5 68t-117 22.5t-117 -22.5t-71.5 -68t-34 -100t-9.5 -133.5t9.5 -133.5t34 -100t71.5 -68t117 -22.5z
M358 765l-31 -4l-86 170l45 4z" />
    <glyph glyph-name="Oacute" unicode="&#xd3;" horiz-adv-x="666" 
d="M333 -12q-145 0 -209 87t-64 275t64 275t209 87t209 -87t64 -275t-64 -275t-209 -87zM333 26q70 0 117 22.5t71.5 68t34 100t9.5 133.5t-9.5 133.5t-34 100t-71.5 68t-117 22.5t-117 -22.5t-71.5 -68t-34 -100t-9.5 -133.5t9.5 -133.5t34 -100t71.5 -68t117 -22.5z
M341 761l-31 4l73 170l44 -4z" />
    <glyph glyph-name="Ocircumflex" unicode="&#xd4;" horiz-adv-x="666" 
d="M333 -12q-145 0 -209 87t-64 275t64 275t209 87t209 -87t64 -275t-64 -275t-209 -87zM333 26q70 0 117 22.5t71.5 68t34 100t9.5 133.5t-9.5 133.5t-34 100t-71.5 68t-117 22.5t-117 -22.5t-71.5 -68t-34 -100t-9.5 -133.5t9.5 -133.5t34 -100t71.5 -68t117 -22.5z
M506 781l-24 -23l-149 113l-149 -113l-24 23l156 124h34z" />
    <glyph glyph-name="Otilde" unicode="&#xd5;" horiz-adv-x="666" 
d="M333 -12q-145 0 -209 87t-64 275t64 275t209 87t209 -87t64 -275t-64 -275t-209 -87zM333 26q70 0 117 22.5t71.5 68t34 100t9.5 133.5t-9.5 133.5t-34 100t-71.5 68t-117 22.5t-117 -22.5t-71.5 -68t-34 -100t-9.5 -133.5t9.5 -133.5t34 -100t71.5 -68t117 -22.5z
M531 819q-53 -59 -125 -59q-34 0 -78 32t-68 32q-57 0 -102 -52l-22 28q53 59 125 59q34 0 78 -32t68 -32q57 0 102 52z" />
    <glyph glyph-name="Odieresis" unicode="&#xd6;" horiz-adv-x="666" 
d="M333 -12q-145 0 -209 87t-64 275t64 275t209 87t209 -87t64 -275t-64 -275t-209 -87zM333 26q70 0 117 22.5t71.5 68t34 100t9.5 133.5t-9.5 133.5t-34 100t-71.5 68t-117 22.5t-117 -22.5t-71.5 -68t-34 -100t-9.5 -133.5t9.5 -133.5t34 -100t71.5 -68t117 -22.5z
M273 789q0 -28 -29 -28q-28 0 -28 28t28 28q29 0 29 -28zM451 789q0 -28 -29 -28q-28 0 -28 28t28 28q29 0 29 -28z" />
    <glyph glyph-name="multiply" unicode="&#xd7;" 
d="M130 105l182 181l-182 182l28 28l182 -182l180 180l29 -29l-181 -181l181 -181l-28 -27l-181 181l-181 -181z" />
    <glyph glyph-name="Oslash" unicode="&#xd8;" horiz-adv-x="666" 
d="M184 -85h-44l46 105q-126 69 -126 330q0 188 64 275t209 87q86 0 145 -32l38 87h44l-49 -110q95 -81 95 -307q0 -188 -64 -275t-209 -87q-65 0 -110 16zM333 26q70 0 117 22.5t71.5 68t34 100t9.5 133.5t-9.5 133.5t-34 100t-71.5 68t-117 22.5t-117 -22.5t-71.5 -68
t-34 -100t-9.5 -133.5t9.5 -133.5t34 -100t71.5 -68t117 -22.5z" />
    <glyph glyph-name="Ugrave" unicode="&#xd9;" horiz-adv-x="637" 
d="M569 700v-350q0 -187 -59 -274.5t-191 -87.5q-133 0 -192 87.5t-59 274.5v350h41v-350q0 -170 48 -247.5t162 -77.5q113 0 161 77t48 248v350h41zM344 765l-31 -4l-86 170l45 4z" />
    <glyph glyph-name="Uacute" unicode="&#xda;" horiz-adv-x="637" 
d="M569 700v-350q0 -187 -59 -274.5t-191 -87.5q-133 0 -192 87.5t-59 274.5v350h41v-350q0 -170 48 -247.5t162 -77.5q113 0 161 77t48 248v350h41zM320 761l-31 4l73 170l44 -4z" />
    <glyph glyph-name="Ucircumflex" unicode="&#xdb;" horiz-adv-x="637" 
d="M569 700v-350q0 -187 -59 -274.5t-191 -87.5q-133 0 -192 87.5t-59 274.5v350h41v-350q0 -170 48 -247.5t162 -77.5q113 0 161 77t48 248v350h41zM492 781l-24 -23l-149 113l-149 -113l-24 23l156 124h34z" />
    <glyph glyph-name="Udieresis" unicode="&#xdc;" horiz-adv-x="637" 
d="M569 700v-350q0 -187 -59 -274.5t-191 -87.5q-133 0 -192 87.5t-59 274.5v350h41v-350q0 -170 48 -247.5t162 -77.5q113 0 161 77t48 248v350h41zM259 789q0 -28 -29 -28q-28 0 -28 28t28 28q29 0 29 -28zM437 789q0 -28 -29 -28q-28 0 -28 28t28 28q29 0 29 -28z" />
    <glyph glyph-name="Yacute" unicode="&#xdd;" horiz-adv-x="545" 
d="M291 0h-41v259l-223 435l41 11l202 -402l202 397h46l-227 -441v-259zM276 761l-31 4l73 170l44 -4z" />
    <glyph glyph-name="Thorn" unicode="&#xde;" horiz-adv-x="540" 
d="M114 0h-41v700h41v-128q71 20 141 20q116 0 190.5 -59.5t74.5 -185.5q0 -62 -23.5 -107.5t-65 -70.5t-89 -36.5t-104.5 -11.5q-65 0 -124 12v-133zM114 172q63 -13 125 -13q67 0 117.5 15t86.5 58.5t36 113.5q0 107 -63.5 156.5t-164.5 49.5q-69 0 -137 -22v-358z" />
    <glyph glyph-name="germandbls" unicode="&#xdf;" horiz-adv-x="572" 
d="M194 62q61 -38 140 -38q160 0 160 147q0 157 -201 157l-5 36l42 5q124 14 124 136q0 84 -39 128.5t-129 44.5q-101 0 -137 -57.5t-36 -173.5v-447h-40v447q0 138 50 202.5t163 64.5q58 0 100.5 -17t65 -47t33 -66t10.5 -79q0 -70 -39.5 -111.5t-104.5 -45.5
q87 -2 135.5 -47t48.5 -132q0 -91 -52 -136t-149 -45q-95 0 -160 41z" />
    <glyph glyph-name="agrave" unicode="&#xe0;" horiz-adv-x="501" 
d="M390 147v108q-166 -8 -232.5 -31t-66.5 -91q0 -58 30 -83.5t103 -25.5q61 0 97.5 29.5t68.5 93.5zM446 2l-35 -6q-15 40 -18 93q-29 -50 -69 -75.5t-106 -25.5q-92 0 -130 38t-38 108q0 87 77 119t263 39v12q0 96 -39.5 138.5t-105.5 42.5q-85 0 -142 -33l-15 35
q58 35 161 35q82 0 131.5 -51t49.5 -156v-182q0 -73 16 -131zM278 599l-31 -4l-86 170l45 4z" />
    <glyph glyph-name="aacute" unicode="&#xe1;" horiz-adv-x="501" 
d="M390 147v108q-166 -8 -232.5 -31t-66.5 -91q0 -58 30 -83.5t103 -25.5q61 0 97.5 29.5t68.5 93.5zM446 2l-35 -6q-15 40 -18 93q-29 -50 -69 -75.5t-106 -25.5q-92 0 -130 38t-38 108q0 87 77 119t263 39v12q0 96 -39.5 138.5t-105.5 42.5q-85 0 -142 -33l-15 35
q58 35 161 35q82 0 131.5 -51t49.5 -156v-182q0 -73 16 -131zM247 595l-31 4l73 170l44 -4z" />
    <glyph glyph-name="acircumflex" unicode="&#xe2;" horiz-adv-x="501" 
d="M390 147v108q-166 -8 -232.5 -31t-66.5 -91q0 -58 30 -83.5t103 -25.5q61 0 97.5 29.5t68.5 93.5zM446 2l-35 -6q-15 40 -18 93q-29 -50 -69 -75.5t-106 -25.5q-92 0 -130 38t-38 108q0 87 77 119t263 39v12q0 96 -39.5 138.5t-105.5 42.5q-85 0 -142 -33l-15 35
q58 35 161 35q82 0 131.5 -51t49.5 -156v-182q0 -73 16 -131zM421 615l-24 -23l-149 113l-149 -113l-24 23l156 124h34z" />
    <glyph glyph-name="atilde" unicode="&#xe3;" horiz-adv-x="501" 
d="M390 147v108q-166 -8 -232.5 -31t-66.5 -91q0 -58 30 -83.5t103 -25.5q61 0 97.5 29.5t68.5 93.5zM446 2l-35 -6q-15 40 -18 93q-29 -50 -69 -75.5t-106 -25.5q-92 0 -130 38t-38 108q0 87 77 119t263 39v12q0 96 -39.5 138.5t-105.5 42.5q-85 0 -142 -33l-15 35
q58 35 161 35q82 0 131.5 -51t49.5 -156v-182q0 -73 16 -131zM446 649q-53 -59 -125 -59q-34 0 -78 32t-68 32q-57 0 -102 -52l-22 28q53 59 125 59q34 0 78 -32t68 -32q57 0 102 52z" />
    <glyph glyph-name="adieresis" unicode="&#xe4;" horiz-adv-x="501" 
d="M390 147v108q-166 -8 -232.5 -31t-66.5 -91q0 -58 30 -83.5t103 -25.5q61 0 97.5 29.5t68.5 93.5zM446 2l-35 -6q-15 40 -18 93q-29 -50 -69 -75.5t-106 -25.5q-92 0 -130 38t-38 108q0 87 77 119t263 39v12q0 96 -39.5 138.5t-105.5 42.5q-85 0 -142 -33l-15 35
q58 35 161 35q82 0 131.5 -51t49.5 -156v-182q0 -73 16 -131zM187 649q0 -28 -29 -28q-28 0 -28 28t28 28q29 0 29 -28zM365 649q0 -28 -29 -28q-28 0 -28 28t28 28q29 0 29 -28z" />
    <glyph glyph-name="aring" unicode="&#xe5;" horiz-adv-x="501" 
d="M390 147v108q-166 -8 -232.5 -31t-66.5 -91q0 -58 30 -83.5t103 -25.5q61 0 97.5 29.5t68.5 93.5zM446 2l-35 -6q-15 40 -18 93q-29 -50 -69 -75.5t-106 -25.5q-92 0 -130 38t-38 108q0 87 77 119t263 39v12q0 96 -39.5 138.5t-105.5 42.5q-85 0 -142 -33l-15 35
q58 35 161 35q82 0 131.5 -51t49.5 -156v-182q0 -73 16 -131zM252 623q78 0 78 74q0 73 -78 73q-42 0 -60 -17.5t-18 -55.5t18.5 -56t59.5 -18zM252 592q-114 0 -114 105t114 105t114 -105t-114 -105z" />
    <glyph glyph-name="ae" unicode="&#xe6;" horiz-adv-x="839" 
d="M390 147v108q-166 -8 -232.5 -31t-66.5 -91q0 -58 30 -83.5t103 -25.5q61 0 97.5 29.5t68.5 93.5zM767 28q-66 -40 -166 -40q-90 0 -132 34.5t-59 90.5q-28 -59 -70.5 -92t-121.5 -33q-92 0 -130 38t-38 108q0 87 77 119t263 39v12q0 96 -39.5 138.5t-105.5 42.5
q-85 0 -142 -33l-15 35q58 35 161 35q63 0 106.5 -34t56.5 -100q27 134 181 134q96 0 145.5 -61.5t49.5 -205.5v-4l-358 -29q4 -114 48.5 -156t123.5 -42q82 0 150 38zM429 258l318 26q-1 110 -40.5 156t-113.5 46q-35 0 -62 -8.5t-51.5 -30.5t-37.5 -67t-13 -112v-10z" />
    <glyph glyph-name="ccedilla" unicode="&#xe7;" horiz-adv-x="429" 
d="M175 -156l10 30q23 -9 48 -9q42 0 42 35q0 21 -17.5 28t-50.5 9l14 54q-89 11 -128.5 75.5t-39.5 188.5q0 138 50 202.5t163 64.5q71 0 121 -26l-15 -36q-45 24 -106 24q-101 0 -137 -57t-36 -172t36 -172t137 -57q61 0 106 24l15 -36q-50 -26 -121 -26h-12l-7 -26
q61 -8 61 -62q0 -66 -78 -66q-29 0 -55 10z" />
    <glyph glyph-name="egrave" unicode="&#xe8;" horiz-adv-x="503" 
d="M416 62l15 -34q-66 -40 -166 -40q-47 0 -83 11.5t-66.5 39.5t-46.5 82t-16 133q0 67 12.5 117t32 78.5t47.5 45.5t54 22t58 5q96 0 145.5 -61.5t49.5 -205.5v-4l-358 -29q4 -114 48.5 -156t123.5 -42q82 0 150 38zM93 258l318 26q-1 110 -40.5 156t-113.5 46
q-35 0 -62 -8.5t-51.5 -30.5t-37.5 -67t-13 -112v-10zM276 599l-31 -4l-86 170l45 4z" />
    <glyph glyph-name="eacute" unicode="&#xe9;" horiz-adv-x="503" 
d="M416 62l15 -34q-66 -40 -166 -40q-47 0 -83 11.5t-66.5 39.5t-46.5 82t-16 133q0 67 12.5 117t32 78.5t47.5 45.5t54 22t58 5q96 0 145.5 -61.5t49.5 -205.5v-4l-358 -29q4 -114 48.5 -156t123.5 -42q82 0 150 38zM93 258l318 26q-1 110 -40.5 156t-113.5 46
q-35 0 -62 -8.5t-51.5 -30.5t-37.5 -67t-13 -112v-10zM245 595l-31 4l73 170l44 -4z" />
    <glyph glyph-name="ecircumflex" unicode="&#xea;" horiz-adv-x="503" 
d="M416 62l15 -34q-66 -40 -166 -40q-47 0 -83 11.5t-66.5 39.5t-46.5 82t-16 133q0 67 12.5 117t32 78.5t47.5 45.5t54 22t58 5q96 0 145.5 -61.5t49.5 -205.5v-4l-358 -29q4 -114 48.5 -156t123.5 -42q82 0 150 38zM93 258l318 26q-1 110 -40.5 156t-113.5 46
q-35 0 -62 -8.5t-51.5 -30.5t-37.5 -67t-13 -112v-10zM428 615l-24 -23l-149 113l-149 -113l-24 23l156 124h34z" />
    <glyph glyph-name="edieresis" unicode="&#xeb;" horiz-adv-x="503" 
d="M415 62l15 -34q-66 -40 -166 -40q-47 0 -83 11.5t-66.5 39.5t-46.5 82t-16 133q0 67 12.5 117t32 78.5t47.5 45.5t54 22t58 5q96 0 145.5 -61.5t49.5 -205.5v-4l-358 -29q4 -114 48.5 -156t123.5 -42q82 0 150 38zM92 258l318 26q-1 110 -40.5 156t-113.5 46
q-35 0 -62 -8.5t-51.5 -30.5t-37.5 -67t-13 -112v-10zM188 649q0 -28 -29 -28q-28 0 -28 28t28 28q29 0 29 -28zM366 649q0 -28 -29 -28q-28 0 -28 28t28 28q29 0 29 -28z" />
    <glyph glyph-name="igrave" unicode="&#xec;" horiz-adv-x="196" 
d="M135 0h-40q-17 60 -17 177v327l40 6v-335q0 -115 17 -175zM120 599l-31 -4l-86 170l45 4z" />
    <glyph glyph-name="iacute" unicode="&#xed;" horiz-adv-x="196" 
d="M135 0h-40q-17 60 -17 177v327l40 6v-335q0 -115 17 -175zM104 595l-31 4l73 170l44 -4z" />
    <glyph glyph-name="icircumflex" unicode="&#xee;" horiz-adv-x="196" 
d="M135 0h-40q-17 60 -17 177v327l40 6v-335q0 -115 17 -175zM271 615l-24 -23l-149 113l-149 -113l-24 23l156 124h34z" />
    <glyph glyph-name="idieresis" unicode="&#xef;" horiz-adv-x="196" 
d="M135 0h-40q-17 60 -17 177v327l40 6v-335q0 -115 17 -175zM38 649q0 -28 -29 -28q-28 0 -28 28t28 28q29 0 29 -28zM216 649q0 -28 -29 -28q-28 0 -28 28t28 28q29 0 29 -28z" />
    <glyph glyph-name="eth" unicode="&#xf0;" horiz-adv-x="532" 
d="M266 -14q-113 0 -163 64.5t-50 202.5t50 202.5t163 64.5q61 0 98.5 -18.5t64.5 -62.5q-19 83 -83 156l-50 -46l-26 26l51 47q-64 58 -138 76l10 32q91 -25 155 -83l66 61l26 -26l-66 -61q105 -119 105 -351v-17q0 -138 -50 -202.5t-163 -64.5zM266 22q101 0 137 57.5
t36 173.5t-36 173.5t-137 57.5t-137 -57.5t-36 -173.5t36 -173.5t137 -57.5z" />
    <glyph glyph-name="ntilde" unicode="&#xf1;" horiz-adv-x="518" 
d="M453 0h-40v277q0 105 -27 157t-107 52q-61 0 -97.5 -29.5t-68.5 -93.5v-363h-40v377q0 73 -16 131l35 6q15 -40 18 -93q29 50 69 75.5t106 25.5q52 0 87.5 -20t52 -56.5t22.5 -73t6 -83.5v-289zM452 649q-53 -59 -125 -59q-34 0 -78 32t-68 32q-57 0 -102 -52l-22 28
q53 59 125 59q34 0 78 -32t68 -32q57 0 102 52z" />
    <glyph glyph-name="ograve" unicode="&#xf2;" horiz-adv-x="532" 
d="M266 -12q-113 0 -163 64.5t-50 202.5t50 202.5t163 64.5t163 -64.5t50 -202.5t-50 -202.5t-163 -64.5zM266 24q101 0 137 57.5t36 173.5t-36 173.5t-137 57.5t-137 -57.5t-36 -173.5t36 -173.5t137 -57.5zM290 599l-31 -4l-86 170l45 4z" />
    <glyph glyph-name="oacute" unicode="&#xf3;" horiz-adv-x="532" 
d="M266 -12q-113 0 -163 64.5t-50 202.5t50 202.5t163 64.5t163 -64.5t50 -202.5t-50 -202.5t-163 -64.5zM266 24q101 0 137 57.5t36 173.5t-36 173.5t-137 57.5t-137 -57.5t-36 -173.5t36 -173.5t137 -57.5zM265 595l-31 4l73 170l44 -4z" />
    <glyph glyph-name="ocircumflex" unicode="&#xf4;" horiz-adv-x="532" 
d="M266 -12q-113 0 -163 64.5t-50 202.5t50 202.5t163 64.5t163 -64.5t50 -202.5t-50 -202.5t-163 -64.5zM266 24q101 0 137 57.5t36 173.5t-36 173.5t-137 57.5t-137 -57.5t-36 -173.5t36 -173.5t137 -57.5zM439 615l-24 -23l-149 113l-149 -113l-24 23l156 124h34z" />
    <glyph glyph-name="otilde" unicode="&#xf5;" horiz-adv-x="532" 
d="M266 -12q-113 0 -163 64.5t-50 202.5t50 202.5t163 64.5t163 -64.5t50 -202.5t-50 -202.5t-163 -64.5zM266 24q101 0 137 57.5t36 173.5t-36 173.5t-137 57.5t-137 -57.5t-36 -173.5t36 -173.5t137 -57.5zM464 649q-53 -59 -125 -59q-34 0 -78 32t-68 32q-57 0 -102 -52
l-22 28q53 59 125 59q34 0 78 -32t68 -32q57 0 102 52z" />
    <glyph glyph-name="odieresis" unicode="&#xf6;" horiz-adv-x="532" 
d="M266 -12q-113 0 -163 64.5t-50 202.5t50 202.5t163 64.5t163 -64.5t50 -202.5t-50 -202.5t-163 -64.5zM266 24q101 0 137 57.5t36 173.5t-36 173.5t-137 57.5t-137 -57.5t-36 -173.5t36 -173.5t137 -57.5zM206 649q0 -28 -29 -28q-28 0 -28 28t28 28q29 0 29 -28z
M384 649q0 -28 -29 -28q-28 0 -28 28t28 28q29 0 29 -28z" />
    <glyph glyph-name="divide" unicode="&#xf7;" 
d="M580 266h-480v39h480v-39zM340 66q-33 0 -33 34t33 34t33 -34t-33 -34zM340 437q-33 0 -33 34t33 34t33 -34t-33 -34z" />
    <glyph glyph-name="oslash" unicode="&#xf8;" horiz-adv-x="532" 
d="M131 -67h-42l44 90q-80 59 -80 232q0 138 50 202.5t163 64.5q57 0 100 -17l36 71h42l-44 -91q79 -59 79 -230q0 -138 -50 -202.5t-163 -64.5q-60 0 -100 17zM266 24q101 1 137 58t36 173t-36 173.5t-137 57.5t-137 -57.5t-36 -173.5t36 -173.5t137 -57.5z" />
    <glyph glyph-name="ugrave" unicode="&#xf9;" horiz-adv-x="518" 
d="M461 2l-35 -6q-15 40 -18 93q-29 -50 -69 -75.5t-106 -25.5q-52 0 -87.5 20t-52 56.5t-22.5 73t-6 83.5v283l40 6v-277q0 -105 27 -157t107 -52q61 0 97.5 29.5t68.5 93.5v357l40 6v-377q0 -73 16 -131zM279 599l-31 -4l-86 170l45 4z" />
    <glyph glyph-name="uacute" unicode="&#xfa;" horiz-adv-x="518" 
d="M461 2l-35 -6q-15 40 -18 93q-29 -50 -69 -75.5t-106 -25.5q-52 0 -87.5 20t-52 56.5t-22.5 73t-6 83.5v283l40 6v-277q0 -105 27 -157t107 -52q61 0 97.5 29.5t68.5 93.5v357l40 6v-377q0 -73 16 -131zM256 595l-31 4l73 170l44 -4z" />
    <glyph glyph-name="ucircumflex" unicode="&#xfb;" horiz-adv-x="518" 
d="M461 2l-35 -6q-15 40 -18 93q-29 -50 -69 -75.5t-106 -25.5q-52 0 -87.5 20t-52 56.5t-22.5 73t-6 83.5v283l40 6v-277q0 -105 27 -157t107 -52q61 0 97.5 29.5t68.5 93.5v357l40 6v-377q0 -73 16 -131zM430 615l-24 -23l-149 113l-149 -113l-24 23l156 124h34z" />
    <glyph glyph-name="udieresis" unicode="&#xfc;" horiz-adv-x="518" 
d="M461 2l-35 -6q-15 40 -18 93q-29 -50 -69 -75.5t-106 -25.5q-52 0 -87.5 20t-52 56.5t-22.5 73t-6 83.5v283l40 6v-277q0 -105 27 -157t107 -52q61 0 97.5 29.5t68.5 93.5v357l40 6v-377q0 -73 16 -131zM195 649q0 -28 -29 -28q-28 0 -28 28t28 28q29 0 29 -28zM373 649
q0 -28 -29 -28q-28 0 -28 28t28 28q29 0 29 -28z" />
    <glyph glyph-name="yacute" unicode="&#xfd;" horiz-adv-x="434" 
d="M103 -163l-19 32q84 42 112 131l-171 506l42 8l151 -471l152 471l39 -9l-162 -486q-44 -134 -144 -182zM218 595l-31 4l73 170l44 -4z" />
    <glyph glyph-name="thorn" unicode="&#xfe;" horiz-adv-x="516" 
d="M113 -154h-40v866l40 6v-296q28 51 66.5 75.5t103.5 24.5q180 0 180 -267q0 -81 -17 -136t-47.5 -82.5t-63.5 -38t-75 -10.5q-76 0 -147 34v-176zM113 62q68 -38 147 -38q36 0 63 9t51 33t36.5 71.5t12.5 117.5q0 114 -33 172.5t-113 58.5q-61 0 -96.5 -29.5t-67.5 -93.5
v-301z" />
    <glyph glyph-name="ydieresis" unicode="&#xff;" horiz-adv-x="434" 
d="M103 -163l-19 32q84 42 112 131l-171 506l42 8l151 -471l152 471l39 -9l-162 -486q-44 -134 -144 -182zM158 649q0 -28 -29 -28q-28 0 -28 28t28 28q29 0 29 -28zM336 649q0 -28 -29 -28q-28 0 -28 28t28 28q29 0 29 -28z" />
    <glyph glyph-name="dotlessi" unicode="&#x131;" horiz-adv-x="196" 
d="M135 0h-40q-17 60 -17 177v327l40 6v-335q0 -115 17 -175z" />
    <glyph glyph-name="Lslash" unicode="&#x141;" horiz-adv-x="521" 
d="M486 0h-391v324l-60 -26v42l60 26v334h41v-316l123 54v-42l-123 -54v-304h350v-38z" />
    <glyph glyph-name="lslash" unicode="&#x142;" horiz-adv-x="332" 
d="M200 0h-40q-17 60 -17 177v185l-103 -45v41l103 45v309l40 6v-297l109 48v-41l-109 -48v-205q0 -115 17 -175z" />
    <glyph glyph-name="OE" unicode="&#x152;" horiz-adv-x="1000" 
d="M945 0h-380v137q-39 -149 -232 -149q-145 0 -209 87t-64 275t64 275t209 87q193 0 232 -149v137h380v-39h-339v-269h280l-5 -39h-275v-314h339v-39zM333 26q70 0 117 22.5t71.5 68t34 100t9.5 133.5t-9.5 133.5t-34 100t-71.5 68t-117 22.5t-117 -22.5t-71.5 -68
t-34 -100t-9.5 -133.5t9.5 -133.5t34 -100t71.5 -68t117 -22.5z" />
    <glyph glyph-name="oe" unicode="&#x153;" horiz-adv-x="889" 
d="M479 258l318 26q-1 110 -40.5 156t-113.5 46q-35 0 -62 -8.5t-51.5 -30.5t-37.5 -67t-13 -112v-10zM266 24q101 0 137 57.5t36 173.5t-36 173.5t-137 57.5t-137 -57.5t-36 -173.5t36 -173.5t137 -57.5zM817 28q-66 -40 -166 -40q-171 0 -192 156q-14 -86 -62 -121
t-131 -35q-113 0 -163 64.5t-50 202.5t50 202.5t163 64.5q83 0 131 -35t62 -121q22 156 184 156q96 0 145.5 -61.5t49.5 -205.5v-4l-358 -29q4 -114 48.5 -156t123.5 -42q82 0 150 38z" />
    <glyph glyph-name="Scaron" unicode="&#x160;" horiz-adv-x="544" 
d="M60 86q98 -60 222 -60q79 0 130 38t51 122q0 27 -11 49t-26 36t-44.5 28t-51 21t-61.5 19q-50 15 -81.5 28t-63 35t-46.5 53.5t-15 74.5q0 94 58.5 138t150.5 44q115 0 190 -41l-16 -35q-71 38 -172 38q-171 0 -171 -143q0 -28 10 -50.5t23.5 -36.5t41 -27.5t47 -20.5
t57.5 -18q32 -10 48.5 -15.5t44.5 -16t42.5 -20t33.5 -24t28.5 -30.5t16.5 -38.5t7 -48.5q0 -101 -61 -149t-159 -48q-145 0 -241 62zM442 886l-156 -124h-34l-156 124l24 23l149 -113l149 113z" />
    <glyph glyph-name="scaron" unicode="&#x161;" horiz-adv-x="431" 
d="M60 68q69 -44 162 -44q56 0 92 26t36 85q0 20 -8 36t-18 25.5t-32.5 19t-36 13.5t-45.5 13q-73 20 -111 51t-38 96q0 67 45 100t113 33q85 0 140 -28l-15 -34q-51 26 -124 26q-120 0 -120 -98q0 -46 30 -68t97 -41q34 -10 51 -15.5t42.5 -18t37.5 -25.5t21.5 -35t9.5 -50
q0 -76 -46 -111.5t-119 -35.5q-111 0 -181 47zM386 722l-156 -124h-34l-156 124l24 23l149 -113l149 113z" />
    <glyph glyph-name="Ydieresis" unicode="&#x178;" horiz-adv-x="545" 
d="M291 0h-41v259l-223 435l41 11l202 -402l202 397h46l-227 -441v-259zM210 821q0 -28 -29 -28q-28 0 -28 28t28 28q29 0 29 -28zM388 821q0 -28 -29 -28q-28 0 -28 28t28 28q29 0 29 -28z" />
    <glyph glyph-name="Zcaron" unicode="&#x17d;" horiz-adv-x="534" 
d="M483 0h-425l-13 39l376 622h-366v39h400l14 -39l-376 -622h396zM442 886l-156 -124h-34l-156 124l24 23l149 -113l149 113z" />
    <glyph glyph-name="zcaron" unicode="&#x17e;" horiz-adv-x="442" 
d="M403 0h-357l-9 36l309 438h-294v36h336l7 -36l-309 -438h321zM397 722l-156 -124h-34l-156 124l24 23l149 -113l149 113z" />
    <glyph glyph-name="florin" unicode="&#x192;" horiz-adv-x="333" 
d="M164 -140h-40v591h-93v37h91q-10 65 -10 81q0 63 31.5 103t100.5 40q33 0 62 -8l-7 -37q-24 8 -56 8q-91 0 -91 -105q0 -35 10 -82h120l-5 -37h-113v-591z" />
    <glyph glyph-name="circumflex" unicode="&#x2c6;" horiz-adv-x="426" 
d="M386 615l-24 -23l-149 113l-149 -113l-24 23l156 124h34z" />
    <glyph glyph-name="caron" unicode="&#x2c7;" horiz-adv-x="426" 
d="M386 722l-156 -124h-34l-156 124l24 23l149 -113l149 113z" />
    <glyph glyph-name="breve" unicode="&#x2d8;" horiz-adv-x="372" 
d="M332 772q-3 -83 -39.5 -132t-106.5 -49t-106.5 49t-39.5 132l35 3q10 -149 111 -149t111 149z" />
    <glyph glyph-name="dotaccent" unicode="&#x2d9;" horiz-adv-x="140" 
d="M70 621q-30 0 -30 28t30 28t30 -28t-30 -28z" />
    <glyph glyph-name="ring" unicode="&#x2da;" horiz-adv-x="307" 
d="M153 622q78 0 78 74q0 73 -78 73q-42 0 -60 -17.5t-18 -55.5t18.5 -56t59.5 -18zM153 591q-114 0 -114 105t114 105t114 -105t-114 -105z" />
    <glyph glyph-name="ogonek" unicode="&#x2db;" horiz-adv-x="213" 
d="M173 -154q-25 -12 -61 -12q-31 0 -51.5 17.5t-20.5 50.5q0 57 60 98h34q-61 -46 -61 -96q0 -42 51 -42q22 0 41 9z" />
    <glyph glyph-name="tilde" unicode="&#x2dc;" horiz-adv-x="475" 
d="M435 649q-53 -59 -125 -59q-34 0 -78 32t-68 32q-57 0 -102 -52l-22 28q53 59 125 59q34 0 78 -32t68 -32q57 0 102 52z" />
    <glyph glyph-name="hungarumlaut" unicode="&#x2dd;" horiz-adv-x="359" 
d="M69 594l-29 10l92 135l44 -6zM212 594l-29 10l91 135l45 -6z" />
    <glyph glyph-name="gravecomb" unicode="&#x300;" horiz-adv-x="1" 
d="M-241 599l-31 -4l-86 170l45 4z" />
    <glyph glyph-name="acutecomb" unicode="&#x301;" horiz-adv-x="1" 
d="M-266 595l-31 4l73 170l44 -4z" />
    <glyph glyph-name="uni0302" unicode="&#x302;" horiz-adv-x="1" 
d="M-92 615l-24 -23l-149 113l-149 -113l-24 23l156 124h34z" />
    <glyph glyph-name="tildecomb" unicode="&#x303;" horiz-adv-x="1" 
d="M-67 649q-53 -59 -125 -59q-34 0 -78 32t-68 32q-57 0 -102 -52l-22 28q53 59 125 59q34 0 78 -32t68 -32q57 0 102 52z" />
    <glyph glyph-name="uni0308" unicode="&#x308;" horiz-adv-x="1" 
d="M-234 649q0 -28 -29 -28q-28 0 -28 28t28 28q29 0 29 -28zM-56 649q0 -28 -29 -28q-28 0 -28 28t28 28q29 0 29 -28z" />
    <glyph glyph-name="uni030A" unicode="&#x30a;" horiz-adv-x="1" 
d="M-153 623q78 0 78 74q0 73 -78 73q-42 0 -60 -17.5t-18 -55.5t18.5 -56t59.5 -18zM-153 592q-114 0 -114 105t114 105t114 -105t-114 -105z" />
    <glyph glyph-name="uni030C" unicode="&#x30c;" horiz-adv-x="1" 
d="M-44 722l-156 -124h-34l-156 124l24 23l149 -113l149 113z" />
    <glyph glyph-name="uni0394" unicode="&#x394;" horiz-adv-x="673" 
d="M590 0h-507l-13 39l246 666h40l247 -666zM557 39l-221 608l-223 -608h444z" />
    <glyph glyph-name="uni03A9" unicode="&#x3a9;" horiz-adv-x="760" 
d="M690 0h-234v39q56 28 88.5 62t50 94.5t17.5 154.5q0 79 -9.5 133.5t-34 100t-71.5 68t-117 22.5t-117 -22.5t-71.5 -68t-34 -100t-9.5 -133.5q0 -94 17.5 -154.5t50 -94.5t88.5 -62v-39h-234v39h169q-76 44 -104 121.5t-28 189.5q0 188 64 275t209 87t209 -87t64 -275
q0 -112 -28 -189.5t-104 -121.5h169v-39z" />
    <glyph glyph-name="uni03BC" unicode="&#x3bc;" horiz-adv-x="526" 
d="M469 2l-35 -6q-15 40 -18 93q-29 -50 -69 -75.5t-106 -25.5q-102 0 -128 72v-214h-40v658l40 6v-277q0 -105 27 -157t107 -52q61 0 97.5 29.5t68.5 93.5v357l40 6v-377q0 -73 16 -131z" />
    <glyph glyph-name="pi" unicode="&#x3c0;" horiz-adv-x="723" 
d="M610 14l-28 -26q-55 45 -71 100.5t-16 167.5v215h-272v-471h-40v471h-113v39h583l-5 -39h-113v-234q0 -88 12.5 -135.5t62.5 -87.5z" />
    <glyph glyph-name="uni2007" unicode="&#x2007;" horiz-adv-x="616" 
 />
    <glyph glyph-name="uni2008" unicode="&#x2008;" horiz-adv-x="206" 
 />
    <glyph glyph-name="uni200B" unicode="&#x200b;" horiz-adv-x="0" 
 />
    <glyph glyph-name="endash" unicode="&#x2013;" horiz-adv-x="574" 
d="M505 266h-435v39h435v-39z" />
    <glyph glyph-name="emdash" unicode="&#x2014;" horiz-adv-x="701" 
d="M632 266h-562v39h562v-39z" />
    <glyph glyph-name="quoteleft" unicode="&#x2018;" horiz-adv-x="194" 
d="M84 405l-45 -2l84 315h32z" />
    <glyph glyph-name="quoteright" unicode="&#x2019;" horiz-adv-x="194" 
d="M71 404h-32l71 313l45 2z" />
    <glyph glyph-name="quotesinglbase" unicode="&#x201a;" horiz-adv-x="194" 
d="M71 -140h-32l71 313l45 2z" />
    <glyph glyph-name="quotedblleft" unicode="&#x201c;" horiz-adv-x="315" 
d="M205 405l-45 -2l84 315h32zM84 405l-45 -2l84 315h32z" />
    <glyph glyph-name="quotedblright" unicode="&#x201d;" horiz-adv-x="315" 
d="M71 403h-32l71 313l45 2zM192 403h-32l71 313l45 2z" />
    <glyph glyph-name="quotedblbase" unicode="&#x201e;" horiz-adv-x="315" 
d="M71 -140h-32l71 313l45 2zM192 -140h-32l71 313l45 2z" />
    <glyph glyph-name="dagger" unicode="&#x2020;" horiz-adv-x="518" 
d="M282 0h-44q0 147 2 443q-62 -1 -185 -1v38q12 0 43 -0.5t76 -1.5t66 -1q-2 148 -2 223l43 3q0 -1 -3 -226q184 3 185 3v-38q-121 0 -185 1q0 -71 2 -242t2 -201z" />
    <glyph glyph-name="daggerdbl" unicode="&#x2021;" horiz-adv-x="518" 
d="M282 0h-44q1 21 1.5 109t0.5 123q-184 -3 -185 -3v38q123 0 185 -1v177q-62 -1 -185 -1v38q12 0 43 -0.5t76 -1.5t66 -1q-2 148 -2 223l43 3q0 -1 -3 -226q184 3 185 3v-38q-121 0 -185 1v-177q62 1 185 1v-38q-6 0 -185 3q0 -38 2 -128t2 -104z" />
    <glyph glyph-name="bullet" unicode="&#x2022;" horiz-adv-x="241" 
d="M121 260q-64 0 -64 64t64 64q63 0 63 -64t-63 -64z" />
    <glyph glyph-name="ellipsis" unicode="&#x2026;" horiz-adv-x="501" 
d="M98 -4q-33 0 -33 34t33 34t33 -34t-33 -34zM250 -4q-33 0 -33 34t33 34t33 -34t-33 -34zM403 -4q-33 0 -33 34t33 34t33 -34t-33 -34z" />
    <glyph glyph-name="perthousand" unicode="&#x2030;" horiz-adv-x="1402" 
d="M239 283q84 0 114.5 50t30.5 148t-30.5 148t-114.5 50t-114.5 -50t-30.5 -148t30.5 -148t114.5 -50zM239 250q-96 0 -138.5 56t-42.5 175t42.5 175t138.5 56t138.5 -56t42.5 -175t-42.5 -175t-138.5 -56zM739 21q84 0 114.5 50t30.5 148t-30.5 148t-114.5 50t-114.5 -50
t-30.5 -148t30.5 -148t114.5 -50zM739 -12q-96 0 -138.5 56t-42.5 175t42.5 175t138.5 56t138.5 -56t42.5 -175t-42.5 -175t-138.5 -56zM653 695l-299 -702l-33 11l299 702zM1163 21q84 0 114.5 50t30.5 148t-30.5 148t-114.5 50t-114.5 -50t-30.5 -148t30.5 -148t114.5 -50
zM1163 -12q-96 0 -138.5 56t-42.5 175t42.5 175t138.5 56t138.5 -56t42.5 -175t-42.5 -175t-138.5 -56z" />
    <glyph glyph-name="guilsinglleft" unicode="&#x2039;" horiz-adv-x="398" 
d="M319 67l-261 190v35l261 190l22 -31l-248 -176l248 -178z" />
    <glyph glyph-name="guilsinglright" unicode="&#x203a;" horiz-adv-x="398" 
d="M80 67l-22 30l248 178l-248 176l22 31l261 -190v-35z" />
    <glyph glyph-name="fraction" unicode="&#x2044;" horiz-adv-x="114" 
d="M222 694l-299 -700l-30 12l299 700z" />
    <glyph glyph-name="uni2070" unicode="&#x2070;" horiz-adv-x="398" 
d="M199 330q30 0 51 10.5t31.5 24.5t16.5 40t7 45.5t1 51.5q0 33 -1 52.5t-7 45.5t-16.5 40t-31.5 24.5t-51 10.5t-51 -10.5t-31.5 -24.5t-16.5 -40t-7 -45.5t-1 -52.5q0 -41 2.5 -64.5t12 -52t32.5 -42t60 -13.5zM199 298q-76 0 -108.5 49t-32.5 155q0 107 32.5 156
t108.5 49t108.5 -49t32.5 -156q0 -106 -32.5 -155t-108.5 -49z" />
    <glyph glyph-name="uni2074" unicode="&#x2074;" horiz-adv-x="366" 
d="M263 305h-34v107h-171l-9 31q58 92 62 258l36 -4q-11 -169 -60 -254h142v157l34 7v-164h55v-31h-55v-107z" />
    <glyph glyph-name="uni2075" unicode="&#x2075;" horiz-adv-x="359" 
d="M63 359q48 -29 110 -29q53 0 77.5 22.5t24.5 71.5q0 90 -96 90q-54 0 -101 -22l-17 35l19 173h198v-32h-168l-16 -137q32 15 87 15t92 -28.5t37 -94.5q0 -125 -133 -125q-79 0 -128 30z" />
    <glyph glyph-name="uni2076" unicode="&#x2076;" horiz-adv-x="382" 
d="M199 330q98 0 98 112q0 97 -91 97q-83 0 -115 -59v-5q0 -76 24.5 -110.5t83.5 -34.5zM199 298q-77 0 -110 49t-33 155q0 205 139 205q67 0 105 -23l-14 -30q-34 21 -86 21q-34 0 -57 -14q-23 -13 -38 -51t-15 -84q39 45 116 45q58 0 91.5 -33t33.5 -96q0 -144 -132 -144z
" />
    <glyph glyph-name="uni2077" unicode="&#x2077;" horiz-adv-x="332" 
d="M153 305h-34q5 121 31.5 209.5t90.5 153.5h-192v32h230l7 -32q-75 -57 -102.5 -148.5t-30.5 -214.5z" />
    <glyph glyph-name="uni2078" unicode="&#x2078;" horiz-adv-x="381" 
d="M253 500q33 -8 53 -33t20 -60q0 -50 -34.5 -79.5t-100.5 -29.5q-68 0 -103 32.5t-35 83.5q0 31 18 57t54 39q-62 17 -62 90q0 46 32.5 76.5t95.5 30.5q62 0 95 -32.5t33 -78.5q0 -71 -66 -96zM155 494q-67 -21 -67 -79q0 -40 26 -62.5t77 -22.5q49 0 74.5 19.5t25.5 54.5
q0 18 -6.5 31.5t-16 21.5t-25.5 14.5t-28 9.5t-31.5 7t-28.5 6zM222 514q62 24 62 79q0 36 -23.5 59t-69.5 23q-47 0 -70 -20.5t-23 -55.5q0 -20 6 -34t21.5 -22.5t25 -12t36.5 -9t35 -7.5z" />
    <glyph glyph-name="uni2079" unicode="&#x2079;" horiz-adv-x="382" 
d="M183 675q-98 0 -98 -112q0 -97 91 -97q83 0 115 59v5q0 76 -24.5 110.5t-83.5 34.5zM187 298q-67 0 -105 23l14 30q34 -21 86 -21q34 0 57 14q23 13 38 51t15 84q-39 -45 -116 -45q-58 0 -91.5 33t-33.5 96q0 144 132 144q77 0 110 -49t33 -155q0 -205 -139 -205z" />
    <glyph glyph-name="uni2080" unicode="&#x2080;" horiz-adv-x="398" 
d="M199 -172q30 0 51 10.5t31.5 24.5t16.5 40t7 45.5t1 51.5q0 33 -1 52.5t-7 45.5t-16.5 40t-31.5 24.5t-51 10.5t-51 -10.5t-31.5 -24.5t-16.5 -40t-7 -45.5t-1 -52.5q0 -41 2.5 -64.5t12 -52t32.5 -42t60 -13.5zM199 -204q-76 0 -108.5 49t-32.5 155q0 107 32.5 156
t108.5 49t108.5 -49t32.5 -156q0 -106 -32.5 -155t-108.5 -49z" />
    <glyph glyph-name="uni2081" unicode="&#x2081;" horiz-adv-x="206" 
d="M121 -197h-34v389l34 6v-395z" />
    <glyph glyph-name="uni2082" unicode="&#x2082;" horiz-adv-x="350" 
d="M289 -197h-231l-8 32q106 71 155.5 130t49.5 126q0 41 -26.5 61.5t-68.5 20.5q-57 0 -97 -27l-15 30q50 29 116 29q62 0 94 -31t32 -81q0 -71 -47 -132t-139 -126h185v-32z" />
    <glyph glyph-name="uni2083" unicode="&#x2083;" horiz-adv-x="360" 
d="M66 -144q43 -28 113 -28q44 0 72 23.5t28 68.5q0 88 -104 88q-3 0 -9 -0.5t-9 -0.5l-31 -2l-12 32l136 129h-192v32h230l9 -32l-137 -129q4 0 10 0.5t9 0.5q68 0 101.5 -32t33.5 -88q0 -55 -35 -88.5t-99 -33.5q-82 0 -131 31z" />
    <glyph glyph-name="uni2084" unicode="&#x2084;" horiz-adv-x="366" 
d="M263 -197h-34v107h-171l-9 31q58 92 62 258l36 -4q-11 -169 -60 -254h142v157l34 7v-164h55v-31h-55v-107z" />
    <glyph glyph-name="uni2085" unicode="&#x2085;" horiz-adv-x="359" 
d="M63 -143q48 -29 110 -29q53 0 77.5 22.5t24.5 71.5q0 90 -96 90q-54 0 -101 -22l-17 35l19 173h198v-32h-168l-16 -137q32 15 87 15t92 -28.5t37 -94.5q0 -125 -133 -125q-79 0 -128 30z" />
    <glyph glyph-name="uni2086" unicode="&#x2086;" horiz-adv-x="382" 
d="M199 -172q98 0 98 112q0 97 -91 97q-83 0 -115 -59v-5q0 -76 24.5 -110.5t83.5 -34.5zM199 -204q-77 0 -110 49t-33 155q0 205 139 205q67 0 105 -23l-14 -30q-34 21 -86 21q-34 0 -57 -14q-23 -13 -38 -51t-15 -84q39 45 116 45q58 0 91.5 -33t33.5 -96
q0 -144 -132 -144z" />
    <glyph glyph-name="uni2087" unicode="&#x2087;" horiz-adv-x="332" 
d="M153 -197h-34q5 121 31.5 209.5t90.5 153.5h-192v32h230l7 -32q-75 -57 -102.5 -148.5t-30.5 -214.5z" />
    <glyph glyph-name="uni2088" unicode="&#x2088;" horiz-adv-x="381" 
d="M253 -2q33 -8 53 -33t20 -60q0 -50 -34.5 -79.5t-100.5 -29.5q-68 0 -103 32.5t-35 83.5q0 31 18 57t54 39q-62 17 -62 90q0 46 32.5 76.5t95.5 30.5q62 0 95 -32.5t33 -78.5q0 -71 -66 -96zM155 -8q-67 -21 -67 -79q0 -40 26 -62.5t77 -22.5q49 0 74.5 19.5t25.5 54.5
q0 18 -6.5 31.5t-16 21.5t-25.5 14.5t-28 9.5t-31.5 7t-28.5 6zM222 12q62 24 62 79q0 36 -23.5 59t-69.5 23q-47 0 -70 -20.5t-23 -55.5q0 -20 6 -34t21.5 -22.5t25 -12t36.5 -9t35 -7.5z" />
    <glyph glyph-name="uni2089" unicode="&#x2089;" horiz-adv-x="382" 
d="M183 173q-98 0 -98 -112q0 -97 91 -97q83 0 115 59v5q0 76 -24.5 110.5t-83.5 34.5zM187 -204q-67 0 -105 23l14 30q34 -21 86 -21q34 0 57 14q23 13 38 51t15 84q-39 -45 -116 -45q-58 0 -91.5 33t-33.5 96q0 144 132 144q77 0 110 -49t33 -155q0 -205 -139 -205z" />
    <glyph glyph-name="Euro" unicode="&#x20ac;" horiz-adv-x="563" 
d="M399 269h-241q8 -125 55.5 -184t144.5 -59q79 0 131 33l17 -35q-56 -36 -150 -36q-113 0 -170.5 69t-68.5 212h-74v34h72q-1 15 -1 47q0 34 1 51h-72v34h74q4 61 18 108t40.5 86.5t72.5 61t109 21.5q92 0 149 -35l-19 -34q-53 31 -128 31q-94 0 -144 -58t-57 -181h241
v-34h-243q-1 -17 -1 -51q0 -32 1 -47h243v-34z" />
    <glyph glyph-name="trademark" unicode="&#x2122;" horiz-adv-x="652" 
d="M179 399h-28v275h-103v26h234v-26h-103v-275zM584 400l-29 -3l-16 245l-80 -243h-26l-86 243l-14 -243h-30l23 301h30l90 -255l84 255h31z" />
    <glyph glyph-name="Omega" unicode="&#x2126;" horiz-adv-x="760" 
d="M690 0h-234v39q56 28 88.5 62t50 94.5t17.5 154.5q0 79 -9.5 133.5t-34 100t-71.5 68t-117 22.5t-117 -22.5t-71.5 -68t-34 -100t-9.5 -133.5q0 -94 17.5 -154.5t50 -94.5t88.5 -62v-39h-234v39h169q-76 44 -104 121.5t-28 189.5q0 188 64 275t209 87t209 -87t64 -275
q0 -112 -28 -189.5t-104 -121.5h169v-39z" />
    <glyph glyph-name="partialdiff" unicode="&#x2202;" horiz-adv-x="566" 
d="M283 -14q-113 0 -163 64.5t-50 202.5t50 202.5t163 64.5q61 0 98.5 -18.5t64.5 -62.5q-25 99 -88 166.5t-158 92.5l10 32q286 -78 286 -460v-17q0 -138 -50 -202.5t-163 -64.5zM283 22q101 0 137 57.5t36 173.5t-36 173.5t-137 57.5t-137 -57.5t-36 -173.5t36 -173.5
t137 -57.5z" />
    <glyph glyph-name="Delta" unicode="&#x2206;" horiz-adv-x="673" 
d="M590 0h-507l-13 39l246 666h40l247 -666zM557 39l-221 608l-223 -608h444z" />
    <glyph glyph-name="product" unicode="&#x220f;" horiz-adv-x="595" 
d="M522 -140h-41v801h-367v-801h-41v840h449v-840z" />
    <glyph glyph-name="summation" unicode="&#x2211;" horiz-adv-x="551" 
d="M481 -140h-401l-10 38l274 382l-274 382l10 38h401v-39h-357l261 -366v-30l-261 -366h357v-39z" />
    <glyph glyph-name="minus" unicode="&#x2212;" 
d="M580 266h-480v39h480v-39z" />
    <glyph glyph-name="uni2219" unicode="&#x2219;" 
d="M340 221q-64 0 -64 64t64 64q63 0 63 -64t-63 -64z" />
    <glyph glyph-name="radical" unicode="&#x221a;" horiz-adv-x="752" 
d="M408 -140h-40l-134 406h-164v39h194l124 -387l252 784l42 -6z" />
    <glyph glyph-name="infinity" unicode="&#x221e;" horiz-adv-x="868" 
d="M434 236q-20 -58 -67.5 -94.5t-105.5 -36.5q-83 0 -136.5 46.5t-53.5 133.5t53.5 134t136.5 47q58 0 105 -37t68 -95q25 62 69.5 97t103.5 35q83 0 136.5 -47t53.5 -134t-53.5 -133.5t-136.5 -46.5q-61 0 -106.5 35.5t-66.5 95.5zM452 285q17 -69 57.5 -107t97.5 -38
q66 0 109.5 38t43.5 107q0 70 -43 108t-110 38q-54 0 -96 -40t-59 -106zM416 285q-14 64 -57.5 105t-97.5 41q-67 0 -110 -38t-43 -108q0 -69 43.5 -107t109.5 -38q57 0 99.5 41t55.5 104z" />
    <glyph glyph-name="integral" unicode="&#x222b;" horiz-adv-x="396" 
d="M70 -101h34q45 0 59.5 20t14.5 66v590q0 65 25.5 95t88.5 30h34v-39h-34q-45 0 -59.5 -20t-14.5 -66v-590q0 -65 -25.5 -95t-88.5 -30h-34v39z" />
    <glyph glyph-name="approxequal" unicode="&#x2248;" 
d="M579 372q-66 -33 -129 -33q-45 0 -112.5 24t-108.5 24q-52 0 -128 -38v43q68 34 128 34q47 0 113.5 -24t107.5 -24q55 0 129 37v-43zM579 177q-66 -33 -129 -33q-45 0 -112.5 24t-108.5 24q-52 0 -128 -38v43q68 34 128 34q47 0 113.5 -24t107.5 -24q55 0 129 37v-43z
" />
    <glyph glyph-name="notequal" unicode="&#x2260;" 
d="M580 168h-260l-35 -121h-40l35 121h-180v39h191l45 156h-236v39h247l29 99h40l-29 -99h193v-39h-204l-45 -156h249v-39z" />
    <glyph glyph-name="lessequal" unicode="&#x2264;" 
d="M561 93l-461 197v34l461 197l18 -39l-431 -175l431 -176zM580 0h-480v39h480v-39z" />
    <glyph glyph-name="greaterequal" unicode="&#x2265;" 
d="M580 290l-461 -197l-18 38l431 176l-431 175l18 39l461 -197v-34zM580 0h-480v39h480v-39z" />
    <glyph glyph-name="dotmath" unicode="&#x22c5;" 
d="M340 252q-33 0 -33 34t33 34t33 -34t-33 -34z" />
    <glyph glyph-name="lozenge" unicode="&#x25ca;" horiz-adv-x="668" 
d="M349 -5h-29l-250 355l249 355h29l250 -355zM334 42l215 308l-215 308l-215 -308z" />
    <glyph glyph-name="zero.numr" horiz-adv-x="398" 
d="M199 330q30 0 51 10.5t31.5 24.5t16.5 40t7 45.5t1 51.5q0 33 -1 52.5t-7 45.5t-16.5 40t-31.5 24.5t-51 10.5t-51 -10.5t-31.5 -24.5t-16.5 -40t-7 -45.5t-1 -52.5q0 -41 2.5 -64.5t12 -52t32.5 -42t60 -13.5zM199 298q-76 0 -108.5 49t-32.5 155q0 107 32.5 156
t108.5 49t108.5 -49t32.5 -156q0 -106 -32.5 -155t-108.5 -49z" />
    <glyph glyph-name="one.numr" horiz-adv-x="206" 
d="M121 305h-34v389l34 6v-395z" />
    <glyph glyph-name="two.numr" horiz-adv-x="350" 
d="M289 305h-231l-8 32q106 71 155.5 130t49.5 126q0 41 -26.5 61.5t-68.5 20.5q-57 0 -97 -27l-15 30q50 29 116 29q62 0 94 -31t32 -81q0 -71 -47 -132t-139 -126h185v-32z" />
    <glyph glyph-name="three.numr" horiz-adv-x="360" 
d="M66 358q43 -28 113 -28q44 0 72 23.5t28 68.5q0 88 -104 88q-3 0 -9 -0.5t-9 -0.5l-31 -2l-12 32l136 129h-192v32h230l9 -32l-137 -129q4 0 10 0.5t9 0.5q68 0 101.5 -32t33.5 -88q0 -55 -35 -88.5t-99 -33.5q-82 0 -131 31z" />
    <glyph glyph-name="four.numr" horiz-adv-x="366" 
d="M263 305h-34v107h-171l-9 31q58 92 62 258l36 -4q-11 -169 -60 -254h142v157l34 7v-164h55v-31h-55v-107z" />
    <glyph glyph-name="five.numr" horiz-adv-x="359" 
d="M63 359q48 -29 110 -29q53 0 77.5 22.5t24.5 71.5q0 90 -96 90q-54 0 -101 -22l-17 35l19 173h198v-32h-168l-16 -137q32 15 87 15t92 -28.5t37 -94.5q0 -125 -133 -125q-79 0 -128 30z" />
    <glyph glyph-name="six.numr" horiz-adv-x="382" 
d="M199 330q98 0 98 112q0 97 -91 97q-83 0 -115 -59v-5q0 -76 24.5 -110.5t83.5 -34.5zM199 298q-77 0 -110 49t-33 155q0 205 139 205q67 0 105 -23l-14 -30q-34 21 -86 21q-34 0 -57 -14q-23 -13 -38 -51t-15 -84q39 45 116 45q58 0 91.5 -33t33.5 -96q0 -144 -132 -144z
" />
    <glyph glyph-name="seven.numr" horiz-adv-x="332" 
d="M153 305h-34q5 121 31.5 209.5t90.5 153.5h-192v32h230l7 -32q-75 -57 -102.5 -148.5t-30.5 -214.5z" />
    <glyph glyph-name="eight.numr" horiz-adv-x="381" 
d="M253 500q33 -8 53 -33t20 -60q0 -50 -34.5 -79.5t-100.5 -29.5q-68 0 -103 32.5t-35 83.5q0 31 18 57t54 39q-62 17 -62 90q0 46 32.5 76.5t95.5 30.5q62 0 95 -32.5t33 -78.5q0 -71 -66 -96zM155 494q-67 -21 -67 -79q0 -40 26 -62.5t77 -22.5q49 0 74.5 19.5t25.5 54.5
q0 18 -6.5 31.5t-16 21.5t-25.5 14.5t-28 9.5t-31.5 7t-28.5 6zM222 514q62 24 62 79q0 36 -23.5 59t-69.5 23q-47 0 -70 -20.5t-23 -55.5q0 -20 6 -34t21.5 -22.5t25 -12t36.5 -9t35 -7.5z" />
    <glyph glyph-name="nine.numr" horiz-adv-x="382" 
d="M183 675q-98 0 -98 -112q0 -97 91 -97q83 0 115 59v5q0 76 -24.5 110.5t-83.5 34.5zM187 298q-67 0 -105 23l14 30q34 -21 86 -21q34 0 57 14q23 13 38 51t15 84q-39 -45 -116 -45q-58 0 -91.5 33t-33.5 96q0 144 132 144q77 0 110 -49t33 -155q0 -205 -139 -205z" />
    <glyph glyph-name="zero.dnom" horiz-adv-x="398" 
d="M199 25q30 0 51 10.5t31.5 24.5t16.5 40t7 45.5t1 51.5q0 33 -1 52.5t-7 45.5t-16.5 40t-31.5 24.5t-51 10.5t-51 -10.5t-31.5 -24.5t-16.5 -40t-7 -45.5t-1 -52.5q0 -41 2.5 -64.5t12 -52t32.5 -42t60 -13.5zM199 -7q-76 0 -108.5 49t-32.5 155q0 107 32.5 156t108.5 49
t108.5 -49t32.5 -156q0 -106 -32.5 -155t-108.5 -49z" />
    <glyph glyph-name="one.dnom" horiz-adv-x="206" 
d="M121 0h-34v389l34 6v-395z" />
    <glyph glyph-name="two.dnom" horiz-adv-x="350" 
d="M289 0h-231l-8 32q106 71 155.5 130t49.5 126q0 41 -26.5 61.5t-68.5 20.5q-57 0 -97 -27l-15 30q50 29 116 29q62 0 94 -31t32 -81q0 -71 -47 -132t-139 -126h185v-32z" />
    <glyph glyph-name="three.dnom" horiz-adv-x="360" 
d="M66 53q43 -28 113 -28q44 0 72 23.5t28 68.5q0 88 -104 88q-3 0 -9 -0.5t-9 -0.5l-31 -2l-12 32l136 129h-192v32h230l9 -32l-137 -129q4 0 10 0.5t9 0.5q68 0 101.5 -32t33.5 -88q0 -55 -35 -88.5t-99 -33.5q-82 0 -131 31z" />
    <glyph glyph-name="four.dnom" horiz-adv-x="366" 
d="M263 0h-34v107h-171l-9 31q58 92 62 258l36 -4q-11 -169 -60 -254h142v157l34 7v-164h55v-31h-55v-107z" />
    <glyph glyph-name="five.dnom" horiz-adv-x="359" 
d="M63 54q48 -29 110 -29q53 0 77.5 22.5t24.5 71.5q0 90 -96 90q-54 0 -101 -22l-17 35l19 173h198v-32h-168l-16 -137q32 15 87 15t92 -28.5t37 -94.5q0 -125 -133 -125q-79 0 -128 30z" />
    <glyph glyph-name="six.dnom" horiz-adv-x="382" 
d="M199 25q98 0 98 112q0 97 -91 97q-83 0 -115 -59v-5q0 -76 24.5 -110.5t83.5 -34.5zM199 -7q-77 0 -110 49t-33 155q0 205 139 205q67 0 105 -23l-14 -30q-34 21 -86 21q-34 0 -57 -14q-23 -13 -38 -51t-15 -84q39 45 116 45q58 0 91.5 -33t33.5 -96q0 -144 -132 -144z
" />
    <glyph glyph-name="seven.dnom" horiz-adv-x="332" 
d="M153 0h-34q5 121 31.5 209.5t90.5 153.5h-192v32h230l7 -32q-75 -57 -102.5 -148.5t-30.5 -214.5z" />
    <glyph glyph-name="eight.dnom" horiz-adv-x="381" 
d="M253 195q33 -8 53 -33t20 -60q0 -50 -34.5 -79.5t-100.5 -29.5q-68 0 -103 32.5t-35 83.5q0 31 18 57t54 39q-62 17 -62 90q0 46 32.5 76.5t95.5 30.5q62 0 95 -32.5t33 -78.5q0 -71 -66 -96zM155 189q-67 -21 -67 -79q0 -40 26 -62.5t77 -22.5q49 0 74.5 19.5t25.5 54.5
q0 18 -6.5 31.5t-16 21.5t-25.5 14.5t-28 9.5t-31.5 7t-28.5 6zM222 209q62 24 62 79q0 36 -23.5 59t-69.5 23q-47 0 -70 -20.5t-23 -55.5q0 -20 6 -34t21.5 -22.5t25 -12t36.5 -9t35 -7.5z" />
    <glyph glyph-name="nine.dnom" horiz-adv-x="382" 
d="M183 370q-98 0 -98 -112q0 -97 91 -97q83 0 115 59v5q0 76 -24.5 110.5t-83.5 34.5zM187 -7q-67 0 -105 23l14 30q34 -21 86 -21q34 0 57 14q23 13 38 51t15 84q-39 -45 -116 -45q-58 0 -91.5 33t-33.5 96q0 144 132 144q77 0 110 -49t33 -155q0 -205 -139 -205z" />
    <glyph glyph-name="numbersign.tf" 
d="M377 0h-41l36 185h-129l-36 -185h-41l35 185h-147l7 37h147l50 256h-147l8 37h146l36 185h42l-36 -185h129l36 185h41l-36 -185h149l-8 -37h-148l-50 -256h148l-7 -37h-148zM379 222l50 256h-129l-50 -256h129z" />
    <glyph glyph-name="dollar.tf" 
d="M359 -117h-36v106q-139 6 -237 62l19 33q108 -58 246 -58q89 0 146 38t57 122q0 26 -12.5 47.5t-29.5 35.5t-49.5 27.5t-58 21.5t-69.5 20q-111 29 -168 70t-57 122q0 90 59 134t154 47v106h36v-105q111 -3 188 -42l-17 -34q-82 38 -188 38q-192 0 -192 -143
q0 -28 12 -50.5t27.5 -36.5t46 -28t52 -21t60.5 -18q33 -9 45.5 -13t42.5 -13t43 -16t36 -19t33.5 -24t23 -28t17.5 -36t5 -43q0 -99 -65 -147t-170 -50v-105z" />
    <glyph glyph-name="zero.tf" 
d="M340 -12q-145 0 -209 87t-64 275t64 275t209 87q144 0 208 -87t64 -275t-64 -275t-208 -87zM340 26q70 0 117 22.5t71 68t33.5 100t9.5 133.5t-9.5 133.5t-33.5 100t-71 68t-117 22.5t-117 -22.5t-71.5 -68t-34 -100t-9.5 -133.5t9.5 -133.5t34 -100t71.5 -68t117 -22.5z
" />
    <glyph glyph-name="one.tf" 
d="M397 700v-661h184v-39h-433v39h208v611l-206 -30l-7 37z" />
    <glyph glyph-name="two.tf" 
d="M581 0h-476l-10 39q204 127 308.5 238t104.5 232q0 85 -54.5 124.5t-143.5 39.5q-118 0 -201 -46l-19 34q98 51 227 51q114 0 174 -55t60 -144q0 -126 -97.5 -238.5t-294.5 -235.5h422v-39z" />
    <glyph glyph-name="three.tf" 
d="M342 -12q-150 0 -250 52l19 35q98 -48 225 -48q98 0 155.5 44.5t57.5 137.5q0 78 -59.5 121t-163.5 43q-21 0 -32 -1l-60 -4l-15 40l281 253h-396v39h441l11 -39l-286 -256q30 3 55 3q128 0 197.5 -56t69.5 -146q0 -98 -64 -158t-186 -60z" />
    <glyph glyph-name="four.tf" 
d="M474 0h-41v201h-344l-13 35q116 177 126 467l43 -6q-16 -283 -123 -457h311v294l41 8v-302h142v-39h-142v-201z" />
    <glyph glyph-name="five.tf" 
d="M339 -12q-150 0 -248 52l20 36q100 -49 224 -49q108 0 161 48.5t53 134.5q0 174 -216 174q-87 0 -191 -32l-23 36l35 312h375v-39h-340l-30 -265q82 26 180 26q117 0 184.5 -54.5t67.5 -160.5q0 -100 -63.5 -159.5t-188.5 -59.5z" />
    <glyph glyph-name="six.tf" 
d="M121 363q86 106 251 106q107 0 173.5 -59.5t66.5 -165.5q0 -115 -62.5 -185.5t-193.5 -70.5q-146 0 -210 87t-64 275q0 181 70 271.5t197 90.5q120 0 195 -41l-19 -33q-66 36 -172 36q-117 0 -174.5 -80.5t-57.5 -230.5zM124 310q2 -148 56 -216t176 -68q215 0 215 218
q0 84 -52.5 135.5t-146.5 51.5q-84 0 -143 -27.5t-105 -93.5z" />
    <glyph glyph-name="seven.tf" 
d="M296 0h-44q5 197 80 366t218 296h-453v38h496l10 -38q-302 -239 -307 -662z" />
    <glyph glyph-name="eight.tf" 
d="M455 342q65 -17 105 -57.5t40 -101.5q0 -88 -66 -141.5t-192 -53.5t-194 58.5t-68 147.5q0 126 145 170q-62 17 -95.5 59t-33.5 104q0 80 64 132.5t182 52.5q117 0 181.5 -57t64.5 -138q0 -127 -133 -175zM272 342q-150 -35 -150 -147q0 -74 56.5 -121.5t163.5 -47.5
t161.5 40.5t54.5 110.5q0 35 -13.5 60.5t-39.5 41.5t-53.5 25.5t-66.5 17.5q-62 12 -113 20zM409 360q137 46 137 154q0 68 -52 114t-152 46q-101 0 -152.5 -41.5t-51.5 -107.5q0 -116 151 -143z" />
    <glyph glyph-name="nine.tf" 
d="M155 62q66 -36 172 -36q117 0 174.5 80.5t57.5 230.5q-86 -106 -251 -106q-107 0 -173.5 59.5t-66.5 165.5q0 115 62.5 185.5t193.5 70.5q146 0 210 -87t64 -275q0 -181 -70 -271.5t-197 -90.5q-120 0 -195 41zM556 390q-2 148 -56 216t-176 68q-215 0 -215 -218
q0 -84 52.5 -135.5t146.5 -51.5q84 0 143 27.5t105 93.5z" />
    <glyph glyph-name="cent.tf" 
d="M389 -112h-35v102q-105 7 -152 72t-47 193t47 192t152 73v102h35v-100q79 0 133 -26l-16 -36q-51 24 -116 24q-114 0 -154.5 -56.5t-40.5 -172.5t40.5 -172.5t154.5 -56.5q65 0 116 24l16 -36q-54 -26 -133 -26v-100z" />
    <glyph glyph-name="sterling.tf" 
d="M588 0h-442l-11 39q75 82 75 196q0 43 -10 96h-109v38h102l-10 45q-18 77 -18 131q0 84 60 125.5t154 41.5q110 0 192 -45l-22 -33q-77 40 -166 40q-178 0 -178 -131q0 -47 17 -126l10 -48h226v-38h-219q10 -57 10 -100q0 -113 -68 -192h407v-39z" />
    <glyph glyph-name="yen.tf" 
d="M358 0h-41v161h-184v34h184v83h-184v34h167l-230 382l41 11l226 -382l227 377h46l-235 -388h171v-34h-188v-83h188v-34h-188v-161z" />
    <glyph glyph-name="section.tf" 
d="M167 -78q71 -37 171 -37q169 0 169 117q0 28 -13 48.5t-38.5 33.5t-54 22.5t-66.5 19.5q-6 1 -9 2q-40 11 -63.5 18t-56.5 22t-51 31.5t-31.5 42.5t-13.5 58q0 99 89 142q-68 40 -68 120q0 77 59.5 113.5t145.5 36.5q119 0 196 -40l-20 -34q-71 37 -171 37
q-169 0 -169 -117q0 -28 13 -48.5t38.5 -33.5t54 -22.5t66.5 -19.5q6 -1 9 -2q40 -11 63.5 -18t56.5 -22t51 -31.5t31.5 -42.5t13.5 -58q0 -99 -89 -142q68 -40 68 -120q0 -77 -59.5 -113.5t-145.5 -36.5q-119 0 -196 40zM440 137q40 12 65 42t25 75q0 26 -12 47t-26 33.5
t-45.5 25t-48 17.5t-55.5 15q-80 21 -104 31q-40 -12 -65 -42t-25 -75q0 -26 12 -47t26 -33.5t45.5 -25t48 -17.5t55.5 -15q80 -21 104 -31z" />
    <glyph glyph-name="uni2007.tf" 
 />
    <glyph glyph-name="Euro.tf" 
d="M469 269h-268q11 -127 64 -185.5t161 -58.5q89 0 146 32l15 -35q-56 -34 -164 -34q-123 0 -186.5 69t-76.5 212h-82v34h80q-1 15 -1 47q0 34 1 51h-80v34h82q5 61 20 108t44.5 87t79.5 61t120 21q101 0 162 -37l-18 -34q-57 34 -139 34q-108 0 -162.5 -57t-65.5 -183h268
v-34h-270q-1 -17 -1 -51q0 -32 1 -47h270v-34z" />
    <glyph glyph-name="parenleft.case" horiz-adv-x="270" 
d="M219 -67l-32 -19q-141 198 -141 436t141 436l32 -19q-68 -94 -100.5 -192t-32.5 -225t32.5 -225t100.5 -192z" />
    <glyph glyph-name="parenright.case" horiz-adv-x="271" 
d="M84 -86l-32 19q68 94 100.5 192t32.5 225t-32.5 225t-100.5 192l32 19q141 -198 141 -436t-141 -436z" />
    <glyph glyph-name="hyphen.case" horiz-adv-x="445" 
d="M375 330h-305v39h305v-39z" />
    <glyph glyph-name="bracketleft.case" horiz-adv-x="307" 
d="M249 -79h-177v858h177v-36h-137v-786h137v-36z" />
    <glyph glyph-name="bracketright.case" horiz-adv-x="307" 
d="M235 -79h-177v36h137v786h-137v36h177v-858z" />
    <glyph glyph-name="braceleft.case" horiz-adv-x="351" 
d="M287 -41v-38q-29 0 -49 2.5t-42.5 12.5t-36.5 28t-23 49.5t-9 75.5q0 131 -16.5 182t-62.5 60l-4 40q52 9 67.5 57.5t15.5 182.5q0 44 9 75.5t23 49.5t36.5 28t42.5 12.5t49 2.5v-38q-32 0 -50 -3.5t-37 -16t-27 -42t-8 -77.5q0 -118 -15.5 -176t-53.5 -75q39 -18 54 -76
t15 -177q0 -48 8 -77.5t27 -42t37 -16t50 -3.5z" />
    <glyph glyph-name="braceright.case" horiz-adv-x="351" 
d="M64 -41q32 0 50 3.5t37 16t27 42t8 77.5q0 118 15.5 176t53.5 75q-39 18 -54 76t-15 177q0 48 -8 77.5t-27 42t-37 16t-50 3.5v38q29 0 49 -2.5t42.5 -12.5t36.5 -28t23 -49.5t9 -75.5q0 -131 16.5 -182t62.5 -60l4 -40q-52 -9 -67.5 -57.5t-15.5 -182.5q0 -44 -9 -75.5
t-23 -49.5t-36.5 -28t-42.5 -12.5t-49 -2.5v38z" />
    <glyph glyph-name="guillemotleft.case" horiz-adv-x="661" 
d="M319 142l-261 190v35l261 190l22 -31l-248 -176l248 -178zM581 142l-261 190v35l261 190l22 -31l-248 -176l248 -178z" />
    <glyph glyph-name="uni00AD.case" horiz-adv-x="445" 
d="M375 330h-305v39h305v-39z" />
    <glyph glyph-name="guillemotright.case" horiz-adv-x="661" 
d="M342 142l-22 30l248 178l-248 176l22 31l261 -190v-35zM80 142l-22 30l248 178l-248 176l22 31l261 -190v-35z" />
    <glyph glyph-name="gravecomb.case" horiz-adv-x="1" 
d="M-307 765l-31 -4l-86 170l45 4z" />
    <glyph glyph-name="acutecomb.case" horiz-adv-x="1" 
d="M-324 761l-31 4l73 170l44 -4z" />
    <glyph glyph-name="uni0302.case" horiz-adv-x="1" 
d="M-159 781l-24 -23l-149 113l-149 -113l-24 23l156 124h34z" />
    <glyph glyph-name="tildecomb.case" horiz-adv-x="1" 
d="M-134 819q-53 -59 -125 -59q-34 0 -78 32t-68 32q-57 0 -102 -52l-22 28q53 59 125 59q34 0 78 -32t68 -32q57 0 102 52z" />
    <glyph glyph-name="uni0308.case" horiz-adv-x="1" 
d="M-234 789q0 -28 -29 -28q-28 0 -28 28t28 28q29 0 29 -28zM-56 789q0 -28 -29 -28q-28 0 -28 28t28 28q29 0 29 -28z" />
    <glyph glyph-name="uni030A.case" horiz-adv-x="1" 
d="M-153 702q78 0 78 74q0 73 -78 73q-42 0 -60 -17.5t-18 -55.5t18.5 -56t59.5 -18zM-153 671q-114 0 -114 105t114 105t114 -105t-114 -105z" />
    <glyph glyph-name="uni030C.case" horiz-adv-x="1" 
d="M-91 886l-156 -124h-34l-156 124l24 23l149 -113l149 113z" />
    <glyph glyph-name="endash.case" horiz-adv-x="574" 
d="M505 330h-435v39h435v-39z" />
    <glyph glyph-name="emdash.case" horiz-adv-x="701" 
d="M632 330h-562v39h562v-39z" />
    <glyph glyph-name="guilsinglleft.case" horiz-adv-x="398" 
d="M319 142l-261 190v35l261 190l22 -31l-248 -176l248 -178z" />
    <glyph glyph-name="guilsinglright.case" horiz-adv-x="398" 
d="M80 142l-22 30l248 178l-248 176l22 31l261 -190v-35z" />
    <glyph glyph-name="f_f_j" horiz-adv-x="856" 
d="M788 649q0 -28 -30 -28t-30 28t30 28t30 -28zM738 43v426h-267v-469h-40v469h-267v-469h-40v469h-93v37h91q-10 65 -10 81q0 63 31.5 103t100.5 40q33 0 62 -8l-7 -37q-24 8 -56 8q-91 0 -91 -105q0 -35 10 -82h267q-10 65 -10 81q0 63 31.5 103t100.5 40q33 0 62 -8
l-7 -37q-24 8 -56 8q-91 0 -91 -105q0 -35 10 -82h269l40 4v-455q0 -99 -13.5 -145.5t-68.5 -75.5l-21 31q42 25 52.5 61.5t10.5 116.5z" />
    <glyph glyph-name="f_j" horiz-adv-x="549" 
d="M451 621q-30 0 -30 28t30 28t30 -28t-30 -28zM389 -166l-21 31q42 25 52.5 61.5t10.5 116.5v426h-267v-469h-40v469h-93v37h91q-10 65 -10 81q0 63 31.5 103t100.5 40q33 0 62 -8l-7 -37q-24 8 -56 8q-91 0 -91 -105q0 -35 10 -82h269l40 4v-455q0 -99 -13.5 -145.5
t-68.5 -75.5z" />
    </font>
</defs>
</svg>
