<svg width="65" height="35" viewBox="0 0 65 35" xmlns="http://www.w3.org/2000/svg"><title>LogoCrema</title><path d="M223.25 72c-.481 2.216-1.505 5.31-3.071 9.345-1.588 4.014-3.51 8.111-5.786 12.293-2.277 4.18-4.888 7.881-7.791 11.1-2.925 3.241-5.87 5.164-8.857 5.792-3.3.627-5.974.313-8.02-.941-2.048-1.255-3.635-3.073-4.721-5.436-1.107-2.362-1.86-5.122-2.256-8.258a60.315 60.315 0 0 1-.46-9.219c.063-2.99.314-5.75.71-8.279.397-2.508.836-4.41 1.296-5.665-.794.313-1.88 2.09-3.3 5.31-1.421 3.22-2.862 6.857-4.366 10.87a254 254 0 0 0-4.136 11.938c-1.253 3.93-1.964 6.857-2.13 8.739 0 .48-.084.794-.23.94v2.363c0 2.195-.92 3.91-2.716 5.08-1.817 1.192-3.78 1.798-5.911 1.903-2.13.062-4.01-.398-5.66-1.422-1.65-1.024-2.32-2.718-2.006-5.08.313-3.93.71-9.01 1.19-15.24.377-5.08.773-10.454 1.15-16.098a150.319 150.319 0 0 1-3.092 8.425 83.006 83.006 0 0 1-5.89 11.812c-2.277 3.784-4.846 6.543-7.666 8.279-1.734 1.108-3.656 1.567-5.786 1.421a15.824 15.824 0 0 1-6.141-1.777c-1.964-1.024-3.697-2.509-5.201-4.495-1.504-1.965-2.486-4.285-2.945-6.961-.48-2.363-.71-5.039-.71-8.028-1.42 4.411-3.071 8.592-4.972 12.522-1.88 3.93-4.094 7.171-6.6 9.68-1.588 1.735-3.426 2.718-5.557 2.948-2.13.23-4.177-.126-6.14-1.067-1.964-.94-3.698-2.32-5.202-4.139-1.504-1.798-2.485-3.91-2.945-6.272-.48-2.362-.71-5.352-.71-8.968 0-.92 0-1.861.02-2.844-.229.398-.438.795-.668 1.192-2.36 4.098-4.97 7.798-7.79 11.101-2.842 3.324-5.745 5.206-8.732 5.666-3.321.627-5.953.23-7.916-1.192-1.964-1.422-3.384-3.47-4.262-6.146-.877-2.676-1.378-5.708-1.545-9.094a70.095 70.095 0 0 1 .23-10.056c.313-3.303.71-6.251 1.19-8.864.48-2.593.94-4.516 1.42-5.791-.793.313-1.963 1.819-3.55 4.495-1.588 2.675-3.196 5.644-4.846 8.864a227.969 227.969 0 0 0-4.596 9.45 327.546 327.546 0 0 0-2.84 6.27v-.23c-.314.942-1.066 2.008-2.235 3.2a13.895 13.895 0 0 1-4.136 2.843c-1.588.71-3.029 1.066-4.366 1.066-1.337 0-2.256-.794-2.715-2.362-.48-1.59-.794-3.743-.94-6.502-.167-2.76-.23-5.436-.23-8.028 0-2.592.042-4.955.125-7.087.063-2.133.042-3.429-.125-3.91-.794.314-1.65 1.736-2.59 4.265-.94 2.53-1.943 5.352-2.966 8.509a129.24 129.24 0 0 0-2.716 9.68c-.793 3.323-1.336 5.916-1.65 7.797-.313 2.05-1.378 3.575-3.196 4.6a11.808 11.808 0 0 1-5.89 1.547c-2.13 0-4.031-.544-5.66-1.652-1.65-1.087-2.403-2.843-2.236-5.185.147-2.676.126-6.271-.125-10.766-.23-4.495-.48-9.178-.71-14.049-.23-4.892-.355-9.7-.355-14.425 0-4.725.23-8.655.71-11.812.627-3.47 2.13-6.188 4.47-8.153 2.36-1.965 4.763-3.303 7.206-4.014 2.444-.71 4.554-.774 6.371-.23 1.817.564 2.486 1.777 2.005 3.68-.48 2.195-1.023 5.184-1.65 8.968a245.197 245.197 0 0 0-1.65 11.582c-.48 3.951-.877 7.672-1.17 11.226-.313 3.554-.48 6.105-.48 7.673a72.486 72.486 0 0 1 2.36-6.857c.94-2.363 1.943-4.683 2.966-6.962 1.024-2.279 2.09-4.37 3.196-6.25 1.086-1.903 2.13-3.388 3.07-4.496 1.087-1.568 2.8-2.801 5.076-3.658 2.277-.878 4.408-1.296 6.371-1.296 1.964 0 3.572.543 4.846 1.651 1.254 1.108 1.504 2.676.71 4.725-.313.94-.626 2.76-.94 5.436a522.705 522.705 0 0 0-.94 8.738c.94-2.195 2.215-4.64 3.781-7.317 1.567-2.676 3.133-5.247 4.72-7.672 1.567-2.446 3.03-4.683 4.366-6.732 1.337-2.049 2.403-3.554 3.196-4.495 1.086-1.568 2.737-2.864 4.95-3.888 2.194-1.025 4.325-1.547 6.372-1.547 2.047 0 3.78.522 5.18 1.547 1.42 1.024 2.047 2.717 1.88 5.08-.167 1.108-.439 2.99-.815 5.665-.397 2.676-.898 5.75-1.546 9.22a303.983 303.983 0 0 0-1.775 10.87 752.825 752.825 0 0 0-1.42 10.287c-.397 3.073-.627 5.644-.71 7.672-.084 2.049.187 3.073.814 3.073.94 0 2.193-1.108 3.78-3.324 1.567-2.195 3.113-4.829 4.617-7.923 1.504-3.073 2.903-6.251 4.26-9.575 1.338-3.324 2.32-5.98 2.946-8.028.23-.69.522-1.275.898-1.756.334-4.056.564-8.028.71-11.958 0-2.676.982-4.683 2.967-6.021 1.963-1.338 4.114-2.132 6.496-2.362 2.36-.23 4.49.083 6.37.94 1.88.878 2.737 2.154 2.59 3.91-.313 5.038-.793 10.327-1.42 15.826a826.824 826.824 0 0 1-1.88 15.365c-.626 4.725-1.023 8.697-1.19 11.938-.167 3.24.23 4.996 1.19 5.31.773.313 1.65-.272 2.59-1.777.94-1.485 1.88-3.492 2.841-6.021a200.08 200.08 0 0 0 2.966-8.509 409.399 409.399 0 0 0 2.945-9.45 608.91 608.91 0 0 0 2.59-8.968c.794-2.843 1.484-5.122 2.131-6.857.167-2.362 1.232-3.805 3.196-4.37 1.963-.543 4.052-.501 6.245.126 2.194.627 4.136 1.589 5.786 2.843 1.65 1.255 2.402 2.593 2.256 4.014-.626 2.843-1.232 6.376-1.775 10.641a146.038 146.038 0 0 0-1.066 12.293c-.167 3.93-.041 7.317.356 10.16.396 2.843 1.295 4.244 2.715 4.244.94 0 2.089-1.212 3.426-3.658 1.336-2.446 2.631-5.31 3.906-8.635a256.205 256.205 0 0 0 3.55-9.93c1.087-3.303 9.337-27.596 9.65-29.33.063-.356.168-.712.293-1.004.23-3.993.439-7.84.627-11.499.313-6.292.585-11.77.835-16.432.23-4.64.355-7.84.355-9.575 0-3.784 1.024-6.418 3.07-7.923 2.048-1.505 4.262-2.174 6.622-2.007 2.36.167 4.45 1.024 6.246 2.592 1.817 1.59 2.485 3.638 2.005 6.147-.313 1.108-.668 3.867-1.065 8.278a1279.23 1279.23 0 0 1-1.546 16.077 756.336 756.336 0 0 0-1.775 20.802 2343.779 2343.779 0 0 0-1.525 22.452 127.17 127.17 0 0 1 6.266-11.937c2.277-3.867 4.052-6.648 5.306-8.383 1.253-1.568 3.07-2.801 5.43-3.659 2.36-.857 4.638-1.254 6.852-1.191 2.193.083 3.968.627 5.305 1.651 1.337 1.025 1.609 2.634.836 4.85-.48 1.422-1.024 4.37-1.65 8.865a253.85 253.85 0 0 0-1.546 13.818c-.397 4.725-.543 8.99-.48 12.774.083 3.784.522 5.665 1.295 5.665.94 0 2.172-1.108 3.676-3.303 1.483-2.216 3.029-4.85 4.595-7.923a109.68 109.68 0 0 0 4.261-9.45c1.253-3.219 2.214-5.874 2.841-7.923.48-1.421 1.211-2.362 2.235-2.843 1.023-.46 2.005-.627 2.945-.46.94.167 1.734.669 2.36 1.526.564.815.71 1.944.397 3.366z" fill="#F8EBDE" fill-rule="evenodd"/></svg>